G04 #@! TF.GenerationSoftware,KiCad,Pcbnew,no-vcs-found-23590d8~58~ubuntu14.04.1*
G04 #@! TF.CreationDate,2017-04-11T13:57:34+09:00*
G04 #@! TF.ProjectId,dotmatrix_64x48,646F746D61747269785F36347834382E,rev?*
G04 #@! TF.FileFunction,Profile,NP*
%FSLAX46Y46*%
G04 Gerber Fmt 4.6, Leading zero omitted, Abs format (unit mm)*
G04 Created by KiCad (PCBNEW no-vcs-found-23590d8~58~ubuntu14.04.1) date Tue Apr 11 13:57:34 2017*
%MOMM*%
%LPD*%
G01*
G04 APERTURE LIST*
%ADD10C,0.100000*%
%ADD11C,0.150000*%
G04 APERTURE END LIST*
D10*
D11*
X289000000Y-86500000D02*
X289000000Y-86500000D01*
X289000000Y-74000000D02*
G75*
G03X287000000Y-74000000I-1000000J0D01*
G01*
X289000000Y-83000000D02*
X289000000Y-74000000D01*
X287000000Y-86500000D02*
X287000000Y-86500000D01*
X287000000Y-83000000D02*
X287000000Y-96000000D01*
X289000000Y-83000000D02*
X289000000Y-96000000D01*
X287000000Y-83000000D02*
X287000000Y-74000000D01*
X289000000Y-53500000D02*
X289000000Y-53500000D01*
X289000000Y-33000000D02*
G75*
G03X287000000Y-33000000I-1000000J0D01*
G01*
X289000000Y-50000000D02*
X289000000Y-33000000D01*
X287000000Y-70500000D02*
G75*
G03X289000000Y-70500000I1000000J0D01*
G01*
X287000000Y-53500000D02*
X287000000Y-53500000D01*
X289000000Y-70500000D02*
X289000000Y-53500000D01*
X287000000Y-50000000D02*
X287000000Y-53500000D01*
X289000000Y-50000000D02*
X289000000Y-53500000D01*
X287000000Y-70500000D02*
X287000000Y-53500000D01*
X287000000Y-50000000D02*
X287000000Y-33000000D01*
X289000000Y-133500000D02*
X289000000Y-116500000D01*
X287000000Y-133500000D02*
G75*
G03X289000000Y-133500000I1000000J0D01*
G01*
X287000000Y-113000000D02*
X287000000Y-116500000D01*
X287000000Y-133500000D02*
X287000000Y-116500000D01*
X287000000Y-113000000D02*
X287000000Y-96000000D01*
X289000000Y-113000000D02*
X289000000Y-96000000D01*
X289000000Y-113000000D02*
X289000000Y-116500000D01*
X289000000Y-116500000D02*
X289000000Y-116500000D01*
X287000000Y-116500000D02*
X287000000Y-116500000D01*
X289000000Y-157500000D02*
X289000000Y-157500000D01*
X289000000Y-154000000D02*
X289000000Y-157500000D01*
X287000000Y-157500000D02*
X287000000Y-157500000D01*
X287000000Y-154000000D02*
X287000000Y-157500000D01*
X289000000Y-154000000D02*
X289000000Y-137000000D01*
X287000000Y-154000000D02*
X287000000Y-137000000D01*
X289000000Y-137000000D02*
G75*
G03X287000000Y-137000000I-1000000J0D01*
G01*
X287000000Y-174500000D02*
G75*
G03X289000000Y-174500000I1000000J0D01*
G01*
X289000000Y-174500000D02*
X289000000Y-157500000D01*
X287000000Y-174500000D02*
X287000000Y-157500000D01*
X289000000Y-178000000D02*
G75*
G03X287000000Y-178000000I-1000000J0D01*
G01*
X287000000Y-29500000D02*
G75*
G03X289000000Y-29500000I1000000J0D01*
G01*
X25500000Y-154500000D02*
G75*
G03X26500000Y-153500000I0J1000000D01*
G01*
X16500000Y-128200000D02*
G75*
G03X16500000Y-130200000I0J-1000000D01*
G01*
X13500000Y-130200000D02*
G75*
G03X13500000Y-128200000I0J1000000D01*
G01*
X26500000Y-129200000D02*
G75*
G03X25500000Y-128200000I-1000000J0D01*
G01*
X24500000Y-142000000D02*
G75*
G03X26500000Y-142000000I1000000J0D01*
G01*
X26500000Y-145000000D02*
G75*
G03X24500000Y-145000000I-1000000J0D01*
G01*
X17000000Y-152500000D02*
G75*
G03X17000000Y-154500000I0J-1000000D01*
G01*
X13500000Y-154500000D02*
G75*
G03X13500000Y-152500000I0J1000000D01*
G01*
X26500000Y-145000000D02*
X26500000Y-153500000D01*
X25500000Y-128200000D02*
X16500000Y-128200000D01*
X24500000Y-152500000D02*
X17000000Y-152500000D01*
X13500000Y-154500000D02*
G75*
G03X12000000Y-156000000I0J-1500000D01*
G01*
X12000000Y-126700000D02*
G75*
G03X13500000Y-128200000I1500000J0D01*
G01*
X289000000Y-12000000D02*
X289000000Y-29500000D01*
X296900000Y-12000000D02*
X289000000Y-12000000D01*
X24500000Y-130200000D02*
X24500000Y-142000000D01*
X26500000Y-142000000D02*
X26500000Y-129200000D01*
X13500000Y-152500000D02*
X12000000Y-152500000D01*
X24500000Y-130200000D02*
X16500000Y-130200000D01*
X12000000Y-156000000D02*
X12000000Y-196000000D01*
X12000000Y-130200000D02*
X12000000Y-152500000D01*
X13500000Y-130200000D02*
X12000000Y-130200000D01*
X24500000Y-145000000D02*
X24500000Y-152500000D01*
X17000000Y-154500000D02*
X25500000Y-154500000D01*
X296900000Y-59000000D02*
X296900000Y-12000000D01*
X12000000Y-25800000D02*
G75*
G03X13000000Y-26800000I1000000J0D01*
G01*
X16100000Y-26800000D02*
X13000000Y-26800000D01*
X17100000Y-27800000D02*
G75*
G03X16100000Y-26800000I-1000000J0D01*
G01*
X12000000Y-14000000D02*
X12000000Y-25800000D01*
X17100000Y-54000000D02*
X17100000Y-27800000D01*
X13000000Y-55000000D02*
X16100000Y-55000000D01*
X16100000Y-55000000D02*
G75*
G03X17100000Y-54000000I0J1000000D01*
G01*
X13000000Y-55000000D02*
G75*
G03X12000000Y-56000000I0J-1000000D01*
G01*
X14000000Y-12000000D02*
G75*
G03X12000000Y-14000000I0J-2000000D01*
G01*
X12000000Y-196000000D02*
G75*
G03X14000000Y-198000000I2000000J0D01*
G01*
X285000000Y-198000000D02*
G75*
G03X287000000Y-196000000I0J2000000D01*
G01*
X287000000Y-14000000D02*
G75*
G03X285000000Y-12000000I-2000000J0D01*
G01*
X296900000Y-198000000D02*
X296900000Y-59000000D01*
X287000000Y-178000000D02*
X287000000Y-196000000D01*
X287000000Y-14000000D02*
X287000000Y-29500000D01*
X289000000Y-198000000D02*
X289000000Y-178000000D01*
X296900000Y-198000000D02*
X289000000Y-198000000D01*
X12000000Y-126700000D02*
X12000000Y-56000000D01*
X285000000Y-198000000D02*
X14000000Y-198000000D01*
X14000000Y-12000000D02*
X285000000Y-12000000D01*
M02*
