M48
;DRILL file {KiCad no-vcs-found-1e87ae6~58~ubuntu14.04.1} date Mon Jul  3 13:26:17 2017
;FORMAT={3:3/ absolute / metric / suppress trailing zeros}
FMAT,2
METRIC,LZ
T1C0.300
T2C0.400
T3C0.500
T4C0.600
T5C0.800
T6C0.900
T7C1.000
T8C1.001
T9C1.016
T10C1.100
T11C1.500
T12C1.800
T13C2.000
T14C3.200
%
G90
G05
M71
T1
X02475Y-04725
X02475Y-04835
X03305Y-07215
X028025Y-07295
X199Y-0205
X2031Y-12065
X0159Y-1013
X0836Y-14775
X179975Y-12455
X2574Y-0551
X12645Y-143775
X203125Y-113075
X133375Y-1898
X1605Y-0205
X1606Y-0282
X2263Y-0205
X253025Y-124575
X211Y-0552
X06078Y-17074
X2107Y-0361
X1495Y-1823
X0189Y-1208
X0158Y-0831
X196075Y-086425
X022375Y-15965
X2147Y-0282
X2344Y-1245
X0452Y-1708
X1683Y-0207
X040525Y-154825
X0381Y-08345
X2108Y-1091
X0873Y-020325
X2111Y-1128
X237475Y-128275
X1262Y-0205
X2645Y-0669
X03336Y-10251
X14523Y-1822
X1563Y-174625
X1185Y-1397
X035625Y-155075
X141525Y-166925
X1684Y-0399
X2033Y-128325
X068625Y-0743
X0724Y-1824
X1646Y-03205
X1029Y-143975
X1225Y-0746
X18045Y-1392
X2568Y-1822
X2645Y-05135
X0922Y-1706
X1032Y-1707
X0263Y-06414
X03535Y-1967
X0277Y-1523
X164525Y-016575
X2457Y-0475
X172Y-105
X195425Y-12845
X1916Y-1091
X05385Y-136025
X1144Y-028325
X0763Y-1629
X027Y-181
X037725Y-12565
X2405Y-0167
X256925Y-051525
X0266Y-04135
X2264Y-0319
X2527Y-105
X191125Y-013025
X1068Y-1476
X0837Y-1591
X168675Y-12865
X0838Y-1901
X2069Y-1244
X16772Y-09351
X1875Y-104925
X2143Y-036
X25265Y-1014
X24135Y-06675
X2492Y-06655
X0353Y-056975
X11453Y-17833
X1107Y-1823
X2189Y-1322
X021075Y-111775
X1534Y-0901
X099Y-1669
X1071Y-1669
X09539Y-04757
X03785Y-1635
X23785Y-17465
X269Y-0551
X269Y-0206
X1722Y-0439
X1802Y-1167
X2417Y-0317
X2457Y-1286
X23372Y-18204
X1837Y-0435
X229525Y-05145
X2798Y-1051
X10685Y-0284
X1378Y-0357
X02675Y-0164
X02776Y-06184
X0179Y-074
X013375Y-1606
X218425Y-03215
X2763Y-0552
X2226Y-0476
X16455Y-18231
X2415Y-0589
X2419Y-0626
X175975Y-036
X230375Y-182525
X14125Y-016825
X083825Y-0207
X0722Y-19
X279825Y-1169
X0766Y-1938
X2417Y-0398
X2534Y-1784
X0942Y-0172
X2318Y-1391
X2493Y-1245
X0875Y-1899
X2525Y-1322
X23671Y-08952
X1764Y-1014
X03121Y-05757
X0354Y-10785
X20327Y-17058
X23Y-132
X225675Y-101475
X01805Y-03595
X11845Y-074325
X2848Y-10515
X0278Y-05798
X253775Y-113175
X03615Y-15675
X2603Y-1746
X26865Y-051175
X0239Y-046175
X2608Y-0283
X1797Y-017
X0556Y-1938
X1994Y-117
X176Y-0204
X2343Y-0322
X0878Y-1784
X2606Y-066825
X02101Y-0921
X21095Y-105325
X0395Y-117425
X1456Y-0322
X1952Y-047475
X0334Y-1742
X036125Y-036025
X191825Y-0475
X1183Y-0206
X1646Y-0286
X2266Y-0551
X16845Y-1858
X145525Y-035925
X2309Y-1899
X1147Y-1631
X1223Y-0166
X1266Y-1938
X079725Y-155325
X1849Y-19375
X15405Y-1939
X22225Y-124525
X0384Y-1856
X2379Y-1901
X17245Y-0975
X2292Y-0169
X1819Y-0784
X2493Y-1012
X242525Y-17485
X272275Y-17475
X1729Y-1939
X02027Y-02248
X176475Y-120625
X195625Y-05145
X222625Y-0591
X2299Y-174525
X16855Y-10905
X16425Y-174725
X2069Y-1128
X2145Y-128225
X1377Y-1823
X06855Y-16685
X03283Y-13191
X1183Y-1784
X2416Y-0244
X2797Y-1629
X0293Y-0277
X2533Y-032
X125975Y-190025
X1878Y-1283
X0452Y-1939
X18405Y-13225
X01865Y-07175
X12179Y-13995
X1451Y-1898
X1645Y-0206
X237675Y-0551
X2334Y-0434
X1065Y-194025
X2761Y-1553
X2727Y-0321
X2032Y-0476
X02035Y-06665
X2192Y-0476
X107Y-16298
X1797Y-0282
X145Y-0165
X2532Y-0552
X068025Y-016875
X1492Y-032
X1798Y-1091
X1916Y-032
X1916Y-0242
X1808Y-1939
X16455Y-0476
X015725Y-056075
X03845Y-074925
X2602Y-1706
X2568Y-0167
X19162Y-16297
X1764Y-113
X1409Y-08985
X2799Y-0476
X2683Y-0745
X2603Y-1127
X2841Y-120625
X102925Y-020575
X2219Y-0205
X06055Y-18217
X261Y-0473
X2565Y-1784
X2798Y-0706
X2797Y-1783
X26865Y-151375
X0325Y-1479
X1341Y-1824
X268425Y-03585
X2455Y-1938
X2609Y-0589
X18391Y-17056
X02735Y-0765
X02032Y-013208
X2108Y-1208
X16419Y-09374
X1949Y-0167
X223Y-0398
X0388Y-14765
X2761Y-0437
X1031Y-0513
X2727Y-0399
X1989Y-0399
X1728Y-1323
X07025Y-0899
X0757Y-1668
X1184Y-1939
X19515Y-12065
X1957Y-0554
X1565Y-0321
X04898Y-16705
X1874Y-1823
X1031Y-1938
X12207Y-14768
X1722Y-0282
X1147Y-1478
X033425Y-030625
X2307Y-101
X122Y-1668
X1683Y-0324
X1227Y-0782
X1149Y-1168
X153Y-0204
X09495Y-0204
X22255Y-1324
X09233Y-07821
X049425Y-155375
X0912Y-1668
X2688Y-0437
X02245Y-1667
X25468Y-13223
X1108Y-0244
X06072Y-14786
X02505Y-0339
X114325Y-155575
X0992Y-1745
X0843Y-1784
X187925Y-0321
X126275Y-174625
X1566Y-0976
X2498Y-0243
X176Y-032
X2149Y-0204
X1339Y-1667
X11861Y-18227
X1566Y-1168
X2256Y-112925
X1497Y-051225
X0388Y-144675
X02875Y-04805
X029175Y-069125
X01762Y-06961
X2489Y-0589
X1646Y-1012
X206675Y-036075
X0408Y-09325
X013Y-02045
X040225Y-1395
X2186Y-055
X234Y-0554
X27995Y-0284
X1994Y-1939
X19987Y-15122
X17956Y-1512
X218725Y-12455
X18875Y-077475
X25725Y-070675
X0309Y-0361
X2103Y-0282
X1992Y-0283
X0684Y-1591
X06825Y-155475
X1104Y-1783
X107Y-1747
X1532Y-0668
X03163Y-13379
X075875Y-17455
X1024Y-0169
X272Y-082025
X2648Y-0205
X1877Y-1746
X239275Y-089125
X2172Y-194025
X1683Y-0439
X07574Y-02033
X19525Y-0359
X2688Y-0666
X1873Y-1168
X11095Y-143825
X0953Y-1475
X2338Y-0208
X11835Y-08195
X1762Y-0437
X06814Y-17826
X02262Y-08281
X0319Y-0796
X018675Y-073125
X038975Y-19075
X0399Y-1477
X176125Y-0167
X03275Y-08977
X06033Y-13614
X03Y-106
X1184Y-1708
X2685Y-0284
X2066Y-0437
X08Y-1899
X2722Y-0783
X2485Y-013275
X0947Y-013175
X1682Y-101275
X1954Y-1747
X0913Y-19
X1992Y-1284
X2607Y-0244
X14624Y-05885
X23765Y-0439
X03555Y-11065
X13751Y-17461
X2353Y-1207
X222Y-1092
X100925Y-0706
X1302Y-0246
X2683Y-0167
X03897Y-08777
X0387Y-0259
X03437Y-1379
X2798Y-1591
X2758Y-1591
X2609Y-1161
X2099Y-1937
X2299Y-0284
X1652Y-0398
X01949Y-09611
X03746Y-06471
X191575Y-120475
X1335Y-0206
X176Y-1168
X2721Y-0516
X04035Y-081925
X17965Y-132225
X2797Y-1129
X1822Y-1668
X1263Y-0783
X2609Y-0396
X107Y-0477
X036Y-17225
X2855Y-19675
X026725Y-0276
X020175Y-069425
X0419Y-1744
X2297Y-0476
X1837Y-1051
X028975Y-0987
X15313Y-17453
X2495Y-0629
X1032Y-163
X1071Y-1593
X122Y-0246
X1224Y-1899
X1063Y-016925
X1907Y-0167
X245225Y-05155
X27985Y-097575
X1564Y-0244
X068025Y-151425
X157175Y-1246
X110425Y-07455
X091Y-0168
X1952Y-1822
X0492Y-1359
X2609Y-1014
X221775Y-0859
X253475Y-174625
X261125Y-082225
X2797Y-0668
X13025Y-078425
X2188Y-0397
X099375Y-1705
X206925Y-0513
X183425Y-036025
X0454Y-167
X26527Y-09311
X1413Y-1822
X122Y-1785
X2646Y-0551
X268425Y-0822
X20507Y-18731
X037825Y-018775
X038775Y-168325
X013Y-1643
X12215Y-10535
X2764Y-18235
X027425Y-043425
X2532Y-0361
X2187Y-0245
X2761Y-1514
X1874Y-1208
X22615Y-059
X2564Y-1939
X2611Y-0705
X2188Y-1168
X260425Y-1823
X0954Y-0512
X21805Y-051275
X1376Y-0207
X168425Y-036
X0395Y-0172
X03164Y-04925
X02865Y-0644
X0211Y-0764
X022325Y-069275
X0133Y-1547
X0449Y-1823
X0361Y-045325
X11078Y-14743
X183825Y-0476
X20305Y-058875
X1185Y-0245
X2725Y-0632
X153Y-1899
X09907Y-15921
X237775Y-04755
X2234Y-1939
X0917Y-1629
X0264Y-1824
X2453Y-0398
X0644Y-1899
X08765Y-155375
X2495Y-1823
X01321Y-13536
X07564Y-15917
X017925Y-171725
X1452Y-028
X179975Y-0977
X145375Y-11695
X2024Y-0169
X1488Y-0247
X1919Y-1014
X272375Y-16305
X161Y-101
X0683Y-1477
X0387Y-085175
X0349Y-1456
X214825Y-0591
X18765Y-16655
X191575Y-1553
X206875Y-128425
X145475Y-167
X2027Y-0246
X1568Y-1823
X0382Y-047075
X1145Y-1707
X2569Y-0479
X0451Y-1861
X2103Y-1168
X2567Y-1745
X0875Y-1747
X2799Y-1746
X2757Y-1707
X2526Y-0204
X2782Y-082
X2604Y-1052
X0534Y-1898
X191625Y-132275
X1914Y-09775
X264Y-1898
X032Y-051
X02442Y-08312
X223Y-0284
X1182Y-0169
X02855Y-090175
X2646Y-036
X021375Y-16115
X2534Y-0397
X2031Y-116775
X1953Y-112825
X18Y-1129
X1072Y-1901
X1844Y-0243
X0234Y-1307
X28485Y-035925
X1605Y-1899
X23785Y-028275
X099225Y-020625
X0396Y-0431
X2482Y-0167
X1604Y-0938
X26648Y-09381
X2068Y-0322
X137575Y-028325
X12205Y-0284
X06066Y-15924
X0914Y-1823
X0796Y-1746
X2455Y-0321
X2323Y-120725
X0759Y-1784
X2293Y-120675
X1879Y-151225
X126Y-1668
X0349Y-1443
X2451Y-03605
X19171Y-1707
X021275Y-082125
X2186Y-1208
X16775Y-08979
X0879Y-06668
X12251Y-11669
X030925Y-1558
X0382Y-05668
X1727Y-1551
X2804Y-036
X15265Y-035825
X01624Y-07236
X1414Y-19015
X2071Y-0551
X2033Y-0553
X04923Y-159
X04919Y-17826
X1868Y-0168
X0133Y-1205
X08785Y-193625
X27585Y-02835
X1952Y-0321
X19165Y-15128
X2149Y-0321
X192575Y-085825
X21Y-0246
X1419Y-066875
X195075Y-04375
X0682Y-1709
X09198Y-06671
X2801Y-0514
X1685Y-18995
X17979Y-15526
X276Y-059
X20265Y-193675
X11455Y-143875
X102875Y-15545
X10965Y-10535
X1378Y-0898
X1841Y-032
X2142Y-0169
X08417Y-18214
X2338Y-1939
X014775Y-166675
X03758Y-06588
X1725Y-1247
X26115Y-193575
X0153Y-1043
X07965Y-1476
X187325Y-124625
X257Y-059
X11075Y-028375
X02655Y-0385
X1605Y-0245
X040175Y-1626
X2105Y-0401
X1191Y-1475
X03085Y-034925
X199175Y-124525
X039125Y-19665
X233725Y-06675
X0301Y-0443
X1952Y-0243
X10253Y-18217
X2303Y-1246
X1716Y-0165
X03905Y-073675
X1992Y-1091
X2071Y-1092
X2147Y-1323
X215Y-1131
X243575Y-12075
X1618Y-0898
X1259Y-0244
X09145Y-04762
X1107Y-0204
X23395Y-1747
X1263Y-1166
X0384Y-1545
X2688Y-0589
X1758Y-0282
X2761Y-1669
X0324Y-1924
X1762Y-1054
X063575Y-074225
X095475Y-1554
X091475Y-15535
X1897Y-1399
X2536Y-1822
X08379Y-16695
X1031Y-1785
X1876Y-0398
X1913Y-0437
X2609Y-0321
X03129Y-05598
X141675Y-036
X02235Y-0183
X022475Y-027475
X0393Y-129
X0685Y-1746
X225425Y-01685
X2412Y-0475
X28Y-0591
X1876Y-1091
X053575Y-128125
X2145Y-1897
X0876Y-159
X1225Y-1745
X072575Y-0204
X2492Y-0437
X0274Y-1024
X253175Y-051425
X276625Y-116825
X2263Y-0282
X2306Y-0244
X2298Y-0361
X160075Y-013225
X0798Y-1591
X195375Y-09735
X16835Y-12085
X2072Y-1322
X0199Y-1158
X2069Y-1208
X22943Y-08987
X0176Y-09305
X245275Y-0668
X10697Y-18217
X17985Y-105125
X04898Y-19023
X103Y-1669
X03883Y-16443
X2764Y-0629
X2181Y-0168
X2453Y-1014
X2066Y-0205
X1914Y-1168
X1803Y-1207
X1372Y-0168
X269Y-0706
X2726Y-0592
X184Y-1281
X1534Y-1208
X2487Y-1284
X23391Y-18996
X1876Y-0436
X226075Y-051325
X2764Y-1091
X1952Y-047475
X0705Y-082325
X106575Y-02445
X02155Y-0682
X2262Y-0437
X07972Y-02056
X24529Y-18985
X2335Y-0591
X2341Y-0627
X040925Y-013075
X0835Y-1629
X141825Y-0207
X1874Y-0207
X0685Y-1939
X1564Y-0283
X1875Y-113
X07615Y-155225
X0763Y-1898
X1837Y-0205
X2343Y-04
X110475Y-082225
X2489Y-1785
X01935Y-1339
X0795Y-0168
X1721Y-0245
X0683Y-14015
X2379Y-1318
X04195Y-170875
X2462Y-1247
X1843Y-1014
X272Y-182325
X1727Y-1012
X257675Y-0822
X036875Y-10235
X198875Y-0514
X20315Y-16683
X125925Y-18235
X034875Y-1542
X20685Y-140075
X12995Y-074175
X2645Y-0629
X284325Y-1356
X03777Y-06925
X272425Y-1594
X0264Y-0236
X0375Y-1563
X279775Y-15525
X277225Y-14365
X276225Y-074425
X023875Y-0365
X257Y-0283
X0417Y-19
X2068Y-1168
X2339Y-0279
X2682Y-1783
X0877Y-1823
X256775Y-066825
X03145Y-095575
X2534Y-1938
X2194Y-10525
X2799Y-1669
X0401Y-1281
X045375Y-013075
X1415Y-0321
X02225Y-170725
X0134Y-17135
X0359Y-037475
X2227Y-0436
X176275Y-0476
X19555Y-059025
X03325Y-113425
X2725Y-0706
X1648Y-0244
X1145Y-1593
X195425Y-101475
X2109Y-0473
X157625Y-193875
X2854Y-0133
X2761Y-147525
X27245Y-170625
X1645Y-1939
X1883Y-1937
X16845Y-0476
X0307Y-111
X207075Y-059175
X226475Y-066375
X262375Y-19665
X203425Y-105225
X2032Y-0324
X1146Y-1824
X2412Y-0207
X2453Y-0245
X2727Y-0247
X2526Y-0283
X118325Y-190025
X0456Y-19
X179875Y-1284
X2608Y-063
X02665Y-013775
X0211Y-07425
X018675Y-0705
X11075Y-14009
X122Y-08985
X1376Y-19
X1602Y-0168
X1989Y-0475
X1992Y-155
X237575Y-05925
X2412Y-0436
X03649Y-13797
X110475Y-193875
X2645Y-0322
X2183Y-0436
X0991Y-16276
X1838Y-0286
X2533Y-0473
X060875Y-017
X1913Y-0283
X237775Y-036075
X095275Y-182
X0242Y-098775
X01764Y-15188
X2686Y-1706
X1532Y-0936
X2218Y-0899
X1569Y-0167
X130025Y-06685
X26095Y-07825
X049075Y-139975
X2643Y-0744
X26915Y-105225
X0877Y-07839
X08Y-1784
X130075Y-028325
X2224Y-0242
X06068Y-1513
X06076Y-17819
X22395Y-1392
X2489Y-0283
X1335Y-1745
X09529Y-17442
X272475Y-035925
X2413Y-1899
X19959Y-1706
X23779Y-16677
X02701Y-02082
X029175Y-071775
X215Y-1246
X08725Y-07055
X1953Y-0205
X1529Y-1823
X2723Y-0436
X2762Y-04
X0298Y-0133
X199Y-0319
X249325Y-1396
X08Y-1631
X0795Y-1668
X202975Y-109075
X13075Y-19375
X161Y-0321
X04045Y-1083
X215Y-0553
X2032Y-0398
X06076Y-17452
X04896Y-17074
X1836Y-1823
X02145Y-1085
X0991Y-1898
X1491Y-0207
X229975Y-086
X01725Y-08
X2378Y-1244
X1681Y-0244
X10715Y-139925
X2148Y-1091
X2698Y-1936
X1526Y-0244
X0915Y-020725
X0453Y-1591
X23775Y-120775
X10085Y-06675
X2645Y-0437
X16865Y-13581
X1149Y-1396
X0272Y-03405
X11065Y-155425
X099Y-1786
X072Y-1784
X0679Y-1823
X202875Y-035775
X1916Y-035975
X1722Y-1207
X1609Y-0977
X1804Y-0397
X2606Y-1784
X2105Y-0204
X0412Y-1822
X0992Y-1821
X03325Y-01525
X2821Y-19565
X034975Y-071625
X0178Y-160475
X196025Y-132
X22535Y-109225
X2798Y-0396
X0391Y-1409
X02825Y-04625
X02689Y-15791
X11815Y-02825
X164225Y-09745
X1145Y-1899
X03385Y-0985
X2607Y-051375
X0237Y-0413
X01305Y-0257
X2338Y-036
X2414Y-0553
X02115Y-15395
X2418Y-1821
X0991Y-1476
X2061Y-1939
X17355Y-1512
X1188Y-1668
X1452Y-1746
X218675Y-128275
X2105Y-0321
X1915Y-07775
X253375Y-0669
X0457Y-1629
X107Y-1784
X2264Y-1322
X0276Y-105925
X2147Y-086
X1566Y-0669
X1414Y-1747
X02502Y-14957
X1112Y-1668
X2608Y-0167
X01336Y-14952
X0982Y-0166
X2534Y-11685
X0324Y-0272
X2567Y-0205
X272375Y-15185
X1917Y-17455
X2798Y-063
X2494Y-193775
X2185Y-0284
X2689Y-0475
X2804Y-1516
X0459Y-01645
X0872Y-074325
X1841Y-1169
X107Y-14355
X2414Y-0358
X12997Y-08225
X107Y-0512
X1798Y-0434
X23365Y-051375
X2762Y-1054
X1843Y-0399
X1377Y-0321
X0182Y-0755
X0135Y-01325
X020025Y-072925
X0249Y-1704
X18755Y-0284
X1684Y-01685
X19162Y-18242
X2453Y-059
X230525Y-167025
X0952Y-159
X1187Y-1744
X08355Y-01675
X0573Y-19
X2335Y-0168
X276725Y-097725
X0805Y-1937
X215325Y-0131
X168875Y-132225
X1986Y-1669
X2337Y-1319
X0922Y-1939
X2035Y-1245
X2494Y-1322
X2648Y-0245
X2343Y-16662
X14216Y-05909
X018625Y-02825
X16025Y-066825
X2376Y-06675
X03355Y-106625
X10309Y-1747
X1684Y-1131
X215025Y-105325
X091425Y-070725
X1301Y-0204
X2607Y-0205
X198775Y-03585
X01985Y-16365
X02316Y-06473
X1264Y-12445
X1535Y-1284
X03245Y-1707
X1263Y-082
X1996Y-1206
X2303Y-0321
X1413Y-028325
X02256Y-09507
X199225Y-1054
X1334Y-0167
X2727Y-0476
X0405Y-101075
X21365Y-139625
X2805Y-1203
X2528Y-1285
X2796Y-1092
X16475Y-0358
X2568Y-0439
X03785Y-01495
X03625Y-0438
X1682Y-0283
X11846Y-159
X2454Y-063
X1108Y-163
X1258Y-0165
X122Y-0205
X1297Y-1899
X2411Y-051475
X083725Y-155275
X0496Y-147575
X146075Y-193725
X22235Y-11315
X111775Y-0898
X0872Y-0167
X2379Y-1823
X17635Y-097675
X2062Y-0169
X2301Y-1287
X248475Y-174625
X26485Y-078325
X1145Y-1668
X1221Y-15535
X2148Y-04
X2341Y-1284
X210575Y-051425
X1875Y-035975
X16901Y-17471
X1221Y-1823
X04938Y-19391
X284925Y-093425
X07235Y-17075
X0361Y-13213
X0391Y-1571
X121925Y-143725
X1103Y-1708
X285225Y-0551
X2413Y-0284
X2492Y-1899
X2646Y-0705
X1839Y-1245
X1914Y-1283
X2143Y-05145
X187625Y-097675
X038375Y-036925
X0386Y-1796
X282175Y-014775
X0135Y-1905
X1913Y-1053
X12977Y-11681
X103775Y-139925
X18745Y-04755
X1144Y-0204
X1492Y-1899
X2379Y-051475
X2275Y-1939
X0955Y-1629
X0995Y-193725
X2766Y-0321
X2031Y-0436
X01633Y-13714
X2069Y-0477
X06821Y-16308
X1488Y-0166
X1454Y-0202
X0234Y-1281
X2496Y-0551
X226025Y-12835
X1526Y-0323
X149Y-0283
X1803Y-1013
X272425Y-17855
X188Y-0244
X160975Y-0361
X106825Y-020625
X033075Y-0795
X0528Y-0744
X21825Y-058775
X18758Y-16294
X27954Y-08603
X2761Y-0476
X114775Y-124525
X28405Y-139875
X037175Y-046125
X2218Y-0167
X28009Y-14741
X1914Y-113
X2646Y-0474
X0493Y-1861
X0915Y-1747
X0315Y-0475
X09175Y-050925
X2757Y-1782
X2761Y-0784
X0534Y-1898
X187725Y-139375
X2644Y-1937
X22625Y-035875
X2685Y-11275
X0315Y-1787
X02585Y-02042
X02114Y-07849
X2222Y-1207
X2221Y-0359
X032925Y-122775
X190925Y-124675
X2495Y-0399
X19555Y-116725
X1995Y-055
X04902Y-18221
X1795Y-0205
X1031Y-19
X1801Y-0243
X0362Y-0323
X1612Y-1939
X1182Y-1629
X0299Y-1137
X2523Y-0168
X06055Y-128275
X2568Y-1127
X045675Y-1783
X134025Y-0283
X06076Y-1399
X06085Y-18989
X1378Y-1668
X0952Y-1784
X0802Y-1824
X2492Y-036
X267925Y-143775
X126Y-17845
X12635Y-1707
X0802Y-0745
X2491Y-0203
X12985Y-1823
X18741Y-1707
X0328Y-1904
X16468Y-08982
X2801Y-0437
X2642Y-0399
X1345Y-1938
X242025Y-082025
X0154Y-1077
X199Y-0436
X1915Y-1669
X1728Y-1283
X2805Y-0321
X138375Y-19365
X040175Y-151425
X2228Y-0552
X23Y-0553
X04913Y-16293
X2181Y-0359
X022Y-1251
X1723Y-0322
X0335Y-0288
X280075Y-074475
X19546Y-15124
X264675Y-0823
X0297Y-040975
X2144Y-0246
X1532Y-1167
X19538Y-16306
X0954Y-1706
X216Y-0895
X1525Y-0166
X225825Y-120675
X2186Y-1093
X1008Y-07811
X1722Y-1128
X2636Y-0168
X16856Y-18233
X17735Y-19375
X11845Y-155225
X2437Y-1244
X2759Y-1631
X1724Y-0396
X06425Y-06675
X0723Y-1745
X0754Y-1477
X1532Y-0977
X2344Y-0244
X1804Y-0321
X2102Y-017
X06852Y-1901
X07964Y-17064
X2314Y-1938
X03458Y-18193
X03627Y-06491
X0354Y-069675
X2299Y-0436
X1725Y-1169
X2255Y-1169
X28Y-0551
X09145Y-14757
X2532Y-059
X16475Y-104875
X02365Y-0385
X2454Y-055
X2108Y-0439
X0839Y-1939
X28Y-0783
X2725Y-0744
X130175Y-013225
X1684Y-117
X0951Y-19
X2645Y-0284
X1916Y-1938
X210725Y-124525
X0136Y-1966
X1952Y-0281
X11065Y-17452
X2222Y-1285
X0722Y-1591
X2109Y-1323
X2186Y-113
X24155Y-128275
X1572Y-0901
X1293Y-0167
X10312Y-04755
X11Y-0169
X04003Y-12381
X183575Y-174675
X1576Y-1282
X03257Y-13793
X03669Y-06939
X18375Y-1129
X099175Y-155375
X04065Y-074075
X184675Y-139325
X2759Y-113
X1069Y-1706
X1913Y-0398
X2606Y-036
X029Y-05746
X083425Y-0399
X03909Y-17353
X0268Y-173
X01965Y-0742
X0394Y-1467
X0453Y-1746
X2373Y-01675
X2332Y-0476
X184Y-109
X19345Y-077875
X0912Y-1591
X1218Y-1705
X1417Y-0245
X0358Y-1142
X249Y-051425
X279825Y-1013
X1566Y-0206
X019475Y-1058
X1721Y-0207
X072075Y-19375
X1684Y-097425
X2038Y-1321
X2458Y-1319
X04625Y-155325
X1858Y-0777
X2187Y-086
X2725Y-0206
X22611Y-08965
X142025Y-055175
X17985Y-036
X0762Y-0165
X01805Y-046525
X2645Y-0591
X0607Y-162825
X0391Y-1558
X276Y-0668
X2571Y-0321
X2183Y-0207
X1227Y-0821
X2374Y-0206
X1841Y-1207
X22975Y-059075
X2574Y-1899
X1336Y-0246
X2726Y-0552
X157Y-1208
X26129Y-19007
X2222Y-051525
X1372Y-0244
X172225Y-035975
X0712Y-074375
X0243Y-0196
X027Y-0657
X0414Y-1782
X038325Y-03205
X03618Y-03964
X199075Y-058975
X1568Y-1899
X2256Y-0476
X16462Y-18605
X2457Y-18224
X0874Y-1631
X1031Y-1592
X2449Y-0436
X1915Y-0205
X0652Y-1937
X2764Y-101525
X272Y-0283
X2295Y-0204
X08745Y-147525
X0722Y-1553
X2304Y-0398
X11055Y-078275
X0151Y-1544
X1839Y-09775
X04945Y-15145
X2418Y-132
X203Y-0204
X2413Y-1246
X1882Y-1016
X272175Y-16675
X1724Y-1091
X118525Y-0784
X03685Y-09085
X2033Y-051375
X230225Y-06675
X2443Y-0168
X19532Y-16666
X19545Y-15515
X037Y-1545
X1993Y-113
X210925Y-12825
X2107Y-13995
X16465Y-066875
X2029Y-0283
X2149Y-047475
X0382Y-072525
X0387Y-0274
X02915Y-0804
X122125Y-12455
X1147Y-1746
X279975Y-18225
X2604Y-0436
X0415Y-1859
X2147Y-1167
X2682Y-1823
X0835Y-1745
X034325Y-0959
X2068Y-0282
X2535Y-1899
X207325Y-105175
X2798Y-1707
X2532Y-0243
X0394Y-1141
X153375Y-124625
X0177Y-1122
X1722Y-13975
X040425Y-07815
X02615Y-02133
X02315Y-1027
X03429Y-072644
X0278Y-0792
X02316Y-17243
X1989Y-0167
X180275Y-0476
X0266Y-09485
X272Y-0669
X0295Y-047625
X2208Y-1939
X1109Y-1591
X253Y-0437
X195575Y-109375
X1689Y-193725
X1109Y-1899
X2719Y-016975
X1646Y-1899
X2377Y-032125
X1722Y-047475
X0325Y-144
X210325Y-059125
X2607Y-0742
X12655Y-028325
X0917Y-1785
X076Y-1825
X2189Y-0898
X2451Y-0204
X2451Y-0283
X099675Y-0513
X188025Y-155125
X114625Y-193925
X172Y-1746
X2567Y-035975
X2532Y-0629
X02675Y-171875
X2153Y-1206
X08743Y-086
X11821Y-11693
X2762Y-0706
X028725Y-0471
X2761Y-0359
X14875Y-035825
X156775Y-0358
X0877Y-1667
X0244Y-0655
X12235Y-19385
X04885Y-17463
X1832Y-0168
X2144Y-0437
X10312Y-14742
X2497Y-0475
X049275Y-016525
X19821Y-16304
X1988Y-0243
X2695Y-1553
X1566Y-0938
X2685Y-1747
X1526Y-0282
X164825Y-043575
X0839Y-1708
X07013Y-06679
X276Y-0513
X2569Y-074325
X17215Y-13588
X2228Y-0321
X0172Y-097
X195425Y-1938
X0271Y-046675
X06059Y-15512
X106875Y-155325
X2763Y-1744
X19525Y-04
X2497Y-0321
X2567Y-1051
X08773Y-17086
X2423Y-1937
X2611Y-055
X19551Y-17063
T2
X0129Y-0627
X0134Y-1444
X014Y-1403
X01445Y-0569
X014479Y-144616
X01448Y-066006
X014688Y-058778
X014825Y-068217
X015Y-06045
X015271Y-069847
X015632Y-087224
X015885Y-1386
X015969Y-061849
X01651Y-059831
X016525Y-064562
X01674Y-117427
X016744Y-08905
X01748Y-063855
X017575Y-055771
X017622Y-116692
X018175Y-061055
X01841Y-13205
X01855Y-06355
X0186Y-1272
X01882Y-02593
X018861Y-117935
X01895Y-1396
X019175Y-029654
X01931Y-14486
X0195Y-1292
X020116Y-130279
X0205Y-1398
X020724Y-028528
X020863Y-125627
X021127Y-056927
X021208Y-029518
X021225Y-055827
X021425Y-140738
X021634Y-06345
X022222Y-056825
X022316Y-055685
X02308Y-10633
X023345Y-056899
X023611Y-1888
X02385Y-181925
X024255Y-022723
X024402Y-107202
X024463Y-021642
X0246Y-0256
X02469Y-0303
X024755Y-10616
X024766Y-055502
X024895Y-057052
X025Y-1862
X02511Y-02409
X0253Y-1091
X025675Y-065875
X025848Y-030042
X02601Y-056683
X02632Y-155876
X02715Y-179375
X027166Y-026011
X027175Y-022525
X02729Y-024309
X02744Y-03025
X027473Y-118895
X02755Y-05172
X027966Y-02338
X02798Y-02675
X027984Y-025162
X028029Y-021828
X02825Y-179075
X028663Y-108325
X028723Y-051677
X02899Y-03017
X0303Y-028725
X031025Y-0972
X0316Y-0868
X031656Y-0535
X032425Y-03
X0329Y-0868
X03389Y-05887
X037Y-110875
X0373Y-0981
X037518Y-020275
X03765Y-01769
X037968Y-031005
X038418Y-028581
X038768Y-066604
X03925Y-070225
X039336Y-065661
X0395Y-1723
X0395Y-1763
X0395Y-1807
X0396Y-1839
X0396Y-1879
X0399Y-1925
X039905Y-069291
X041Y-194
X0411Y-1698
X041173Y-0346
X041215Y-03852
X042152Y-04265
X042179Y-016439
X042244Y-155725
X042322Y-15145
X042525Y-04373
X04276Y-101164
X042845Y-108775
X042846Y-027335
X043064Y-019182
X043118Y-031186
X043155Y-165305
X0432Y-187851
X04321Y-128352
X043225Y-103888
X043226Y-11507
X043281Y-151989
X0433Y-140356
X0433Y-1839
X0433Y-1917
X043325Y-19555
X043381Y-156831
X04339Y-161331
X0434Y-1725
X0434Y-18
X043425Y-094569
X043472Y-063193
X0435Y-0222
X0435Y-1684
X0435Y-1762
X043525Y-07575
X043542Y-03758
X043543Y-117935
X043546Y-136191
X04355Y-09926
X043675Y-1028
X043677Y-033998
X043684Y-054628
X043691Y-017675
X043693Y-159781
X0437Y-04175
X0437Y-163775
X043755Y-110769
X043775Y-0155
X043775Y-025828
X043851Y-047783
X044016Y-058634
X044075Y-043936
X044075Y-143343
X044159Y-051897
X044222Y-128863
X04432Y-09281
X04435Y-113325
X044526Y-082582
X044591Y-12714
X044598Y-121004
X044601Y-1365
X044764Y-100474
X044775Y-05578
X044775Y-086303
X044778Y-05024
X04485Y-1399
X044903Y-150787
X04501Y-115529
X045033Y-134783
X04507Y-11946
X045125Y-0634
X045155Y-021177
X045375Y-077901
X0456Y-0593
X0457Y-09388
X045818Y-108553
X0459Y-0542
X045967Y-0706
X04615Y-136081
X046419Y-151984
X04655Y-147075
X04656Y-08662
X046625Y-14256
X046749Y-078765
X046757Y-128614
X046817Y-106
X046876Y-113757
X046881Y-069988
X04702Y-109723
X047031Y-084369
X04704Y-020396
X047048Y-091048
X04705Y-09845
X04705Y-12265
X047069Y-029483
X047075Y-1402
X047075Y-026
X0471Y-1876
X047107Y-107061
X047125Y-03355
X047125Y-180075
X047175Y-1724
X047196Y-045712
X0472Y-102997
X0472Y-13395
X0472Y-1685
X0472Y-1764
X047202Y-018343
X047225Y-15705
X047225Y-164625
X047259Y-1264
X047275Y-195525
X047295Y-041678
X0473Y-09534
X0473Y-150026
X04732Y-14537
X047325Y-09985
X04735Y-014725
X04735Y-075725
X047375Y-19165
X0474Y-068295
X04741Y-11938
X047425Y-043826
X047425Y-037653
X04743Y-07138
X04743Y-18376
X04744Y-16071
X0475Y-082825
X04764Y-07293
X047653Y-130659
X04772Y-055895
X047815Y-06705
X047832Y-092507
X047853Y-021171
X04811Y-086425
X048128Y-05016
X048144Y-120865
X04815Y-136525
X048299Y-078578
X04835Y-15177
X048753Y-066476
X048764Y-054529
X048975Y-04365
X049Y-120083
X049024Y-020125
X049331Y-069612
X049336Y-063192
X04953Y-0518
X049815Y-066066
X05Y-09382
X050169Y-021038
X050329Y-101731
X050375Y-028857
X05064Y-071175
X050686Y-061707
X050782Y-036826
X05083Y-060007
X05085Y-076759
X050888Y-06397
X0509Y-087625
X0509Y-099521
X0509Y-133875
X0509Y-16465
X0509Y-187725
X0509Y-03792
X050925Y-129939
X050925Y-156825
X05095Y-1494
X05095Y-172175
X050968Y-114493
X050975Y-141575
X050975Y-1454
X050995Y-122545
X051Y-13765
X051Y-153025
X051Y-1607
X051Y-180025
X051Y-195325
X051025Y-191675
X051029Y-033775
X051035Y-02979
X051037Y-104719
X05105Y-176125
X05105Y-1838
X051057Y-091718
X051075Y-126208
X0511Y-168525
X05111Y-07987
X051125Y-018175
X051176Y-056857
X05119Y-04132
X051192Y-048319
X0512Y-049499
X05123Y-01472
X05123Y-021329
X051374Y-025807
X051384Y-075226
X0514Y-111443
X051432Y-067999
X051439Y-084482
X051481Y-064896
X051569Y-062469
X0516Y-0202
X0516Y-106001
X0518Y-11949
X051836Y-036512
X051879Y-101731
X052017Y-047592
X052823Y-036026
X05295Y-05415
X053025Y-02875
X053036Y-048006
X053251Y-050918
X05345Y-016625
X053469Y-020421
X053475Y-0826
X053625Y-035274
X054023Y-027978
X054125Y-10465
X05418Y-12464
X054217Y-032128
X054425Y-04375
X054527Y-067504
X054532Y-055964
X054687Y-090768
X05475Y-141625
X05475Y-1455
X05475Y-1724
X05475Y-180125
X05475Y-033788
X054775Y-19165
X0548Y-1955
X054806Y-068568
X054823Y-025828
X054825Y-149225
X05485Y-176175
X05485Y-1839
X05485Y-153025
X054858Y-060935
X054875Y-168475
X0549Y-118375
X0549Y-133784
X05491Y-01468
X054925Y-01835
X05495Y-115618
X05495Y-13775
X05495Y-15685
X05495Y-187675
X054975Y-1609
X055Y-075875
X05503Y-064555
X05505Y-126275
X05505Y-130025
X0551Y-1224
X0551Y-1647
X055101Y-11137
X055149Y-041642
X05517Y-02776
X055175Y-022052
X0552Y-10293
X055225Y-05975
X05525Y-10617
X055275Y-082955
X055364Y-032235
X055542Y-06708
X055666Y-054855
X0558Y-12065
X05585Y-044275
X056092Y-082218
X056175Y-096575
X0562Y-101046
X056273Y-042725
X056497Y-098125
X056634Y-067206
X056721Y-021001
X056775Y-0595
X056775Y-051919
X057065Y-081704
X057075Y-07105
X05723Y-04795
X05752Y-07859
X057785Y-085912
X057789Y-0312
X057897Y-036066
X05801Y-081143
X058228Y-050499
X058249Y-028922
X058418Y-015545
X058469Y-088582
X058553Y-046368
X058591Y-111255
X0586Y-12625
X0586Y-1339
X0586Y-052607
X0586Y-064155
X0586Y-118703
X0586Y-037784
X058608Y-102738
X058625Y-075843
X058625Y-023422
X058625Y-17235
X058638Y-033631
X058645Y-18405
X058675Y-141633
X058675Y-01855
X0587Y-168775
X0587Y-195525
X058725Y-056775
X058725Y-145675
X058755Y-053697
X058775Y-068527
X058775Y-149175
X058775Y-122425
X058791Y-137761
X0588Y-15686
X0588Y-16465
X058825Y-072175
X058825Y-1301
X058825Y-160875
X058825Y-176375
X058825Y-187825
X05884Y-1532
X05886Y-065224
X058877Y-106521
X05889Y-08388
X058893Y-025872
X058895Y-060716
X0589Y-0494
X0589Y-180025
X0589Y-19165
X058914Y-04183
X058945Y-094991
X05895Y-113961
X059052Y-04455
X059085Y-120312
X059125Y-029625
X059125Y-11505
X05925Y-079
X0595Y-057967
X059503Y-101038
X05953Y-08669
X059879Y-050371
X05995Y-09806
X060103Y-046675
X060619Y-11975
X060887Y-020134
X060977Y-0595
X061492Y-07866
X061525Y-096664
X061626Y-06336
X061675Y-077575
X061693Y-084971
X061759Y-023869
X062225Y-066475
X062389Y-025375
X062413Y-03289
X062431Y-042004
X06245Y-129795
X062453Y-033989
X06246Y-091851
X062475Y-068275
X06249Y-13795
X06249Y-14569
X06249Y-153025
X06249Y-160925
X06249Y-1682
X06249Y-17615
X06249Y-183975
X06255Y-1222
X06255Y-157
X062575Y-19175
X0626Y-056675
X0626Y-11845
X062625Y-08025
X06264Y-1262
X062658Y-062979
X062675Y-180025
X062697Y-015193
X0627Y-13385
X0627Y-149275
X0627Y-164675
X0627Y-195475
X062725Y-018425
X06275Y-187775
X06277Y-09955
X062775Y-029775
X0628Y-17225
X062825Y-141425
X062828Y-021808
X062843Y-076083
X06285Y-060675
X062914Y-106985
X062922Y-113927
X062925Y-051327
X062992Y-077929
X063062Y-042905
X063082Y-083416
X063125Y-1202
X063265Y-050215
X0633Y-026725
X063325Y-04635
X063325Y-0869
X063367Y-101335
X0634Y-0385
X063657Y-062508
X06395Y-09055
X06433Y-09634
X064425Y-01695
X06455Y-104949
X064625Y-020375
X064663Y-062952
X06476Y-051806
X064825Y-136249
X065075Y-12781
X065173Y-0441
X065175Y-071025
X065375Y-04695
X065735Y-111824
X065825Y-047954
X06585Y-128982
X06585Y-02345
X065886Y-032646
X066083Y-055894
X066213Y-06296
X066283Y-029351
X066288Y-084325
X066306Y-068502
X066312Y-037875
X066314Y-098999
X066356Y-049124
X066369Y-091829
X066375Y-076075
X066375Y-1331
X0664Y-060725
X0664Y-1724
X066424Y-051153
X066425Y-0529
X066425Y-1031
X066425Y-145425
X066425Y-160925
X066425Y-191675
X06645Y-01845
X06645Y-180175
X06645Y-187875
X06646Y-12217
X066468Y-021776
X066475Y-1532
X066475Y-168575
X066475Y-1955
X0665Y-026175
X0665Y-141675
X066525Y-0147
X066525Y-0723
X066525Y-08005
X066528Y-137651
X06657Y-11462
X066575Y-176125
X066575Y-08765
X066575Y-1494
X0666Y-118575
X0666Y-157125
X0666Y-183875
X066625Y-164625
X066663Y-095229
X066715Y-126248
X06681Y-097446
X06685Y-034587
X066873Y-044331
X06688Y-050152
X067175Y-042546
X067254Y-0827
X067275Y-10595
X067331Y-135725
X067761Y-10102
X067968Y-058875
X067975Y-06335
X067991Y-132093
X068125Y-020275
X06833Y-082251
X068359Y-111857
X068653Y-0312
X06873Y-061909
X068898Y-100851
X06894Y-13265
X06908Y-081442
X06913Y-05805
X069269Y-096577
X0695Y-13965
X069506Y-10529
X069625Y-04765
X069772Y-017258
X069937Y-129053
X070125Y-113824
X07015Y-118633
X07015Y-041103
X07015Y-087748
X070152Y-072375
X070161Y-025821
X070191Y-014789
X070196Y-125856
X0702Y-13766
X0702Y-141525
X0702Y-18
X0702Y-187725
X070219Y-079577
X070225Y-156825
X070225Y-19545
X07025Y-10315
X07025Y-15335
X07025Y-038002
X070273Y-10113
X070275Y-030125
X070275Y-17245
X070298Y-091546
X0703Y-033675
X0703Y-16455
X07032Y-1069
X070325Y-160875
X070325Y-176325
X070325Y-183975
X070325Y-0993
X07035Y-191625
X070375Y-1687
X07042Y-11077
X070421Y-021575
X070425Y-149175
X0705Y-12236
X070571Y-115622
X070608Y-145688
X07202Y-12836
X072475Y-082433
X072675Y-043405
X0729Y-097621
X072928Y-085182
X0731Y-112614
X073106Y-119648
X073283Y-127466
X07333Y-051638
X07333Y-058506
X073593Y-113597
X07378Y-062693
X07378Y-055327
X073788Y-059587
X073986Y-068935
X074Y-122375
X074Y-0761
X074Y-106705
X074015Y-103129
X074016Y-125777
X074025Y-079925
X074075Y-11055
X074075Y-115475
X0741Y-149225
X0741Y-157075
X074111Y-164786
X074125Y-018275
X074125Y-1454
X074175Y-11855
X074181Y-137596
X074198Y-045861
X0742Y-195625
X074214Y-176286
X074225Y-18395
X074225Y-187775
X07425Y-15335
X07425Y-161
X0743Y-01455
X0743Y-191625
X074325Y-030025
X074325Y-168675
X074325Y-172275
X07435Y-1803
X074375Y-116775
X0744Y-021475
X074425Y-0336
X074425Y-139975
X074437Y-049464
X074475Y-02585
X074527Y-121409
X074563Y-135541
X07459Y-13216
X074594Y-09982
X074828Y-084827
X07495Y-096625
X074998Y-036552
X07505Y-071078
X075225Y-042825
X075308Y-10185
X07549Y-120877
X075506Y-061688
X075576Y-11615
X07568Y-051502
X075923Y-136423
X076033Y-082714
X076238Y-063297
X076394Y-101676
X076398Y-042728
X076542Y-1509
X076556Y-090283
X076582Y-120744
X076816Y-050426
X076887Y-135894
X0769Y-03855
X077Y-046336
X077012Y-11605
X077203Y-04357
X077331Y-10106
X0774Y-07071
X077525Y-055775
X07758Y-051894
X07765Y-120483
X077675Y-140175
X077822Y-033011
X077839Y-044586
X077849Y-080391
X077861Y-030019
X07788Y-06805
X0779Y-110475
X0779Y-1154
X0779Y-16465
X077925Y-153175
X077925Y-091375
X077925Y-145575
X077925Y-1762
X077928Y-061278
X07794Y-047897
X07795Y-026065
X077975Y-102975
X077975Y-09555
X077975Y-141572
X077987Y-135879
X077999Y-075669
X078Y-0146
X078Y-149375
X078Y-156925
X078Y-1608
X078Y-1686
X078013Y-03427
X078025Y-0185
X078025Y-08385
X078025Y-106725
X078025Y-191575
X078049Y-037456
X078075Y-195675
X0781Y-06478
X0781Y-09903
X078106Y-087725
X07811Y-07223
X078125Y-180175
X07815Y-076759
X07815Y-138125
X07815Y-184
X0782Y-0223
X078202Y-12243
X078225Y-172225
X078229Y-079359
X07825Y-131025
X07825Y-187725
X078371Y-041617
X078552Y-032188
X07866Y-12523
X07875Y-120487
X078881Y-089915
X07924Y-06965
X07953Y-119675
X079555Y-062525
X07972Y-0784
X079938Y-089611
X07995Y-05955
X080046Y-101883
X080317Y-063318
X080383Y-031593
X080788Y-088912
X08079Y-139184
X08081Y-077964
X080938Y-05898
X081Y-02825
X081037Y-1014
X081294Y-057939
X08155Y-055116
X081625Y-0476
X0817Y-0799
X0817Y-0955
X0817Y-145696
X0817Y-114217
X0817Y-122629
X081705Y-0452
X081706Y-098735
X08171Y-06852
X081725Y-1531
X081725Y-160948
X0818Y-0221
X0818Y-13
X0818Y-1494
X0818Y-157
X081811Y-172511
X081849Y-0376
X08185Y-052495
X081875Y-072275
X08189Y-01838
X0819Y-0144
X0819Y-029975
X0819Y-0646
X0819Y-13775
X0819Y-1764
X0819Y-1801
X0819Y-183975
X0819Y-188
X081906Y-026023
X08193Y-07615
X082Y-0876
X082Y-1416
X082Y-1686
X082Y-1953
X082007Y-118395
X08201Y-08381
X08203Y-11233
X082051Y-027925
X082055Y-091755
X0821Y-1647
X0821Y-1918
X082103Y-135729
X082165Y-0339
X082185Y-041525
X082195Y-106735
X0822Y-0821
X082213Y-12011
X082229Y-054239
X082797Y-100412
X083125Y-070397
X08344Y-047885
X083555Y-044011
X08375Y-05425
X083764Y-111856
X08379Y-100886
X083848Y-051158
X084233Y-120585
X0843Y-0583
X084366Y-096841
X084395Y-12809
X08448Y-046682
X084545Y-139896
X08496Y-101959
X085284Y-059775
X085334Y-132891
X08555Y-037214
X08555Y-14931
X08555Y-18003
X08557Y-19155
X08561Y-17224
X08562Y-07218
X08562Y-16467
X08563Y-09177
X085632Y-029918
X08564Y-02619
X08566Y-06432
X08566Y-18774
X08566Y-19559
X08567Y-07603
X08568Y-14539
X08569Y-01832
X08569Y-06854
X08571Y-056026
X08571Y-15689
X085735Y-10368
X08574Y-14145
X08575Y-03373
X085763Y-130462
X085764Y-112333
X085765Y-125889
X08577Y-07997
X08577Y-15303
X08577Y-16855
X08577Y-17619
X085774Y-134624
X085777Y-114448
X08578Y-08371
X085785Y-183933
X08579Y-02229
X0858Y-0145
X08581Y-08767
X08583Y-16081
X085834Y-118095
X085853Y-11042
X085879Y-089561
X08594Y-057101
X085983Y-090677
X086195Y-136175
X086233Y-12074
X086321Y-061604
X08635Y-140425
X08636Y-098362
X08651Y-10529
X086541Y-12795
X086675Y-11295
X08687Y-05409
X087006Y-089475
X087342Y-039942
X087575Y-1395
X087675Y-058825
X087725Y-05569
X087871Y-1125
X08793Y-0632
X08795Y-13595
X08804Y-132181
X088105Y-104375
X088786Y-111889
X088881Y-081925
X089266Y-136902
X089304Y-121542
X08931Y-086696
X0894Y-03378
X0894Y-091535
X0894Y-129637
X08942Y-106978
X089421Y-083781
X089455Y-04522
X08946Y-07997
X089464Y-09938
X08948Y-04159
X08949Y-01451
X08949Y-02998
X08952Y-02619
X08952Y-14555
X08954Y-15719
X08954Y-18781
X08955Y-07222
X08956Y-16476
X089565Y-16087
X08957Y-16871
X08957Y-17633
X08959Y-09661
X0896Y-153188
X08961Y-0223
X08964Y-06835
X08965Y-06377
X089666Y-12264
X08967Y-01836
X08967Y-17243
X08967Y-19542
X08968Y-11471
X08969Y-14944
X089715Y-137906
X08972Y-1261
X08974Y-04919
X089745Y-118275
X08976Y-18355
X08976Y-19159
X08977Y-14154
X08977Y-18019
X089778Y-13067
X08978Y-101243
X08978Y-102983
X08979Y-105942
X089805Y-07599
X090075Y-036177
X090196Y-11042
X090285Y-0327
X090535Y-100381
X09075Y-0749
X0909Y-13265
X091Y-04025
X09156Y-143366
X091708Y-055656
X091751Y-032545
X091775Y-074
X091854Y-131949
X092001Y-03965
X09208Y-06249
X092478Y-03172
X092525Y-054247
X09286Y-058732
X092984Y-039156
X093055Y-055216
X093225Y-11525
X09325Y-130009
X09325Y-13775
X093275Y-180125
X093329Y-030144
X09335Y-12615
X09335Y-195525
X093375Y-045275
X093375Y-14935
X093375Y-1531
X093375Y-17625
X093375Y-19165
X0934Y-026025
X0934Y-1686
X093425Y-03375
X093425Y-0415
X093425Y-141525
X093425Y-145425
X093425Y-157075
X093425Y-164675
X093425Y-187875
X093427Y-122325
X093428Y-037457
X09345Y-014625
X09345Y-022125
X09345Y-160925
X09345Y-1837
X09346Y-07612
X09347Y-0606
X093485Y-11085
X0935Y-018275
X0935Y-049225
X0935Y-06825
X0935Y-133875
X093517Y-106924
X09355Y-08301
X093575Y-172375
X0936Y-056746
X0936Y-11847
X093625Y-062925
X093654Y-052774
X093658Y-072042
X093785Y-099359
X09382Y-05939
X09383Y-08013
X093904Y-1098
X09395Y-127975
X094075Y-10295
X094077Y-035837
X094204Y-0288
X09446Y-1438
X0946Y-12081
X095Y-09055
X095157Y-035625
X095225Y-08645
X095275Y-06305
X095321Y-028706
X0955Y-0968
X096029Y-027864
X096104Y-055627
X096211Y-035304
X0964Y-12078
X096666Y-030913
X096887Y-063565
X097075Y-098
X09709Y-05939
X0971Y-11845
X097125Y-083725
X097125Y-01835
X09713Y-045476
X09715Y-0376
X097156Y-103075
X097175Y-1222
X097175Y-176125
X097175Y-17995
X097175Y-1878
X097175Y-19175
X0972Y-195375
X097225Y-076225
X097225Y-0993
X097225Y-149225
X097225Y-1724
X097242Y-053037
X09725Y-18388
X09725Y-168525
X097275Y-01455
X097275Y-02205
X097275Y-0801
X097275Y-095425
X097275Y-156925
X097275Y-164575
X0973Y-0491
X0973Y-153125
X097325Y-041575
X097325Y-07235
X097325Y-1606
X09733Y-14551
X09735Y-026725
X097384Y-091859
X09739Y-06843
X0974Y-1379
X097417Y-087355
X097441Y-0337
X0975Y-0254
X0975Y-1147
X0976Y-081987
X097654Y-055745
X0977Y-12735
X09783Y-065636
X097875Y-032595
X097975Y-1323
X0982Y-05896
X09855Y-140075
X098748Y-031927
X09915Y-1048
X099195Y-128876
X0993Y-055682
X099525Y-0749
X099811Y-031515
X099975Y-101289
X100029Y-1351
X10032Y-024148
X100425Y-0979
X10058Y-05803
X1006Y-054496
X100921Y-07375
X100928Y-126716
X10095Y-138243
X10095Y-01445
X10095Y-118809
X10095Y-091568
X10095Y-107122
X100961Y-03115
X100975Y-122336
X101Y-018375
X101Y-022
X101001Y-114675
X101014Y-025001
X101025Y-04525
X101025Y-141525
X10105Y-129953
X10105Y-1647
X101075Y-153125
X101075Y-157025
X101075Y-1723
X101075Y-180125
X1011Y-145475
X1011Y-1609
X1011Y-187625
X1011Y-191625
X101125Y-195425
X10115Y-0339
X10115Y-14925
X101175Y-0415
X101175Y-133775
X101175Y-168575
X101175Y-183975
X1012Y-0991
X1012Y-10295
X101225Y-02945
X101225Y-1762
X10125Y-0376
X10125Y-095125
X101304Y-125682
X101318Y-049047
X101329Y-11085
X101375Y-052449
X101413Y-023822
X101667Y-11734
X101975Y-0748
X101975Y-10595
X102024Y-067024
X10208Y-08243
X10241Y-13245
X102425Y-08635
X102566Y-136125
X102786Y-117161
X10284Y-07096
X102875Y-059005
X102933Y-0625
X10326Y-06584
X103324Y-05554
X1034Y-024525
X103608Y-135741
X10388Y-116677
X103982Y-061886
X10405Y-070885
X104246Y-063444
X104654Y-135402
X1048Y-102275
X1048Y-110675
X1048Y-18005
X104825Y-106875
X10485Y-05695
X10485Y-087475
X10485Y-12579
X10485Y-1645
X104875Y-03775
X104875Y-1878
X10488Y-12111
X1049Y-15685
X1049Y-1954
X104925Y-029875
X104925Y-1491
X104925Y-15305
X10495Y-045425
X10495Y-083675
X10495Y-141525
X10495Y-1916
X104975Y-16095
X104975Y-168575
X105Y-01825
X105Y-137725
X105Y-172375
X105Y-022364
X105Y-076175
X10501Y-07958
X10505Y-014575
X10505Y-033875
X10505Y-049275
X10505Y-053025
X10505Y-129875
X10505Y-1763
X105051Y-060498
X105075Y-041575
X1051Y-091635
X1051Y-183925
X10512Y-06481
X105125Y-1453
X10514Y-080672
X1052Y-1181
X105213Y-11392
X10531Y-132441
X105315Y-073083
X1054Y-06724
X10545Y-026225
X10548Y-1153
X10555Y-10131
X1056Y-06955
X1056Y-117
X106005Y-059209
X106105Y-128025
X106113Y-098051
X106266Y-066486
X106383Y-1322
X107172Y-128293
X107363Y-13168
X107406Y-0629
X107464Y-096646
X107506Y-1134
X10755Y-08985
X107968Y-061955
X10804Y-05554
X108075Y-101862
X108124Y-100763
X10836Y-131141
X108606Y-113395
X108646Y-052531
X10865Y-045482
X108675Y-01855
X108675Y-076025
X108679Y-06444
X108692Y-037667
X1087Y-026
X1087Y-137725
X1087Y-15695
X10872Y-0408
X108775Y-087675
X108775Y-106975
X108775Y-1492
X108775Y-172275
X108775Y-18005
X1088Y-072175
X1088Y-083775
X1088Y-09155
X1088Y-117
X1088Y-15315
X108825Y-022175
X108825Y-1123
X108825Y-1415
X108825Y-164625
X108825Y-176275
X108825Y-187675
X108825Y-19555
X10883Y-11843
X10885Y-029975
X10885Y-1106
X10885Y-191525
X10885Y-1685
X108851Y-04198
X108853Y-099126
X108875Y-1839
X108893Y-160922
X108925Y-033775
X108925Y-079975
X108925Y-133975
X108925Y-145525
X108975Y-0146
X108975Y-103378
X109025Y-049202
X109025Y-0955
X109084Y-126284
X109275Y-086
X109446Y-039854
X109627Y-065735
X109875Y-128525
X109943Y-062764
X110775Y-12435
X110889Y-06722
X110975Y-120925
X111347Y-039174
X111555Y-03595
X111722Y-120118
X11225Y-055
X112275Y-086758
X112493Y-060179
X1125Y-083525
X1125Y-14145
X11255Y-0184
X112554Y-035336
X11256Y-07972
X112575Y-091475
X1126Y-0531
X1126Y-134
X1126Y-149275
X1126Y-1685
X1126Y-1878
X1126Y-195375
X112603Y-033636
X112625Y-03
X112648Y-045526
X11265Y-01465
X11265Y-0259
X11265Y-156875
X11265Y-1608
X11265Y-176375
X11265Y-180025
X11265Y-122367
X11266Y-145375
X112675Y-118475
X112675Y-13765
X112675Y-172325
X1127Y-164675
X1127Y-191675
X112717Y-037535
X112725Y-099526
X112725Y-114522
X11274Y-1264
X11275Y-071125
X11275Y-1533
X112775Y-0222
X112809Y-112649
X11281Y-076515
X11285Y-1838
X11291Y-07542
X112925Y-049157
X112995Y-05688
X113183Y-081425
X113223Y-106586
X113275Y-041803
X113292Y-059423
X1137Y-128775
X114125Y-0587
X11414Y-06334
X114494Y-113251
X114625Y-09649
X11472Y-051475
X115089Y-104904
X115235Y-101686
X115325Y-086275
X115353Y-067181
X115363Y-061972
X115547Y-098017
X11635Y-045378
X1164Y-0723
X1164Y-091575
X1164Y-11855
X1164Y-18795
X116425Y-080025
X116425Y-1493
X11645Y-191575
X11645Y-16085
X116475Y-1146
X116475Y-13
X116475Y-13775
X116475Y-145325
X116475Y-15325
X116475Y-1647
X1165Y-176225
X1165Y-03385
X1165Y-041525
X1165Y-122375
X1165Y-168475
X116502Y-029998
X116525Y-018375
X116525Y-12615
X116525Y-1723
X116525Y-19555
X11655Y-076
X11655Y-087725
X11655Y-0954
X11655Y-1838
X11657Y-06905
X116586Y-133914
X1166Y-14155
X1166Y-180025
X116602Y-106832
X11662Y-111199
X116625Y-0223
X116625Y-026025
X11665Y-0991
X116666Y-060563
X116675Y-037675
X116675Y-156975
X11672Y-0149
X116725Y-083725
X11675Y-103
X116788Y-066165
X11684Y-07083
X11695Y-06745
X117063Y-0621
X117813Y-066563
X118609Y-047828
X119308Y-043299
X119519Y-040063
X119631Y-058263
X1202Y-11069
X1202Y-1646
X1202Y-17996
X1202Y-19539
X12021Y-12609
X12022Y-18769
X120225Y-15313
X12023Y-0953
X12025Y-18393
X120262Y-029712
X12027Y-08367
X12028Y-14914
X12028Y-15715
X12029Y-13396
X1203Y-1223
X1203Y-12988
X1203Y-16067
X1203Y-17241
X12031Y-02599
X120319Y-049115
X12032Y-14162
X12033Y-01834
X12033Y-08758
X12034Y-02213
X12034Y-05299
X12035Y-07219
X12035Y-14558
X120355Y-09938
X12037Y-10689
X120375Y-13777
X12038Y-10294
X1204Y-01447
X1204Y-07988
X1204Y-16855
X1204Y-17641
X120413Y-114653
X12042Y-19159
X12047Y-034
X12047Y-09142
X1205Y-11835
X120504Y-046855
X120541Y-037366
X120575Y-076025
X120587Y-040325
X120685Y-065177
X120696Y-062456
X12071Y-0565
X12077Y-06741
X120772Y-15093
X120871Y-069375
X1209Y-044
X121122Y-162598
X12122Y-039425
X121303Y-058888
X121414Y-097688
X121597Y-047235
X121853Y-06722
X1221Y-059675
X122671Y-043672
X122875Y-039877
X122879Y-046875
X12297Y-066094
X123012Y-05832
X123125Y-062
X123366Y-036457
X12377Y-043729
X124039Y-063966
X12404Y-15994
X12405Y-10707
X12407Y-18006
X1241Y-139975
X12411Y-16468
X12413Y-153116
X12413Y-1724
X12414Y-091437
X12414Y-11478
X12414Y-14563
X12415Y-14159
X12416Y-02222
X12417Y-04528
X12417Y-07987
X12418Y-1684
X12418Y-17627
X124188Y-16103
X12419Y-01849
X1242Y-02982
X1242Y-12226
X12421Y-07229
X12421Y-11064
X124225Y-12994
X12423Y-11856
X12423Y-13787
X12423Y-18393
X12423Y-18777
X12424Y-02597
X12425Y-05305
X12425Y-05665
X12425Y-19152
X124269Y-049199
X12428Y-01446
X12428Y-03376
X12429Y-1263
X12429Y-13393
X124295Y-150751
X124337Y-084499
X12435Y-07612
X12435Y-08765
X12436Y-06822
X12437Y-15709
X12438Y-0834
X1244Y-060625
X1244Y-14958
X1244Y-1957
X124425Y-059525
X124457Y-036601
X124545Y-120388
X124733Y-043196
X125012Y-063445
X125162Y-035753
X1255Y-06694
X125599Y-147332
X125675Y-0595
X125748Y-163192
X12585Y-10167
X125945Y-040002
X126289Y-036145
X12632Y-09696
X126325Y-15545
X12657Y-08985
X12668Y-06635
X12691Y-08642
X127025Y-063229
X127819Y-153814
X127825Y-036666
X12786Y-07151
X127895Y-067916
X127896Y-14878
X1279Y-076267
X1279Y-16085
X1279Y-14549
X127919Y-034189
X12792Y-16861
X12793Y-110877
X12793Y-04159
X127975Y-19169
X12798Y-08001
X127984Y-04537
X12799Y-05688
X128Y-11473
X128Y-1301
X128Y-19531
X12801Y-01453
X12801Y-01827
X128013Y-106985
X12802Y-12242
X12803Y-11846
X12804Y-18405
X12805Y-17624
X12805Y-04923
X12807Y-09536
X12807Y-10303
X12807Y-1877
X12808Y-1415
X12808Y-1802
X12809Y-05304
X1281Y-06457
X12811Y-13781
X128125Y-02995
X12815Y-09936
X12815Y-16455
X12816Y-02616
X12816Y-13401
X12817Y-02225
X12819Y-0838
X12823Y-08771
X12823Y-12611
X128282Y-03315
X128314Y-09151
X128488Y-059459
X1285Y-062525
X128565Y-040475
X128926Y-1509
X129123Y-039527
X129604Y-155825
X1302Y-17082
X130541Y-0392
X13085Y-03203
X131316Y-059038
X131435Y-038559
X1315Y-163325
X131519Y-030802
X131575Y-0708
X13175Y-0839
X13175Y-183956
X131809Y-060674
X131825Y-0183
X131825Y-1453
X131825Y-195375
X13185Y-1478
X13185Y-16075
X13185Y-180225
X131875Y-076111
X131875Y-022375
X131875Y-12225
X1319Y-0147
X1319Y-0684
X1319Y-091225
X1319Y-129925
X131925Y-0857
X131925Y-18765
X13195Y-026075
X13195Y-0993
X13195Y-191675
X13195Y-072327
X131955Y-11605
X131975Y-1186
X131975Y-126225
X131975Y-14155
X131975Y-172475
X131975Y-176175
X131975Y-04492
X131984Y-031831
X132Y-133825
X132Y-137675
X132Y-168525
X132025Y-029
X132025Y-037
X132025Y-106825
X13205Y-09535
X132115Y-08736
X132158Y-092294
X132175Y-041541
X1322Y-05
X1322Y-0531
X132244Y-064598
X132741Y-056609
X132747Y-113399
X133215Y-074117
X133225Y-15911
X13342Y-12091
X133425Y-0782
X133475Y-155625
X133903Y-112096
X134025Y-0323
X1342Y-09655
X13442Y-06276
X134442Y-101634
X13446Y-12049
X134775Y-162925
X13489Y-10529
X135045Y-04801
X135178Y-050188
X1356Y-11455
X135625Y-175985
X135661Y-04138
X13567Y-12616
X135677Y-060873
X13569Y-05685
X1357Y-03385
X1357Y-1877
X135719Y-076081
X135723Y-07836
X135725Y-018475
X135725Y-072225
X13575Y-0222
X13575Y-052888
X13575Y-087725
X13575Y-091525
X13575Y-095375
X13575Y-150025
X135756Y-068264
X135768Y-079459
X135769Y-139524
X135775Y-029975
X135775Y-129975
X135775Y-168525
X135775Y-17235
X1358Y-026175
X1358Y-122225
X1358Y-183975
X135804Y-045255
X135825Y-11835
X135825Y-180125
X13585Y-014625
X13585Y-06475
X13585Y-137625
X135864Y-16451
X135875Y-0375
X135875Y-13385
X135875Y-191625
X135879Y-1605
X1359Y-08375
X1359Y-0992
X1359Y-1954
X135906Y-14166
X13595Y-1035
X135966Y-047405
X13599Y-14497
X136007Y-106875
X136023Y-162656
X1361Y-081275
X136136Y-177855
X136866Y-1396
X137326Y-11605
X13735Y-163075
X137675Y-112075
X137828Y-101855
X1381Y-04365
X1383Y-046775
X138425Y-158422
X138586Y-042663
X138835Y-16301
X139375Y-096275
X139475Y-037565
X13949Y-05695
X139525Y-170775
X139525Y-110725
X139525Y-1685
X139528Y-101628
X13955Y-086125
X13955Y-14539
X13955Y-18005
X139575Y-014625
X139575Y-030175
X139575Y-133825
X139575Y-10702
X1396Y-0261
X1396Y-09909
X1396Y-103
X1396Y-141775
X139606Y-164581
X139625Y-0183
X139625Y-09165
X139625Y-126175
X139625Y-129925
X139625Y-18405
X13964Y-05289
X13965Y-0337
X13965Y-122325
X13965Y-19565
X139655Y-04132
X139675Y-022275
X139675Y-118425
X139675Y-1915
X1397Y-176275
X13973Y-159611
X13975Y-187825
X13975Y-114425
X13977Y-06071
X139792Y-080102
X139793Y-079002
X1398Y-161161
X1398Y-13755
X1398Y-172525
X13985Y-156975
X13991Y-06837
X139922Y-045147
X14003Y-075378
X140036Y-04957
X14043Y-08256
X14075Y-063213
X14075Y-07095
X140857Y-077824
X141208Y-120788
X141434Y-15875
X141604Y-074102
X14241Y-140353
X142668Y-10172
X142793Y-073551
X1431Y-08595
X143325Y-114775
X143339Y-156954
X143375Y-1185
X143375Y-130025
X143375Y-17995
X143393Y-12604
X1434Y-103075
X1434Y-01475
X143425Y-110975
X143425Y-17245
X14345Y-022075
X14345Y-029675
X14345Y-041425
X14345Y-060625
X14345Y-133825
X14345Y-168475
X14345Y-18775
X143475Y-01845
X143475Y-026125
X143475Y-142025
X143475Y-160825
X143475Y-183925
X1435Y-0454
X1435Y-176175
X143525Y-049225
X143525Y-052888
X143525Y-056775
X143525Y-0646
X143525Y-12245
X143525Y-164375
X143525Y-191475
X14355Y-037425
X14356Y-137593
X143575Y-033725
X143575Y-0683
X1436Y-07195
X143625Y-195175
X143675Y-08285
X143678Y-165547
X1437Y-1071
X143725Y-1394
X144325Y-073575
X14445Y-089875
X144563Y-150387
X144668Y-07875
X145023Y-147722
X145175Y-07705
X145983Y-155255
X146053Y-074808
X146101Y-078615
X14625Y-10205
X146288Y-082487
X147051Y-099816
X14715Y-145053
X14715Y-160647
X147167Y-079798
X147169Y-168444
X1472Y-0145
X1472Y-1147
X147204Y-1492
X147205Y-0878
X147225Y-03375
X14725Y-0221
X14725Y-037625
X14725Y-13007
X14725Y-195525
X147275Y-018575
X147275Y-029925
X147275Y-045325
X147275Y-133925
X147275Y-183925
X147289Y-110783
X147295Y-107269
X147299Y-05305
X1473Y-1572
X147324Y-124906
X147325Y-118325
X14734Y-164752
X147349Y-172307
X14735Y-0686
X14735Y-1377
X14735Y-187725
X147375Y-098538
X1474Y-0492
X147414Y-19156
X14742Y-12697
X147425Y-1527
X147425Y-04145
X147425Y-18005
X14745Y-176225
X14746Y-12203
X1475Y-026
X1475Y-14175
X147514Y-073486
X147533Y-155425
X147581Y-095856
X14759Y-07532
X1478Y-102225
X147925Y-081529
X147939Y-090275
X148404Y-059225
X148551Y-077964
X149075Y-086175
X1494Y-093925
X149594Y-070623
X149701Y-101174
X1498Y-12048
X149925Y-170875
X149939Y-090275
X150075Y-055265
X150356Y-097986
X150454Y-147033
X150475Y-128166
X150499Y-062957
X1505Y-144296
X150575Y-070125
X150783Y-155306
X150798Y-152147
X151Y-156449
X151Y-138084
X151004Y-169369
X151025Y-068393
X15103Y-12574
X15105Y-1724
X151057Y-160925
X151073Y-049335
X151075Y-0452
X151075Y-1763
X151089Y-037511
X1511Y-03375
X1511Y-133975
X151125Y-118425
X15114Y-02621
X15115Y-0952
X15115Y-191625
X151152Y-060252
X151154Y-052979
X151175Y-0567
X1512Y-030075
X1512Y-122325
X151209Y-083863
X151225Y-0416
X151225Y-09145
X15125Y-183975
X151275Y-01455
X151275Y-01855
X151275Y-13005
X151284Y-059129
X151291Y-072323
X1513Y-02215
X1513Y-106301
X1513Y-195525
X151315Y-0993
X15132Y-180075
X15132Y-187787
X151325Y-1146
X151326Y-149762
X151329Y-084957
X15135Y-164751
X151358Y-0649
X151375Y-087575
X151427Y-162927
X151508Y-048325
X15158Y-080209
X151819Y-13666
X151884Y-074865
X152Y-170952
X15205Y-127064
X15227Y-0787
X152348Y-1519
X152629Y-112125
X1527Y-140238
X152779Y-162475
X152868Y-136295
X152911Y-07447
X152934Y-148172
X15295Y-144225
X152976Y-170444
X153Y-04785
X153152Y-059549
X153224Y-151198
X153235Y-155388
X1533Y-10529
X153338Y-078258
X153639Y-16661
X1537Y-058575
X153775Y-10165
X153964Y-136196
X154047Y-170193
X154175Y-0476
X15419Y-073506
X154244Y-077635
X1547Y-081425
X154775Y-058152
X15481Y-133225
X15484Y-134366
X15485Y-10785
X1549Y-060725
X154902Y-068573
X15492Y-04567
X154925Y-0261
X15495Y-130375
X15495Y-033725
X15495Y-083675
X15495Y-091575
X15495Y-12235
X154978Y-168132
X154986Y-056437
X155Y-041525
X155Y-184
X155002Y-037648
X15501Y-11439
X155021Y-05308
X155025Y-02235
X155025Y-0954
X155025Y-160575
X15505Y-018375
X15505Y-064525
X15505Y-19175
X15505Y-19555
X155064Y-029961
X155075Y-179975
X155075Y-172425
X1551Y-01465
X155125Y-0992
X155125Y-1879
X15515Y-118475
X15515Y-12605
X155154Y-110721
X155175Y-176325
X155189Y-166884
X1552Y-079729
X155225Y-13765
X15534Y-077729
X155408Y-070273
X155443Y-169129
X155451Y-075187
X155483Y-157375
X1556Y-140505
X1558Y-04415
X1558Y-0474
X1558Y-0552
X155805Y-132715
X155825Y-162675
X155834Y-14805
X15585Y-101925
X15585Y-144275
X156124Y-166305
X15616Y-15159
X1566Y-085867
X156874Y-131276
X156893Y-05498
X156996Y-043945
X157165Y-165885
X157275Y-1123
X157441Y-132305
X1577Y-07045
X15785Y-15575
X15785Y-158888
X157911Y-074761
X157921Y-163387
X157967Y-054742
X158095Y-043897
X15855Y-106085
X1587Y-04525
X158739Y-099111
X158743Y-18405
X15875Y-137675
X15875Y-060775
X15875Y-083875
X15875Y-1686
X1588Y-114425
X1588Y-130075
X1588Y-09545
X158812Y-053163
X158825Y-01835
X158825Y-091525
X158825Y-07815
X15885Y-026025
X15885Y-19175
X158875Y-1183
X158875Y-195325
X158883Y-180129
X158894Y-176325
X1589Y-014575
X1589Y-022125
X1589Y-029825
X1589Y-037115
X1589Y-04915
X1589Y-068475
X1589Y-1028
X1589Y-1222
X158919Y-160062
X158925Y-172325
X15895Y-06445
X15895Y-087525
X15895Y-1106
X15896Y-041968
X158965Y-07595
X159011Y-056864
X159025Y-03365
X159025Y-187675
X159058Y-164711
X1591Y-126025
X159125Y-0821
X159197Y-040894
X1592Y-14795
X15935Y-1443
X15945Y-14049
X159525Y-051727
X15953Y-151823
X159625Y-132475
X159675Y-0708
X159708Y-078806
X15985Y-155455
X160351Y-051
X160615Y-077951
X161025Y-074694
X1614Y-0398
X161425Y-078696
X161449Y-05089
X161682Y-162364
X162227Y-050112
X162374Y-085624
X162381Y-040368
X16255Y-083841
X162575Y-0146
X162575Y-12995
X162576Y-106491
X162582Y-164835
X1626Y-137778
X1626Y-029775
X1626Y-12215
X162625Y-06095
X162625Y-14535
X162625Y-195575
X16265Y-079925
X16265Y-091425
X16265Y-17615
X16265Y-183875
X162675Y-018475
X162675Y-0337
X162675Y-0761
X162675Y-18005
X162682Y-157286
X1627Y-045225
X1627Y-0954
X1627Y-168525
X1627Y-18765
X162725Y-15303
X16273Y-14832
X16275Y-057
X162775Y-099025
X162775Y-172175
X162775Y-191675
X1628Y-068492
X1628Y-07225
X162825Y-02225
X162825Y-025975
X162825Y-10205
X162825Y-1146
X16285Y-0376
X16285Y-042368
X162875Y-118325
X16288Y-12629
X1629Y-0484
X1629Y-0529
X1629Y-064637
X163175Y-039606
X16328Y-086248
X163375Y-132425
X163475Y-10975
X163525Y-140556
X1636Y-107905
X163632Y-15505
X163795Y-148045
X164467Y-139956
X16455Y-119875
X1646Y-11585
X16595Y-082763
X165975Y-07495
X16621Y-098341
X16625Y-078821
X166296Y-090747
X1664Y-033775
X1664Y-0493
X1664Y-0646
X166425Y-053225
X16645Y-16475
X166461Y-17625
X166475Y-014575
X166475Y-018475
X1665Y-16845
X16652Y-09532
X166525Y-17225
X166525Y-056925
X166525Y-06855
X166525Y-1109
X166525Y-114475
X166525Y-118475
X166525Y-1223
X166525Y-133825
X16655Y-025925
X16655Y-145525
X16655Y-18
X16655Y-18765
X16655Y-195525
X16656Y-07129
X166575Y-191625
X16659Y-10213
X166595Y-1415
X1666Y-037575
X1666Y-130025
X166601Y-151
X166625Y-087325
X166625Y-126075
X166625Y-13755
X166625Y-183875
X166625Y-04135
X16664Y-1069
X166675Y-0453
X166675Y-02985
X166675Y-0608
X1667Y-0222
X166936Y-1493
X16832Y-078068
X168525Y-16205
X168915Y-0746
X16895Y-081607
X16933Y-09354
X16972Y-07102
X16987Y-078425
X169925Y-151775
X1702Y-061631
X1702Y-090687
X170265Y-0684
X170275Y-049275
X170275Y-16095
X170325Y-026025
X170325Y-0413
X170325Y-102875
X17035Y-045325
X170363Y-06001
X170375Y-05295
X170375Y-176225
X170375Y-1798
X1704Y-1453
X1704Y-1493
X170408Y-088135
X170425Y-0185
X170425Y-029975
X170425Y-0992
X170425Y-126075
X170425Y-18775
X170425Y-19555
X170445Y-056895
X17045Y-06455
X17045Y-110825
X17045Y-1724
X170475Y-1377
X170475Y-022275
X170475Y-11845
X170475Y-122125
X170475Y-164725
X1705Y-014475
X1705Y-033625
X1705Y-037575
X1705Y-130025
X1705Y-133875
X1705Y-141725
X1705Y-18385
X17051Y-08704
X170525Y-114475
X170525Y-191725
X170575Y-106825
X170575Y-168575
X17063Y-15708
X171Y-0591
X171225Y-151575
X171358Y-094085
X171378Y-089623
X171439Y-08572
X172504Y-189984
X172536Y-085646
X172713Y-058578
X173071Y-171142
X173098Y-055134
X1735Y-07425
X173903Y-189682
X173998Y-136394
X174049Y-170637
X1741Y-014675
X1741Y-018325
X1741Y-191625
X174112Y-054707
X174113Y-082219
X174125Y-0453
X174125Y-160875
X174135Y-06845
X174175Y-195475
X1742Y-033675
X1742Y-04905
X1742Y-114475
X1742Y-176175
X1742Y-18395
X174205Y-060325
X174215Y-076069
X174225Y-095475
X174225Y-153075
X17425Y-02605
X17425Y-05295
X17425Y-103075
X17425Y-12243
X17425Y-1684
X174275Y-1071
X174275Y-12995
X174306Y-180063
X174325Y-029825
X174325Y-037875
X174325Y-118325
X174325Y-164725
X17434Y-09161
X17435Y-110725
X174375Y-0222
X174375Y-1338
X1744Y-07225
X174425Y-079925
X174428Y-145275
X174434Y-14773
X17445Y-12598
X174475Y-0413
X174475Y-098175
X174525Y-187009
X1746Y-1571
X174899Y-056731
X17491Y-06361
X175125Y-17041
X175165Y-081768
X17535Y-0785
X175399Y-089459
X175656Y-070802
X175675Y-13945
X1759Y-08635
X176025Y-12355
X17623Y-01328
X176325Y-127675
X1766Y-15529
X17675Y-1706
X176814Y-1673
X176825Y-148023
X176863Y-186289
X176967Y-0826
X176977Y-09005
X177353Y-132654
X1776Y-08614
X17785Y-140675
X177944Y-1858
X17795Y-0261
X17795Y-103125
X17795Y-110725
X17795Y-114625
X17795Y-118375
X17795Y-126175
X17795Y-149425
X17795Y-133579
X177975Y-02205
X177975Y-0145
X177975Y-01825
X177975Y-1954
X178Y-191575
X178Y-106975
X178025Y-0337
X178025Y-056875
X17804Y-08226
X17805Y-037425
X17805Y-0609
X178075Y-176225
X178088Y-187875
X1781Y-041425
X1781Y-0494
X1781Y-130025
X178125Y-02985
X178125Y-0531
X178125Y-09915
X178125Y-160875
X17815Y-157125
X17815Y-18005
X178175Y-045375
X178175Y-122225
X178175Y-153225
X17818Y-09525
X17824Y-08375
X17826Y-145375
X17826Y-16834
X1783Y-16455
X178325Y-1376
X178325Y-183306
X178364Y-167
X178509Y-184856
X1788Y-134964
X17895Y-075075
X1792Y-08566
X179464Y-166912
X179668Y-1851
X17997Y-0928
X179973Y-070749
X180125Y-066565
X1804Y-17115
X18056Y-16723
X180575Y-063
X18104Y-071017
X181508Y-162575
X181564Y-069441
X181743Y-081592
X181761Y-129378
X181797Y-060238
X1818Y-01455
X1818Y-1419
X18182Y-1526
X181825Y-030061
X181825Y-102975
X181825Y-1185
X18185Y-01825
X18185Y-0377
X18185Y-195575
X181864Y-137339
X181868Y-05914
X181875Y-045425
X1819Y-0531
X1819Y-172275
X181925Y-033775
X181928Y-089489
X181931Y-12598
X18195Y-02605
X18195Y-106725
X18195Y-110775
X18195Y-145475
X18195Y-17625
X18195Y-187875
X181952Y-130461
X181975Y-184025
X182Y-0224
X182Y-099375
X182025Y-191675
X18205Y-1147
X18205Y-18005
X182075Y-0493
X182075Y-0569
X182075Y-072225
X18209Y-13352
X1821Y-168423
X1821Y-07685
X182125Y-079891
X18215Y-12215
X182175Y-041575
X1822Y-0954
X182224Y-134624
X182252Y-085445
X182428Y-070137
X182999Y-059131
X183025Y-067041
X18305Y-08257
X18322Y-16203
X18329Y-08665
X18339Y-14801
X18353Y-15474
X183715Y-090286
X18375Y-06315
X184027Y-059523
X184394Y-086393
X184455Y-0817
X18446Y-16345
X184657Y-088993
X184715Y-0672
X184938Y-066113
X185174Y-055795
X185346Y-156
X18559Y-07925
X18565Y-10313
X18565Y-13377
X18565Y-14916
X185654Y-141901
X18569Y-10681
X18569Y-17256
X18573Y-01832
X18573Y-16837
X18573Y-1762
X18575Y-03375
X18575Y-04132
X18575Y-18401
X185754Y-089075
X18577Y-026
X18577Y-04519
X18577Y-04928
X18577Y-12611
X18579Y-02986
X18579Y-09914
X18579Y-1376
X1858Y-0954
X185805Y-12221
X18581Y-03759
X18581Y-05295
X18581Y-07606
X18581Y-08719
X18581Y-18011
X18581Y-18784
X18582Y-12987
X18582Y-14551
X18583Y-06833
X18583Y-19548
X18584Y-11454
X18584Y-16082
X18587Y-11064
X18587Y-11834
X18591Y-01461
X18595Y-07216
X18596Y-16465
X18596Y-19175
X18598Y-02195
X18602Y-1531
X186025Y-066279
X186118Y-083026
X18627Y-15728
X186274Y-055805
X186595Y-1406
X186832Y-054825
X1869Y-06277
X18693Y-09268
X18715Y-05903
X187517Y-084722
X188025Y-0903
X188274Y-05565
X1888Y-08936
X188995Y-146889
X189196Y-079
X1895Y-09924
X1895Y-137711
X189505Y-054421
X18956Y-01838
X18956Y-11477
X18957Y-08378
X18958Y-1185
X18958Y-13391
X18961Y-14929
X18961Y-17238
X18962Y-06483
X18962Y-09522
X18962Y-16086
X18963Y-07595
X18964Y-08563
X18964Y-10707
X18964Y-14141
X18965Y-03765
X18965Y-07226
X18965Y-15312
X189665Y-02987
X18967Y-18386
X18968Y-0451
X18969Y-12606
X18969Y-16469
X18969Y-17999
X1897Y-03358
X1897Y-06836
X18972Y-04134
X18972Y-11059
X18972Y-1954
X189727Y-122403
X18974Y-05681
X18974Y-12999
X18975Y-04905
X18975Y-10307
X18975Y-18784
X18976Y-16838
X18976Y-19162
X18977Y-02597
X189775Y-06075
X18978Y-176325
X18979Y-02217
X189798Y-052302
X1898Y-15711
X18985Y-063724
X18987Y-01449
X189925Y-09029
X189975Y-080925
X190817Y-0629
X19098Y-08586
X191872Y-062438
X191978Y-05135
X19205Y-0816
X19241Y-147696
X192828Y-061882
X192881Y-050721
X192922Y-051978
X19314Y-13918
X193278Y-060003
X19335Y-08775
X19336Y-17993
X19339Y-0185
X193396Y-075756
X19341Y-09139
X193425Y-06846
X19343Y-0414
X19343Y-12235
X19343Y-15694
X19343Y-16865
X193465Y-04541
X19347Y-10306
X19347Y-12618
X19348Y-16472
X19349Y-17228
X1935Y-026
X19351Y-14935
X19352Y-0535
X19354Y-11469
X19354Y-16092
X193542Y-145973
X19355Y-0144
X19356Y-09529
X19357Y-15318
X19357Y-17628
X19358Y-02224
X19358Y-02991
X19358Y-05669
X19358Y-11842
X19358Y-19547
X1936Y-18774
X19361Y-03765
X19361Y-04901
X19362Y-19153
X193625Y-06452
X193645Y-10699
X19365Y-07231
X19365Y-09925
X19365Y-13006
X19365Y-18412
X19368Y-11073
X1937Y-13363
X19372Y-03361
X195265Y-13628
X1954Y-082584
X196975Y-13652
X197087Y-13497
X1972Y-079894
X197205Y-10707
X19723Y-07231
X19723Y-13793
X19723Y-16869
X197251Y-098891
X19728Y-14938
X19728Y-16468
X19729Y-03004
X1973Y-03377
X1973Y-19535
X19731Y-05321
X19731Y-12998
X19732Y-18005
X19733Y-02223
X19734Y-04137
X19734Y-04921
X19734Y-09541
X19734Y-11072
X19735Y-176325
X197352Y-091542
X19736Y-1571
X19738Y-0184
X19738Y-08768
X19738Y-11849
X19738Y-12607
X19739Y-01449
X19739Y-03772
X19739Y-15318
X1974Y-17237
X19741Y-06846
X19741Y-07553
X197415Y-11463
X19742Y-1031
X19743Y-06058
X19743Y-14557
X19743Y-16098
X19744Y-06467
X19745Y-026
X19745Y-1838
X19745Y-19182
X19746Y-18771
X19747Y-04549
X19747Y-05674
X19747Y-141201
X197484Y-142301
X19749Y-1224
X197775Y-0848
X197781Y-097927
X198856Y-101652
X19892Y-0935
X19895Y-08155
X199521Y-174672
X199536Y-163204
X19955Y-089925
X1998Y-13645
X199899Y-182589
X200254Y-100591
X200673Y-161881
X200722Y-075136
X200725Y-084763
X200725Y-090537
X200922Y-181152
X200937Y-0975
X200966Y-140831
X20105Y-10318
X20105Y-11071
X20105Y-11833
X201053Y-183962
X20107Y-15606
X20114Y-1262
X20114Y-19536
X201141Y-068417
X20115Y-187921
X20115Y-04916
X20115Y-08002
X20117Y-17229
X201175Y-08788
X201175Y-13435
X201179Y-099179
X20118Y-06062
X20118Y-072436
X2012Y-03769
X2012Y-15303
X201202Y-09535
X201205Y-053
X20124Y-02588
X20124Y-03009
X20124Y-05677
X20124Y-06457
X20125Y-1331
X201255Y-13014
X20126Y-02233
X201263Y-114743
X20129Y-01834
X20129Y-19171
X201295Y-04527
X20131Y-03366
X20132Y-12222
X20132Y-14542
X20132Y-14934
X20132Y-16855
X201331Y-179602
X20134Y-0415
X20135Y-01469
X20137Y-14188
X20138Y-137825
X201395Y-10691
X201432Y-176325
X20146Y-071355
X201661Y-100279
X201792Y-098192
X202007Y-186
X20302Y-09718
X203153Y-066751
X20362Y-16241
X203634Y-0706
X203741Y-147438
X203865Y-065913
X203875Y-1015
X2044Y-1505
X2045Y-082
X20451Y-177375
X204602Y-07129
X204644Y-182478
X204675Y-092867
X20476Y-1857
X2049Y-1377
X2049Y-141525
X204925Y-11845
X204925Y-164675
X20495Y-0184
X204975Y-056775
X204975Y-126125
X204975Y-13375
X204975Y-191575
X204975Y-091086
X205Y-068453
X205Y-1032
X205008Y-014946
X205025Y-02615
X205025Y-04535
X205025Y-110775
X205035Y-168461
X20505Y-037625
X20505Y-060775
X20505Y-0761
X20505Y-172375
X205075Y-022125
X205075Y-053025
X2051Y-029925
X2051Y-0338
X2051Y-064625
X20515Y-041375
X20515Y-0799
X20515Y-145375
X20515Y-183546
X20515Y-195375
X205175Y-049075
X205175Y-11445
X205175Y-129925
X2052Y-106825
X2052Y-1222
X20524Y-0837
X20529Y-188375
X205425Y-08755
X20552Y-17595
X206108Y-0733
X20614Y-15544
X20625Y-08955
X206426Y-1624
X20695Y-097225
X20695Y-148075
X207025Y-094075
X20724Y-151728
X207525Y-170221
X2076Y-082175
X208426Y-162725
X208735Y-189664
X20875Y-01825
X20875Y-03005
X20875Y-110725
X20875Y-195325
X208751Y-157003
X2088Y-13005
X208825Y-106825
X208825Y-12625
X208825Y-13775
X208825Y-14165
X208825Y-145425
X208875Y-053025
X208875Y-153025
X208889Y-033651
X2089Y-041425
X2089Y-04535
X2089Y-060675
X208925Y-0221
X208925Y-092575
X20894Y-12232
X20895Y-0569
X20895Y-06455
X20895Y-1143
X208957Y-072375
X208975Y-0491
X208998Y-015137
X209Y-025975
X209Y-1184
X209Y-13385
X209003Y-160803
X209025Y-037475
X20903Y-087845
X209043Y-101364
X20905Y-0761
X209075Y-0685
X209175Y-14758
X209275Y-186725
X20959Y-10041
X21005Y-174625
X21034Y-16346
X210393Y-0786
X210475Y-15118
X210775Y-166925
X21085Y-1703
X21125Y-14765
X21125Y-189525
X2114Y-08885
X211877Y-170693
X21188Y-1634
X212525Y-189575
X2126Y-083871
X212625Y-064625
X212625Y-11845
X212625Y-1261
X212625Y-137775
X212625Y-161
X212625Y-168425
X21265Y-068525
X21265Y-018325
X21265Y-195475
X21267Y-157079
X212675Y-053
X212681Y-072626
X2127Y-026
X2127Y-133875
X2127Y-176175
X212725Y-029975
X212725Y-022325
X21274Y-14162
X212746Y-182176
X21275Y-14925
X212754Y-076078
X212775Y-014575
X212775Y-1107
X212775Y-10705
X2128Y-0454
X2128Y-187775
X2128Y-19255
X212825Y-03755
X212825Y-05685
X212825Y-060835
X212825Y-122375
X212825Y-13005
X21285Y-03385
X21287Y-10302
X212875Y-114575
X212925Y-152975
X212929Y-071554
X212943Y-077778
X21295Y-041375
X21295Y-14562
X212975Y-049175
X212975Y-087625
X212986Y-155981
X21309Y-098919
X213118Y-101464
X213427Y-170381
X213472Y-097852
X213792Y-070872
X213808Y-093805
X213851Y-182181
X213922Y-078747
X214234Y-171129
X214295Y-15106
X214336Y-0905
X214546Y-097615
X21472Y-077989
X214788Y-070404
X215147Y-0927
X215278Y-151554
X215331Y-136139
X215422Y-171141
X215709Y-096535
X215724Y-077535
X216175Y-069331
X21619Y-093063
X21621Y-18995
X21645Y-026075
X216466Y-133947
X216475Y-029925
X216495Y-075865
X2165Y-014525
X2165Y-04905
X2165Y-145425
X216527Y-187377
X21655Y-107
X21655Y-160975
X21657Y-15705
X216575Y-0728
X216575Y-0801
X2166Y-01835
X2166Y-0532
X2166Y-056675
X216625Y-03375
X216625Y-13005
X21665Y-037625
X21665Y-110675
X21665Y-164725
X216662Y-09468
X21667Y-17425
X21667Y-17625
X21667Y-11468
X216671Y-09875
X216672Y-06445
X216675Y-02245
X216675Y-041525
X216675Y-06075
X216675Y-118425
X216675Y-1263
X216675Y-19535
X216686Y-087711
X216724Y-103225
X216725Y-045225
X216725Y-08375
X21675Y-12235
X216825Y-168254
X216825Y-090692
X2169Y-17255
X21692Y-101599
X217447Y-067275
X217472Y-139294
X217725Y-16651
X21811Y-147671
X218115Y-074463
X2182Y-101575
X218534Y-066867
X218566Y-150559
X2186Y-0942
X218813Y-073613
X219042Y-1673
X219131Y-174476
X219205Y-181555
X219261Y-097974
X21962Y-19314
X219679Y-066974
X219853Y-17773
X2199Y-073435
X219903Y-070601
X220064Y-1531
X220113Y-147574
X220175Y-136917
X2203Y-064533
X2203Y-07625
X220325Y-1453
X220325Y-160925
X220325Y-167575
X22035Y-09813
X22035Y-018475
X22035Y-172275
X220375Y-022225
X220375Y-053
X220375Y-083675
X220375Y-133775
X2204Y-122575
X220422Y-18535
X220425Y-114625
X220425Y-014575
X22045Y-06065
X22045Y-068425
X22045Y-08005
X22045Y-10685
X22045Y-18365
X220475Y-05675
X2205Y-03
X2205Y-03755
X2205Y-12605
X22052Y-1647
X220525Y-0414
X220525Y-087675
X220525Y-155925
X22055Y-157775
X220553Y-19147
X220575Y-091329
X220575Y-026075
X220575Y-033675
X220575Y-1184
X220575Y-18797
X2206Y-04915
X2206Y-1761
X220606Y-19542
X220625Y-045275
X22065Y-110825
X22065Y-129825
X220681Y-174875
X220755Y-182034
X220795Y-140599
X220823Y-152279
X220825Y-065525
X220933Y-070988
X221075Y-062968
X22169Y-16318
X221859Y-070395
X2221Y-14807
X222147Y-063216
X222169Y-094405
X222345Y-178955
X22265Y-09744
X222926Y-0701
X223007Y-18565
X2231Y-10185
X22318Y-173759
X223213Y-062945
X223276Y-177642
X223277Y-167305
X223322Y-18256
X223357Y-092922
X223475Y-162704
X223777Y-190612
X223925Y-0695
X224064Y-113825
X22415Y-106877
X22415Y-083761
X22417Y-099256
X224175Y-07615
X22418Y-110675
X2242Y-103125
X2242Y-14545
X2242Y-15225
X224225Y-041475
X224235Y-157204
X22425Y-018425
X22425Y-045225
X22425Y-06045
X22425Y-067825
X22425Y-140625
X22427Y-12249
X224275Y-030025
X2243Y-1301
X2243Y-014425
X224325Y-1184
X224325Y-195325
X22435Y-186806
X22435Y-1261
X22435Y-1841
X224362Y-179026
X224375Y-0493
X224375Y-1645
X224386Y-09149
X2244Y-022025
X2244Y-0338
X2244Y-053175
X2244Y-149425
X2244Y-168525
X224425Y-037525
X224425Y-1339
X22445Y-026025
X22445Y-056725
X22445Y-095375
X2245Y-1722
X2245Y-079956
X224543Y-072233
X22455Y-137625
X224575Y-087595
X224625Y-1923
X224923Y-063075
X225276Y-17475
X225726Y-17815
X2259Y-186271
X226588Y-170187
X22674Y-108623
X22674Y-116842
X226756Y-189326
X226781Y-178461
X227663Y-189949
X228Y-1786
X228Y-17595
X228Y-09915
X228003Y-168542
X228025Y-141275
X22805Y-052875
X22805Y-172375
X228075Y-025975
X228075Y-068375
X228075Y-08
X2281Y-0377
X2281Y-060725
X2281Y-07235
X2281Y-091675
X2281Y-122325
X228125Y-05685
X228125Y-076175
X228125Y-134
X22815Y-041475
X22815Y-064375
X22815Y-126025
X228175Y-03005
X228175Y-045125
X228175Y-083725
X2282Y-0146
X2282Y-087675
X2282Y-10695
X2282Y-118375
X2282Y-145275
X228216Y-179679
X22825Y-095425
X228275Y-018275
X228275Y-022225
X228275Y-049125
X228275Y-195525
X2283Y-0974
X22831Y-13015
X228323Y-190874
X228325Y-03365
X22835Y-1837
X228351Y-137403
X2285Y-114643
X22859Y-1058
X22866Y-15544
X228778Y-163682
X228797Y-102
X2288Y-181229
X228922Y-161401
X229125Y-186425
X229213Y-190227
X229425Y-1096
X229703Y-163005
X230001Y-152027
X230187Y-161901
X23045Y-116825
X2306Y-10955
X230776Y-147828
X230875Y-1134
X230878Y-108486
X231233Y-098078
X231601Y-162481
X23163Y-1021
X231657Y-094488
X231659Y-134946
X23185Y-018225
X231852Y-076002
X231852Y-087577
X231875Y-168525
X231875Y-068425
X231875Y-191525
X231875Y-1954
X231891Y-164642
X2319Y-08076
X231904Y-152925
X23191Y-08349
X23191Y-09123
X231925Y-0145
X231925Y-033725
X231925Y-0453
X231925Y-12615
X231925Y-160725
X23193Y-15676
X23195Y-037825
X23195Y-0492
X23195Y-17615
X231967Y-137583
X231975Y-0529
X231975Y-1724
X232Y-0259
X232Y-05715
X232Y-0607
X232Y-072225
X232Y-1414
X232025Y-03005
X232025Y-041325
X232025Y-13
X232025Y-1838
X23205Y-0222
X23205Y-14923
X23205Y-187875
X232075Y-180125
X2321Y-064275
X2321Y-122375
X23211Y-1334
X232125Y-1455
X2322Y-07967
X232219Y-112391
X232409Y-078413
X232436Y-115676
X232691Y-16271
X233425Y-148025
X23353Y-113323
X234272Y-077845
X2343Y-13573
X2344Y-163275
X234525Y-07445
X2355Y-0935
X235534Y-074011
X2357Y-157168
X2357Y-02216
X2357Y-11845
X2357Y-145309
X2357Y-18009
X2357Y-18764
X23573Y-16472
X23573Y-17227
X235755Y-1419
X23577Y-05677
X23577Y-12613
X23578Y-09912
X23578Y-17636
X23578Y-19532
X235787Y-037633
X23579Y-03357
X23579Y-04907
X23579Y-06445
X2358Y-06064
X23582Y-06833
X235825Y-08757
X23583Y-0452
X23584Y-153
X23584Y-16087
X23584Y-16844
X23584Y-19153
X23585Y-13381
X23586Y-02987
X23586Y-13013
X23587Y-02602
X23587Y-04145
X23588Y-0184
X23588Y-09138
X235885Y-052998
X23589Y-01464
X2359Y-13759
X2359Y-18384
X23591Y-12223
X235915Y-076077
X23593Y-0839
X23601Y-07223
X236105Y-102652
X236125Y-106802
X23616Y-08005
X236168Y-140587
X236208Y-108385
X2364Y-156003
X236555Y-104084
X23735Y-093912
X237736Y-097345
X237825Y-147844
X237886Y-090336
X23789Y-1165
X237945Y-109424
X238225Y-11325
X238937Y-108949
X23904Y-136092
X23958Y-083961
X2396Y-14914
X2396Y-16086
X239615Y-19152
X23963Y-03359
X23963Y-05304
X23963Y-06076
X23963Y-15697
X239631Y-133771
X23965Y-18002
X23966Y-05686
X23966Y-18394
X239665Y-17604
X23967Y-03002
X239687Y-126183
X23969Y-12987
X2397Y-1106
X23971Y-03754
X23971Y-07239
X23971Y-07613
X23972Y-16464
X23973Y-02235
X23974Y-01865
X23974Y-06434
X23975Y-04519
X23975Y-06851
X23975Y-12223
X23975Y-16855
X23976Y-01458
X23977Y-04144
X23977Y-04912
X23977Y-08004
X239775Y-11455
X23978Y-15301
X239795Y-102991
X23982Y-02599
X23982Y-18762
X23987Y-19542
X23992Y-17224
X240075Y-1172
X24071Y-14667
X24082Y-093935
X240821Y-086497
X241065Y-17035
X242076Y-136003
X242782Y-161909
X242805Y-139197
X2434Y-02221
X2434Y-04916
X2434Y-05698
X2434Y-091425
X2434Y-176275
X24341Y-07614
X24342Y-1679
X24344Y-07998
X24344Y-12254
X24345Y-12603
X24347Y-10299
X243475Y-09539
X24348Y-06065
X24351Y-02599
X24351Y-03381
X243515Y-05293
X24352Y-12973
X24352Y-14933
X24352Y-16476
X24352Y-1724
X24353Y-01829
X24354Y-18381
X24354Y-1953
X24355Y-03766
X24356Y-07236
X24357Y-15307
X24357Y-15697
X24357Y-1802
X24357Y-18763
X24358Y-04152
X24359Y-03004
X24359Y-06834
X2436Y-09917
X2436Y-133725
X243613Y-140537
X24362Y-06435
X24362Y-19161
X24363Y-04524
X243672Y-078905
X243698Y-105909
X2437Y-0144
X24373Y-14546
X243845Y-11258
X243895Y-17809
X243972Y-170608
X244002Y-168908
X244102Y-08395
X244433Y-093106
X24455Y-086325
X244662Y-10886
X244711Y-078544
X244754Y-094176
X244822Y-116405
X24487Y-136569
X24493Y-17115
X244964Y-178348
X24549Y-15181
X245565Y-11725
X245686Y-078034
X2458Y-1134
X245821Y-092975
X24592Y-108532
X24603Y-171145
X246063Y-178287
X246338Y-109549
X246883Y-093259
X247009Y-111655
X247086Y-171452
X24725Y-1419
X24725Y-16864
X247253Y-083756
X24726Y-04547
X24727Y-19541
X24728Y-19153
X247285Y-13755
X247306Y-076202
X247308Y-17253
X24734Y-09156
X24735Y-07995
X24735Y-18775
X24736Y-05689
X24736Y-12243
X24736Y-148915
X24737Y-03002
X24737Y-18023
X24738Y-03753
X24738Y-06091
X24738Y-07224
X24738Y-10297
X2474Y-04147
X2474Y-13011
X2474Y-18382
X247406Y-109815
X247407Y-156854
X24741Y-06837
X24742Y-09546
X24744Y-02606
X24744Y-03365
X24745Y-01837
X24745Y-08845
X24745Y-16482
X247464Y-11557
X247477Y-053063
X24748Y-14547
X24749Y-0491
X247495Y-09918
X2475Y-01464
X2475Y-02218
X2475Y-1761
X24751Y-12621
X24751Y-13384
X24753Y-06438
X24756Y-11398
X247565Y-11858
X2477Y-106156
X24823Y-14063
X2483Y-07495
X248407Y-155395
X248675Y-090171
X24869Y-16209
X248955Y-117176
X249Y-1096
X24938Y-10465
X249448Y-074548
X249508Y-151915
X249509Y-089453
X250005Y-120512
X250293Y-105332
X250505Y-116983
X250534Y-074725
X250556Y-11331
X25062Y-181343
X25075Y-177125
X2508Y-0894
X250969Y-146191
X251025Y-108647
X2511Y-083923
X2511Y-1379
X2511Y-164653
X25112Y-05307
X25113Y-09549
X25114Y-07622
X25116Y-1685
X25117Y-18769
X25119Y-06098
X25119Y-14177
X25121Y-08008
X25121Y-12628
X25122Y-02981
X25122Y-13018
X25122Y-18389
X251235Y-118495
X25124Y-0146
X25124Y-01833
X25124Y-09915
X25124Y-1608
X251246Y-068298
X25125Y-17225
X251251Y-10683
X251265Y-09154
X25127Y-10308
X25127Y-13382
X25129Y-02222
X2513Y-03374
X2513Y-04917
X2513Y-12232
X25132Y-02597
X25132Y-19155
X251325Y-087605
X25135Y-05698
X25135Y-06454
X25137Y-04142
X25137Y-19531
X2514Y-03748
X251425Y-179925
X251449Y-072171
X25145Y-1148
X25147Y-04541
X251512Y-073269
X25155Y-1762
X251607Y-157046
X251652Y-070621
X25175Y-148375
X251913Y-111844
X25201Y-16332
X252019Y-086519
X252675Y-085637
X252825Y-151908
X253Y-11201
X253525Y-108993
X253525Y-070725
X253937Y-085475
X253955Y-135262
X254091Y-146666
X254579Y-16973
X25477Y-07034
X254929Y-084999
X25495Y-01832
X25495Y-02214
X25495Y-075894
X25497Y-04545
X25497Y-05292
X25499Y-0915
X255Y-02594
X25501Y-01441
X25502Y-15687
X255025Y-160853
X25504Y-172262
X25505Y-149075
X25505Y-129875
X25505Y-16438
X255054Y-168033
X25506Y-1146
X25507Y-03366
X255075Y-107186
X25511Y-19532
X25512Y-03741
X25512Y-06861
X255125Y-060748
X25513Y-09923
X25516Y-02987
X255175Y-103204
X255187Y-122173
X25519Y-06453
X2552Y-18785
X25522Y-04891
X25524Y-18004
X255249Y-087585
X25525Y-04144
X25525Y-07991
X25525Y-07207
X255275Y-111075
X25528Y-08291
X25528Y-0955
X25528Y-11834
X25528Y-12625
X255285Y-18398
X25531Y-05666
X255335Y-17598
X255407Y-153336
X255435Y-19174
X255617Y-170234
X256325Y-13565
X256444Y-170982
X2568Y-132225
X256976Y-148091
X257114Y-142706
X25786Y-14005
X257922Y-147529
X258041Y-144229
X258041Y-120825
X25845Y-1864
X258703Y-096092
X258794Y-1482
X25882Y-156965
X258821Y-126182
X258825Y-12985
X258825Y-029925
X258825Y-064475
X258825Y-172325
X25885Y-110725
X258851Y-153051
X258875Y-03375
X258875Y-0761
X258875Y-145309
X258875Y-18005
X258875Y-1916
X2589Y-091107
X2589Y-014575
X2589Y-0608
X2589Y-08005
X258923Y-168448
X258925Y-018375
X258925Y-0453
X258925Y-10315
X258925Y-133775
X25895Y-0222
X25895Y-04145
X258975Y-114775
X259Y-05685
X259Y-0838
X259Y-087775
X259Y-176175
X259008Y-093557
X259025Y-0375
X259025Y-05295
X259025Y-0724
X259025Y-187675
X259025Y-19545
X25905Y-099225
X25905Y-107
X259055Y-14975
X259075Y-0683
X259075Y-11835
X259075Y-183875
X259125Y-025975
X25915Y-049275
X25921Y-124275
X259253Y-136503
X259425Y-128645
X2595Y-1325
X260066Y-094151
X26025Y-163275
X260353Y-13648
X260525Y-1405
X260717Y-12025
X26086Y-132121
X261325Y-1245
X261776Y-116941
X26195Y-16205
X26217Y-15544
X26225Y-121164
X262325Y-096313
X26252Y-10955
X26265Y-0837
X26265Y-12635
X26265Y-106731
X26265Y-11425
X26265Y-168375
X262655Y-099013
X262675Y-068525
X262675Y-14165
X262675Y-172375
X2627Y-118357
X262725Y-10304
X262743Y-13334
X26275Y-02995
X26275Y-033725
X26275Y-04165
X26275Y-064475
X26275Y-137775
X2628Y-022375
X2628Y-0376
X2628Y-049075
X2628Y-05305
X2628Y-056825
X2628Y-07605
X2628Y-091525
X262825Y-0184
X262825Y-072275
X262825Y-149375
X262825Y-18385
X262837Y-1296
X26285Y-04545
X26285Y-079975
X26285Y-14555
X26285Y-176275
X262875Y-026
X262925Y-087725
X262949Y-12805
X26295Y-0608
X26295Y-179875
X26295Y-1916
X26295Y-19545
X263Y-15203
X263018Y-13115
X26305Y-014575
X263137Y-134367
X263425Y-154802
X26405Y-12822
X26485Y-159525
X265Y-19025
X26502Y-13175
X265169Y-163075
X265467Y-089696
X265568Y-1365
X265598Y-18655
X26575Y-155782
X2658Y-194233
X26625Y-109
X266283Y-185689
X2665Y-014525
X2665Y-018125
X266525Y-041375
X266525Y-1376
X26653Y-133595
X26654Y-090166
X26655Y-0299
X26655Y-106925
X26655Y-191533
X266575Y-076125
X266575Y-195375
X2666Y-049175
X2666Y-0837
X266625Y-056825
X266625Y-060525
X266625Y-145425
X26665Y-022325
X26665Y-033775
X26665Y-053125
X26665Y-068375
X26665Y-07225
X26665Y-14165
X26665Y-1762
X266655Y-12215
X266697Y-0991
X2667Y-03765
X2667Y-045325
X2667Y-079825
X266725Y-0645
X266725Y-16835
X266725Y-172325
X266775Y-026075
X266775Y-087566
X266775Y-149375
X26679Y-15297
X2668Y-18775
X2668Y-179825
X26682Y-091365
X26685Y-11105
X26685Y-183875
X266894Y-134632
X2669Y-11445
X266935Y-10305
X26712Y-11953
X26715Y-136332
X2672Y-159325
X267894Y-131193
X268Y-1861
X26805Y-163225
X2681Y-1557
X268584Y-13205
X268814Y-136375
X269011Y-139367
X269045Y-094127
X269139Y-147029
X269876Y-140047
X270028Y-127231
X2701Y-12112
X270193Y-147519
X270239Y-131369
X270261Y-128306
X27035Y-153332
X270375Y-191448
X270414Y-045336
X270415Y-122934
X270425Y-029875
X270425Y-19555
X27045Y-0376
X27045Y-053025
X27045Y-0684
X27045Y-176225
X27045Y-18005
X27045Y-083948
X270475Y-09155
X2705Y-022425
X2705Y-060475
X2705Y-076325
X2705Y-137775
X2705Y-160775
X27055Y-1685
X27055Y-17245
X27055Y-018351
X27055Y-026163
X27055Y-033725
X27055Y-041475
X27055Y-056798
X27055Y-06455
X27055Y-07995
X27057Y-14563
X270575Y-072225
X270599Y-087656
X2706Y-049125
X2706Y-14215
X2706Y-156966
X270625Y-164575
X27065Y-18395
X27067Y-01445
X2707Y-1877
X27074Y-14994
X27076Y-089945
X27079Y-12927
X270871Y-140573
X271003Y-148263
X271047Y-130617
X27125Y-1138
X271579Y-097687
X271775Y-09415
X271798Y-132245
X272025Y-105475
X2725Y-109589
X27282Y-13265
X273339Y-120661
X273501Y-015971
X27408Y-11767
X2742Y-087695
X27421Y-10259
X274225Y-153248
X27425Y-05315
X274275Y-064475
X274275Y-16095
X274275Y-1762
X2743Y-018325
X2743Y-068375
X2743Y-0798
X2743Y-09935
X2743Y-106875
X2743Y-172375
X2743Y-180125
X274325Y-041325
X274325Y-14145
X274325Y-191525
X274325Y-19545
X27435Y-14535
X27435Y-026075
X27435Y-037525
X27435Y-0955
X27435Y-13775
X274375Y-1686
X274375Y-0452
X274375Y-0762
X274375Y-1492
X274375Y-1839
X274376Y-122095
X274387Y-13407
X2744Y-022125
X2744Y-029675
X2744Y-0723
X2744Y-110675
X2744Y-16455
X2744Y-124648
X274423Y-187698
X274425Y-049175
X274443Y-127239
X27445Y-033725
X27445Y-091625
X27445Y-114625
X27445Y-156875
X274475Y-05685
X274475Y-060725
X274482Y-083975
X274506Y-132755
X274541Y-123558
X27471Y-12902
X274729Y-104126
X274895Y-119099
X275303Y-082568
X275325Y-1318
X275785Y-128789
X276Y-02485
X276125Y-186525
X276323Y-194312
X2764Y-124976
X276531Y-021003
X276713Y-139348
X277599Y-120821
X27761Y-190575
X277613Y-017336
X277702Y-139983
X277711Y-015607
X277739Y-085351
X27805Y-02605
X27805Y-157125
X278072Y-088822
X278075Y-153148
X278075Y-0608
X27808Y-01442
X2781Y-0762
X27812Y-124971
X278125Y-0376
X278125Y-04915
X278125Y-052975
X278125Y-099175
X278125Y-11455
X278125Y-183875
X27815Y-0299
X27815Y-11085
X278151Y-187651
X278175Y-068475
X278175Y-0337
X278175Y-107075
X278175Y-16085
X2782Y-164575
X2782Y-180075
X278225Y-041525
X278225Y-14545
X27825Y-10309
X27825Y-176125
X278275Y-16845
X278275Y-0569
X278277Y-086406
X2783Y-045075
X2783Y-06475
X2783Y-079975
X2783Y-149175
X278325Y-072125
X27835Y-118275
X278351Y-195458
X278375Y-1725
X278425Y-0956
X278588Y-091845
X27864Y-020369
X278775Y-140226
X278775Y-12095
X279155Y-136625
X279179Y-189623
X280055Y-131222
X28012Y-124791
X280325Y-140175
X280875Y-128775
X281075Y-132662
X28184Y-02375
X281896Y-02558
X2819Y-187675
X281925Y-080025
X28195Y-1569
X28195Y-160925
X28199Y-13775
X282Y-172325
X282025Y-0298
X282025Y-064525
X282025Y-091375
X282025Y-164725
X282025Y-184
X28205Y-041625
X28205Y-04925
X28205Y-1415
X28205Y-16845
X282075Y-068275
X282075Y-11425
X282075Y-153125
X282075Y-1802
X282079Y-127736
X2821Y-176
X282111Y-087589
X282125Y-0337
X282125Y-03745
X282125Y-045325
X282125Y-060725
X282125Y-145375
X28215Y-053
X28215Y-099175
X28215Y-1108
X28215Y-12995
X28215Y-106898
X282175Y-103
X2822Y-076125
X2822Y-072225
X2822Y-0838
X2822Y-149375
X282211Y-133976
X282225Y-05685
X282276Y-026612
X2823Y-095364
X28235Y-122425
X2824Y-117929
X283025Y-124676
T3
X0163Y-0907
X0235Y-018325
X0237Y-1508
X027705Y-157169
X028825Y-018425
X0305Y-081475
X030504Y-089825
X03126Y-13554
X031675Y-1735
X0318Y-0521
X033879Y-159021
X03655Y-1586
X03776Y-116
X03858Y-02309
X03865Y-030018
X040838Y-14695
X040855Y-1672
X0409Y-0624
X041023Y-01676
X041025Y-124475
X04145Y-105375
X0419Y-089027
X042135Y-11665
X04275Y-1201
X042778Y-19428
X0434Y-0684
X043875Y-066501
X04395Y-14698
X046838Y-058971
X046975Y-065951
X04949Y-13173
X049775Y-086075
X05064Y-10893
X0517Y-093525
X052025Y-081875
X052125Y-131775
X052725Y-18605
X053191Y-089552
X05331Y-109025
X053625Y-070338
X05675Y-132205
X057025Y-1861
X05753Y-09356
X057785Y-109225
X05805Y-039234
X05865Y-08997
X059704Y-035662
X0604Y-124425
X060575Y-166875
X06065Y-19385
X062667Y-013938
X06372Y-10908
X063825Y-132187
X0641Y-039875
X06459Y-18605
X066721Y-058017
X067225Y-0364
X067576Y-109134
X06925Y-03495
X0704Y-022791
X070411Y-018877
X070875Y-03952
X071076Y-02725
X071325Y-015925
X071575Y-086275
X071775Y-1171
X07187Y-15175
X072517Y-017015
X0727Y-070675
X07275Y-10908
X073116Y-124375
X07385Y-01335
X07385Y-09365
X074706Y-089797
X075375Y-039818
X07568Y-08594
X0799Y-109075
X08145Y-10529
X08588Y-04006
X08595Y-047575
X08793Y-04363
X088828Y-036083
X09102Y-09377
X0919Y-08975
X0919Y-1048
X091925Y-1246
X09255Y-085825
X095275Y-16683
X095325Y-19385
X09615Y-12445
X09707Y-1435
X097578Y-062251
X09825Y-10908
X099775Y-047599
X100921Y-090046
X106675Y-10908
X10693Y-09365
X11387Y-10908
X11415Y-04759
X11464Y-01708
X11464Y-02447
X11598Y-0551
X11612Y-04759
X1164Y-01335
X116711Y-044181
X1181Y-05125
X1186Y-08985
X11875Y-12435
X11875Y-143675
X118875Y-10529
X1257Y-10908
X12579Y-09365
X127235Y-151766
X129081Y-178251
X129532Y-12431
X12959Y-10529
X12995Y-055175
X13006Y-14373
X13018Y-08983
X130849Y-151691
X13348Y-14364
X1336Y-10908
X142775Y-109202
X1439Y-01346
X14429Y-09365
X144375Y-105325
X145311Y-123911
X14572Y-02442
X14673Y-0551
X147Y-143425
X14707Y-0666
X14725Y-10529
X1477Y-051825
X148854Y-06265
X148975Y-166875
X149675Y-1431
X1497Y-19385
X14982Y-17446
X1517Y-10908
X16065Y-186125
X160675Y-159125
X16155Y-10909
X16167Y-14356
X1667Y-17462
X16681Y-15921
X168Y-105225
X16828Y-0669
X1684Y-139975
X1686Y-12438
X169075Y-1552
X17355Y-1593
X174531Y-188659
X17621Y-03977
X17629Y-0245
X17652Y-14379
X17771Y-06688
X17796Y-07777
X1781Y-073897
X178875Y-063253
X18316Y-15921
X19411Y-14377
X195275Y-10525
X195275Y-12449
X19735Y-07829
X198737Y-139514
X2032Y-139826
X2033Y-17466
X20472Y-15921
X2051Y-01375
X205525Y-178849
X20661Y-024425
X20661Y-03995
X206675Y-078375
X207425Y-17465
X20895Y-08625
X20896Y-07863
X211125Y-07448
X211243Y-082325
X215675Y-1593
X2178Y-14381
X224625Y-15544
X22569Y-105225
X225975Y-0132
X2261Y-0246
X2261Y-0398
X226175Y-06285
X226175Y-085975
X22629Y-12449
X227351Y-100567
X22766Y-10428
X22777Y-15921
X2287Y-13955
X23683Y-0132
X23735Y-086025
X237658Y-10485
X23767Y-193991
X237852Y-02435
X237852Y-0398
X237852Y-06318
X238027Y-155395
X23942Y-08617
X23942Y-10113
X239725Y-082261
X241775Y-173825
X24192Y-09733
X24208Y-14379
X242875Y-089625
X242973Y-085629
X24763Y-15921
X251925Y-155395
X2537Y-1593
X25522Y-14379
X255775Y-128097
X256806Y-124447
X257Y-0132
X25705Y-06318
X257075Y-1013
X2571Y-02435
X2572Y-03998
X257225Y-078275
X25728Y-11652
X257725Y-128088
X26138Y-15921
X26905Y-024275
X26905Y-03998
X26905Y-06312
X26905Y-0781
X26905Y-101225
X26905Y-11662
X269075Y-0321
X26962Y-0132
X27025Y-09775
X27215Y-15532
X27267Y-1938
X274425Y-013825
X27635Y-09015
X278075Y-093744
X285Y-03215
X285Y-03984
X285Y-06312
X285Y-07818
X285Y-10126
X285Y-11657
X285Y-15527
T4
X0254Y-192825
X0254Y-194025
X02695Y-191275
X02695Y-195625
X02825Y-191275
X02825Y-195625
X0297Y-192825
X0297Y-194025
T5
X02595Y-0781
X0381Y-1212
X0389Y-04105
X03273Y-06109
X03523Y-06109
X0145Y-017
X017Y-0145
X017Y-0195
X0195Y-017
X02655Y-08285
X02905Y-08285
X02466Y-1752
X0272Y-1752
X02974Y-1752
X0156Y-12765
X0156Y-13155
X279Y-017
X2804Y-016725
X283525Y-016925
X285Y-017
X0145Y-193
X017Y-1905
X017Y-1955
X0195Y-193
X02975Y-1665
X03225Y-164
X03225Y-169
X03475Y-1665
X2905Y-017
X293Y-0145
X293Y-0195
X2955Y-017
X0305Y-0755
X033Y-0755
X03625Y-17585
X03625Y-17835
X2905Y-193
X293Y-1905
X293Y-1955
X2955Y-193
X0174Y-083025
X0199Y-083025
X0313Y-06835
X0338Y-06835
X27895Y-1932
X2804Y-193275
X28355Y-193475
X28505Y-19325
T6
X0367Y-14442
X0367Y-14696
X0367Y-1495
T7
X282Y-017
X035775Y-117685
X0358Y-12022
X0358Y-1253
X0223Y-12682
X0223Y-12936
X0223Y-1319
X0223Y-13444
X0223Y-13698
X0223Y-13952
X0223Y-14206
X0223Y-1446
X282Y-193
X01691Y-14237
X03398Y-03346
X03398Y-036
X03398Y-03854
X03398Y-04108
X03398Y-04362
X03398Y-04616
X03398Y-0487
X03398Y-05124
T8
X0225Y-19285
X0225Y-19539
T9
X03575Y-0195
X0262Y-06991
X0262Y-07245
X0262Y-07499
X03575Y-03
X03575Y-016
X0366Y-0946
X0156Y-11055
X022Y-1755
X022Y-17804
X022Y-18058
X022Y-18312
X022Y-18566
X022Y-1882
X03575Y-0265
X0358Y-023
T10
X01685Y-0995
X01685Y-106
X02135Y-0995
X02135Y-106
X024352Y-094509
X024352Y-101009
X028852Y-094509
X028852Y-101009
X019Y-0877
X019Y-0922
X0255Y-0877
X0255Y-0922
X024352Y-104509
X024352Y-111009
X028852Y-104509
X028852Y-111009
X03185Y-0995
X03185Y-106
X03635Y-0995
X03635Y-106
X02561Y-11552
X02561Y-12002
X03211Y-11552
X03211Y-12002
X01585Y-1155
X01585Y-12
X02235Y-1155
X02235Y-12
X0282Y-0877
X0282Y-0922
X0347Y-0877
X0347Y-0922
T11
X015Y-1515
X0199Y-1515
T12
X02095Y-071178
X0173Y-154
X01665Y-1262
X01665Y-133
T13
X025132Y-039934
X01345Y-1262
X01345Y-133
X0135Y-1296
T14
X017Y-017
X017Y-193
X03225Y-1665
X293Y-017
X293Y-193
T8
X016602Y-163001G85X016602Y-164999
G05
X018602Y-168699G85X020601Y-168699
G05
X022601Y-163001G85X022601Y-164999
G05
T0
M30
