M48
;DRILL file {KiCad no-vcs-found-23590d8~58~ubuntu14.04.1} date Tue Apr 11 13:57:57 2017
;FORMAT={3:3/ absolute / metric / suppress trailing zeros}
FMAT,2
METRIC,LZ
T1C0.400
T2C0.850
T3C1.000
%
G90
G05
M71
T1
X01475Y-1535
X015Y-12925
X01575Y-1535
X0255Y-1435
X288Y-03075
X288Y-03175
X288Y-07175
X288Y-07275
X288Y-13475
X288Y-13575
X288Y-17575
X288Y-17675
T2
X295925Y-0145G85X297075Y-0145
G05
X295925Y-01835G85X297075Y-01835
G05
X295925Y-0222G85X297075Y-0222
G05
X295925Y-02605G85X297075Y-02605
G05
X295925Y-0299G85X297075Y-0299
G05
X295925Y-03375G85X297075Y-03375
G05
X295925Y-0376G85X297075Y-0376
G05
X295925Y-04145G85X297075Y-04145
G05
X295925Y-0453G85X297075Y-0453
G05
X295925Y-04915G85X297075Y-04915
G05
X295925Y-053G85X297075Y-053
G05
X295925Y-05685G85X297075Y-05685
G05
X295925Y-0607G85X297075Y-0607
G05
X295925Y-06455G85X297075Y-06455
G05
X295925Y-0684G85X297075Y-0684
G05
X295925Y-07225G85X297075Y-07225
G05
X295925Y-0761G85X297075Y-0761
G05
X295925Y-07995G85X297075Y-07995
G05
X295925Y-0838G85X297075Y-0838
G05
X295925Y-08765G85X297075Y-08765
G05
X295925Y-0915G85X297075Y-0915
G05
X295925Y-09535G85X297075Y-09535
G05
X295925Y-0992G85X297075Y-0992
G05
X295925Y-10305G85X297075Y-10305
G05
X295925Y-1069G85X297075Y-1069
G05
X295925Y-11075G85X297075Y-11075
G05
X295925Y-1146G85X297075Y-1146
G05
X295925Y-11845G85X297075Y-11845
G05
X295925Y-1223G85X297075Y-1223
G05
X295925Y-12615G85X297075Y-12615
G05
X295925Y-13G85X297075Y-13
G05
X295925Y-13385G85X297075Y-13385
G05
X295925Y-1377G85X297075Y-1377
G05
X295925Y-14155G85X297075Y-14155
G05
X295925Y-1454G85X297075Y-1454
G05
X295925Y-14925G85X297075Y-14925
G05
X295925Y-1531G85X297075Y-1531
G05
X295925Y-15695G85X297075Y-15695
G05
X295925Y-1608G85X297075Y-1608
G05
X295925Y-16465G85X297075Y-16465
G05
X295925Y-1685G85X297075Y-1685
G05
X295925Y-17235G85X297075Y-17235
G05
X295925Y-1762G85X297075Y-1762
G05
X295925Y-18005G85X297075Y-18005
G05
X295925Y-1839G85X297075Y-1839
G05
X295925Y-18775G85X297075Y-18775
G05
X295925Y-1916G85X297075Y-1916
G05
X295925Y-19545G85X297075Y-19545
G05
T3
X29175Y-055G85X29325Y-055
G05
X29175Y-105G85X29325Y-105
G05
X29175Y-155G85X29325Y-155
G05
T0
M30
