M48
;DRILL file {KiCad no-vcs-found-7399~56~ubuntu14.04.1} date Fri Dec 16 11:13:10 2016
;FORMAT={3:3/ absolute / metric / suppress trailing zeros}
FMAT,2
METRIC,LZ
T1C0.800
%
G90
G05
M71
T1
X2959Y-0145G85X2971Y-0145
G05
X2959Y-01835G85X2971Y-01835
G05
X2959Y-0222G85X2971Y-0222
G05
X2959Y-02605G85X2971Y-02605
G05
X2959Y-0299G85X2971Y-0299
G05
X2959Y-03375G85X2971Y-03375
G05
X2959Y-0376G85X2971Y-0376
G05
X2959Y-04145G85X2971Y-04145
G05
X2959Y-0453G85X2971Y-0453
G05
X2959Y-04915G85X2971Y-04915
G05
X2959Y-053G85X2971Y-053
G05
X2959Y-05685G85X2971Y-05685
G05
X2959Y-0607G85X2971Y-0607
G05
X2959Y-06455G85X2971Y-06455
G05
X2959Y-0684G85X2971Y-0684
G05
X2959Y-07225G85X2971Y-07225
G05
X2959Y-0761G85X2971Y-0761
G05
X2959Y-07995G85X2971Y-07995
G05
X2959Y-0838G85X2971Y-0838
G05
X2959Y-08765G85X2971Y-08765
G05
X2959Y-0915G85X2971Y-0915
G05
X2959Y-09535G85X2971Y-09535
G05
X2959Y-0992G85X2971Y-0992
G05
X2959Y-10305G85X2971Y-10305
G05
X2959Y-1069G85X2971Y-1069
G05
X2959Y-11075G85X2971Y-11075
G05
X2959Y-1146G85X2971Y-1146
G05
X2959Y-11845G85X2971Y-11845
G05
X2959Y-1223G85X2971Y-1223
G05
X2959Y-12615G85X2971Y-12615
G05
X2959Y-13G85X2971Y-13
G05
X2959Y-13385G85X2971Y-13385
G05
X2959Y-1377G85X2971Y-1377
G05
X2959Y-14155G85X2971Y-14155
G05
X2959Y-1454G85X2971Y-1454
G05
X2959Y-14925G85X2971Y-14925
G05
X2959Y-1531G85X2971Y-1531
G05
X2959Y-15695G85X2971Y-15695
G05
X2959Y-1608G85X2971Y-1608
G05
X2959Y-16465G85X2971Y-16465
G05
X2959Y-1685G85X2971Y-1685
G05
X2959Y-17235G85X2971Y-17235
G05
X2959Y-1762G85X2971Y-1762
G05
X2959Y-18005G85X2971Y-18005
G05
X2959Y-1839G85X2971Y-1839
G05
X2959Y-18775G85X2971Y-18775
G05
X2959Y-1916G85X2971Y-1916
G05
X2959Y-19545G85X2971Y-19545
G05
T0
M30
