M48
;DRILL file {KiCad no-vcs-found-1e87ae6~58~ubuntu14.04.1} date Mon Jul  3 13:26:17 2017
;FORMAT={3:3/ absolute / metric / suppress trailing zeros}
FMAT,2
METRIC,LZ
T1C0.800
T2C1.000
%
G90
G05
M71
T1
X3059Y-0145G85X3071Y-0145
G05
X3059Y-01835G85X3071Y-01835
G05
X3059Y-0222G85X3071Y-0222
G05
X3059Y-02605G85X3071Y-02605
G05
X3059Y-0299G85X3071Y-0299
G05
X3059Y-03375G85X3071Y-03375
G05
X3059Y-0376G85X3071Y-0376
G05
X3059Y-04145G85X3071Y-04145
G05
X3059Y-0453G85X3071Y-0453
G05
X3059Y-04915G85X3071Y-04915
G05
X3059Y-053G85X3071Y-053
G05
X3059Y-05685G85X3071Y-05685
G05
X3059Y-0607G85X3071Y-0607
G05
X3059Y-06455G85X3071Y-06455
G05
X3059Y-0684G85X3071Y-0684
G05
X3059Y-07225G85X3071Y-07225
G05
X3059Y-0761G85X3071Y-0761
G05
X3059Y-07995G85X3071Y-07995
G05
X3059Y-0838G85X3071Y-0838
G05
X3059Y-08765G85X3071Y-08765
G05
X3059Y-0915G85X3071Y-0915
G05
X3059Y-09535G85X3071Y-09535
G05
X3059Y-0992G85X3071Y-0992
G05
X3059Y-10305G85X3071Y-10305
G05
X3059Y-1069G85X3071Y-1069
G05
X3059Y-11075G85X3071Y-11075
G05
X3059Y-1146G85X3071Y-1146
G05
X3059Y-11845G85X3071Y-11845
G05
X3059Y-1223G85X3071Y-1223
G05
X3059Y-12615G85X3071Y-12615
G05
X3059Y-13G85X3071Y-13
G05
X3059Y-13385G85X3071Y-13385
G05
X3059Y-1377G85X3071Y-1377
G05
X3059Y-14155G85X3071Y-14155
G05
X3059Y-1454G85X3071Y-1454
G05
X3059Y-14925G85X3071Y-14925
G05
X3059Y-1531G85X3071Y-1531
G05
X3059Y-15695G85X3071Y-15695
G05
X3059Y-1608G85X3071Y-1608
G05
X3059Y-16465G85X3071Y-16465
G05
X3059Y-1685G85X3071Y-1685
G05
X3059Y-17235G85X3071Y-17235
G05
X3059Y-1762G85X3071Y-1762
G05
X3059Y-18005G85X3071Y-18005
G05
X3059Y-1839G85X3071Y-1839
G05
X3059Y-18775G85X3071Y-18775
G05
X3059Y-1916G85X3071Y-1916
G05
X3059Y-19545G85X3071Y-19545
G05
T2
X30175Y-055G85X30325Y-055
G05
X30175Y-105G85X30325Y-105
G05
X30175Y-155G85X30325Y-155
G05
T0
M30
