G04 #@! TF.GenerationSoftware,KiCad,Pcbnew,no-vcs-found-7399~56~ubuntu14.04.1*
G04 #@! TF.CreationDate,2016-12-16T11:12:47+09:00*
G04 #@! TF.ProjectId,dotmatrix_64x48,646F746D61747269785F36347834382E,rev?*
G04 #@! TF.FileFunction,Soldermask,Top*
G04 #@! TF.FilePolarity,Negative*
%FSLAX46Y46*%
G04 Gerber Fmt 4.6, Leading zero omitted, Abs format (unit mm)*
G04 Created by KiCad (PCBNEW no-vcs-found-7399~56~ubuntu14.04.1) date Fri Dec 16 11:12:47 2016*
%MOMM*%
%LPD*%
G01*
G04 APERTURE LIST*
%ADD10C,0.100000*%
%ADD11R,2.635200X2.635200*%
%ADD12R,1.200000X1.100000*%
%ADD13R,1.500000X0.900000*%
%ADD14O,2.432000X2.127200*%
%ADD15R,2.432000X2.127200*%
%ADD16C,2.152400*%
%ADD17O,1.952400X2.152400*%
%ADD18O,1.652400X2.152400*%
%ADD19O,2.152400X1.652400*%
%ADD20R,5.800040X4.400000*%
%ADD21O,2.152400X1.752400*%
%ADD22O,1.752400X2.152400*%
%ADD23C,1.900000*%
%ADD24R,1.600000X1.150000*%
%ADD25R,0.900000X1.300000*%
%ADD26R,0.800000X1.700000*%
%ADD27R,1.000000X0.700000*%
%ADD28R,1.500000X0.700000*%
%ADD29R,1.600000X1.300000*%
%ADD30R,2.800000X3.600000*%
%ADD31R,2.600000X2.600000*%
%ADD32R,2.800000X2.800000*%
%ADD33C,1.600000*%
%ADD34R,2.800000X0.800000*%
%ADD35R,2.900000X2.600000*%
%ADD36O,2.400000X1.700000*%
%ADD37R,2.400000X1.700000*%
%ADD38C,1.800000*%
%ADD39C,7.900000*%
%ADD40R,1.300000X1.600000*%
%ADD41R,0.700000X1.600000*%
%ADD42R,1.600000X0.700000*%
%ADD43R,2.900000X2.900000*%
%ADD44R,1.800000X0.800000*%
%ADD45C,1.400000*%
%ADD46C,6.900000*%
%ADD47O,2.400000X1.200000*%
%ADD48R,3.900120X3.900120*%
%ADD49R,1.900000X2.599640*%
%ADD50R,1.000000X2.600000*%
%ADD51R,1.150000X1.600000*%
%ADD52R,3.900000X3.900000*%
%ADD53R,1.200100X2.200860*%
%ADD54R,2.200860X1.200100*%
%ADD55C,1.149300*%
%ADD56R,4.400500X2.398980*%
%ADD57R,2.901900X1.400760*%
%ADD58O,1.700000X2.400000*%
%ADD59R,1.700000X2.400000*%
%ADD60R,1.100000X1.400000*%
%ADD61R,1.400000X1.100000*%
%ADD62C,2.400000*%
%ADD63R,2.400000X2.400000*%
%ADD64R,2.051000X3.448000*%
%ADD65R,6.496000X6.496000*%
%ADD66C,1.200000*%
%ADD67C,1.144298*%
%ADD68R,1.676400X2.652400*%
%ADD69R,1.300000X2.400000*%
%ADD70R,4.200000X4.300000*%
G04 APERTURE END LIST*
D10*
D11*
X35800000Y-23000000D03*
D12*
X20250000Y-137200000D03*
D13*
X20250000Y-137000000D03*
X20250000Y-135900000D03*
D12*
X20250000Y-135700000D03*
D14*
X22825000Y-150000000D03*
X22825000Y-147460000D03*
X22825000Y-144920000D03*
X22825000Y-142380000D03*
X22825000Y-139840000D03*
D15*
X22825000Y-137300000D03*
D14*
X34350000Y-46200000D03*
X34350000Y-43660000D03*
X34350000Y-41120000D03*
X34350000Y-38580000D03*
X34350000Y-36040000D03*
D15*
X34350000Y-33500000D03*
D16*
X37475000Y-124590000D03*
D17*
X37800000Y-132205000D03*
D16*
X37500000Y-127125000D03*
D18*
X36575000Y-155325000D03*
D19*
X36575000Y-150245000D03*
D20*
X35075000Y-147100000D03*
X35075000Y-134900000D03*
D21*
X30900000Y-89000000D03*
X30900000Y-93500000D03*
X24400000Y-93500000D03*
X24400000Y-89000000D03*
D22*
X21250000Y-123000000D03*
X16750000Y-123000000D03*
X16750000Y-129500000D03*
X21250000Y-129500000D03*
X21250000Y-108000000D03*
X16750000Y-108000000D03*
X16750000Y-114500000D03*
X21250000Y-114500000D03*
X28751641Y-113009083D03*
X24251641Y-113009083D03*
X24251641Y-119509083D03*
X28751641Y-119509083D03*
X28751641Y-103009083D03*
X24251641Y-103009083D03*
X24251641Y-109509083D03*
X28751641Y-109509083D03*
X36250000Y-108000000D03*
X31750000Y-108000000D03*
X31750000Y-114500000D03*
X36250000Y-114500000D03*
D21*
X30910000Y-95450000D03*
X30910000Y-99950000D03*
X24410000Y-99950000D03*
X24410000Y-95450000D03*
D22*
X31000000Y-123009083D03*
X26500000Y-123009083D03*
X26500000Y-129509083D03*
X31000000Y-129509083D03*
D23*
X278250000Y-24600000D03*
X251000000Y-20550000D03*
D24*
X24375000Y-60200000D03*
X22475000Y-60200000D03*
X35950000Y-176750000D03*
X34050000Y-176750000D03*
D25*
X28530000Y-13750000D03*
D26*
X29830000Y-13750000D03*
D27*
X29330000Y-13750000D03*
D28*
X28830000Y-13250000D03*
X28830000Y-14250000D03*
D29*
X20600000Y-58600000D03*
X22800000Y-58600000D03*
X30420000Y-15750000D03*
X28220000Y-15750000D03*
D30*
X13550000Y-139800000D03*
D31*
X16700000Y-136400000D03*
X16700000Y-143200000D03*
D32*
X13500000Y-136400000D03*
X13500000Y-143200000D03*
D33*
X15650000Y-137850000D03*
X15650000Y-141750000D03*
D34*
X17550000Y-138500000D03*
X17550000Y-139150000D03*
X17550000Y-139800000D03*
X17550000Y-140450000D03*
X17550000Y-141100000D03*
D35*
X17300000Y-160000000D03*
X15000000Y-157500000D03*
X19900000Y-157500000D03*
D29*
X29950000Y-178100000D03*
X32150000Y-178100000D03*
X32150000Y-179800000D03*
X29950000Y-179800000D03*
D36*
X36250000Y-184350000D03*
D37*
X36250000Y-181850000D03*
D38*
X16500000Y-193500000D03*
D33*
X15000000Y-193500000D03*
X18000000Y-193500000D03*
X13500000Y-193500000D03*
X19500000Y-193500000D03*
D39*
X16500000Y-193500000D03*
D38*
X282000000Y-193000000D03*
D33*
X280500000Y-193000000D03*
X283500000Y-193000000D03*
X279000000Y-193000000D03*
X285000000Y-193000000D03*
D39*
X282000000Y-193000000D03*
D38*
X282000000Y-17000000D03*
D33*
X280400000Y-16725000D03*
X283525000Y-16925000D03*
X279000000Y-17000000D03*
X285000000Y-17000000D03*
D39*
X282000000Y-17000000D03*
D11*
X36570000Y-94340000D03*
D40*
X13350000Y-65975000D03*
X13350000Y-63775000D03*
D41*
X17725000Y-146850000D03*
X17225000Y-146850000D03*
X16725000Y-146850000D03*
X16225000Y-146850000D03*
X15725000Y-146850000D03*
X15225000Y-146850000D03*
D42*
X14175000Y-147900000D03*
X14175000Y-148400000D03*
X14175000Y-148900000D03*
X14175000Y-149400000D03*
X14175000Y-149900000D03*
X14175000Y-150400000D03*
D41*
X15225000Y-151450000D03*
X15725000Y-151450000D03*
X16225000Y-151450000D03*
X16725000Y-151450000D03*
X17225000Y-151450000D03*
X17725000Y-151450000D03*
D42*
X18775000Y-150400000D03*
X18775000Y-149900000D03*
X18775000Y-149400000D03*
X18775000Y-148900000D03*
X18775000Y-148400000D03*
X18775000Y-147900000D03*
D43*
X16475000Y-149150000D03*
D44*
X22900000Y-20525000D03*
X22900000Y-21175000D03*
X22900000Y-21825000D03*
X22900000Y-22475000D03*
X29500000Y-20525000D03*
X22900000Y-23125000D03*
X29500000Y-21175000D03*
X22900000Y-23775000D03*
X29500000Y-21825000D03*
X22900000Y-24425000D03*
X29500000Y-22475000D03*
X22900000Y-25075000D03*
X29500000Y-23125000D03*
X22900000Y-25725000D03*
X29500000Y-23775000D03*
X22900000Y-26375000D03*
X29500000Y-24425000D03*
X29500000Y-26450000D03*
X29500000Y-25075000D03*
X29500000Y-25750000D03*
D45*
X14500000Y-17000000D03*
X19500000Y-17000000D03*
X17000000Y-19500000D03*
X17000000Y-14500000D03*
D46*
X17000000Y-17000000D03*
D24*
X27375000Y-19150000D03*
X25475000Y-19150000D03*
X16150000Y-179200000D03*
X14250000Y-179200000D03*
D47*
X296500000Y-195450000D03*
X296500000Y-191600000D03*
X296500000Y-187750000D03*
X296500000Y-183900000D03*
X296500000Y-180050000D03*
X296500000Y-176200000D03*
X296500000Y-172350000D03*
X296500000Y-168500000D03*
X296500000Y-164650000D03*
X296500000Y-160800000D03*
X296500000Y-156950000D03*
X296500000Y-153100000D03*
X296500000Y-149250000D03*
X296500000Y-145400000D03*
X296500000Y-141550000D03*
X296500000Y-137700000D03*
X296500000Y-133850000D03*
X296500000Y-130000000D03*
X296500000Y-126150000D03*
X296500000Y-122300000D03*
X296500000Y-118450000D03*
X296500000Y-114600000D03*
X296500000Y-110750000D03*
X296500000Y-106900000D03*
X296500000Y-103050000D03*
X296500000Y-99200000D03*
X296500000Y-95350000D03*
X296500000Y-91500000D03*
X296500000Y-87650000D03*
X296500000Y-83800000D03*
X296500000Y-79950000D03*
X296500000Y-76100000D03*
X296500000Y-72250000D03*
X296500000Y-68400000D03*
X296500000Y-64550000D03*
X296500000Y-60700000D03*
X296500000Y-56850000D03*
X296500000Y-53000000D03*
X296500000Y-49150000D03*
X296500000Y-45300000D03*
X296500000Y-41450000D03*
X296500000Y-37600000D03*
X296500000Y-33750000D03*
X296500000Y-29900000D03*
X296500000Y-26050000D03*
X296500000Y-22200000D03*
X296500000Y-18350000D03*
X296500000Y-14500000D03*
D48*
X19601720Y-174699000D03*
X16601980Y-170000000D03*
X22601460Y-170000000D03*
D40*
X97025000Y-123900000D03*
X97025000Y-121700000D03*
D29*
X25175000Y-163575000D03*
X22975000Y-163575000D03*
D49*
X37650000Y-165273440D03*
X34650000Y-165273440D03*
X37650000Y-158175000D03*
X34650000Y-158175000D03*
D29*
X31700000Y-189625000D03*
X29500000Y-189625000D03*
X29500000Y-191300000D03*
X31700000Y-191300000D03*
X31700000Y-192975000D03*
X29500000Y-192975000D03*
D50*
X144055000Y-103700000D03*
X144055000Y-109700000D03*
X145325000Y-103700000D03*
X145325000Y-109700000D03*
X146595000Y-103700000D03*
X146595000Y-109700000D03*
X147865000Y-103700000D03*
X147865000Y-109700000D03*
X149135000Y-103700000D03*
X149135000Y-109700000D03*
X150405000Y-103700000D03*
X150405000Y-109700000D03*
X151675000Y-103700000D03*
X151675000Y-109700000D03*
X152945000Y-103700000D03*
X152945000Y-109700000D03*
D51*
X271700000Y-69200000D03*
X271700000Y-67300000D03*
X279421233Y-67189171D03*
X279421233Y-69089171D03*
D24*
X25475000Y-17925000D03*
X27375000Y-17925000D03*
X29850000Y-194675000D03*
X31750000Y-194675000D03*
D51*
X134967501Y-69409269D03*
X134967501Y-67509269D03*
D24*
X24925000Y-161925000D03*
X23025000Y-161925000D03*
D51*
X23000000Y-160150000D03*
X23000000Y-158250000D03*
X264067027Y-69212031D03*
X264067027Y-67312031D03*
X75300000Y-105450000D03*
X75300000Y-103550000D03*
X142700000Y-103950000D03*
X142700000Y-105850000D03*
X242300000Y-105400000D03*
X242300000Y-103500000D03*
X47227534Y-65284774D03*
X47227534Y-67184774D03*
X70900000Y-67200000D03*
X70900000Y-65300000D03*
X29475000Y-62850000D03*
X29475000Y-60950000D03*
D24*
X21775000Y-80775000D03*
X23675000Y-80775000D03*
D51*
X163064526Y-67184774D03*
X163064526Y-65284774D03*
X55260178Y-65484774D03*
X55260178Y-67384774D03*
D24*
X29950000Y-176600000D03*
X28050000Y-176600000D03*
X16150000Y-180800000D03*
X14250000Y-180800000D03*
D51*
X63655830Y-67384774D03*
X63655830Y-65484774D03*
X82051482Y-65584774D03*
X82051482Y-67484774D03*
X89824088Y-67067412D03*
X89824088Y-68967412D03*
X128168874Y-65284774D03*
X128168874Y-67184774D03*
X241838713Y-67297747D03*
X241838713Y-69197747D03*
X233294706Y-68911662D03*
X233294706Y-67011662D03*
X221776220Y-66839784D03*
X221776220Y-68739784D03*
X210094576Y-68771992D03*
X210094576Y-66871992D03*
X198558114Y-66766710D03*
X198558114Y-68666710D03*
X188671316Y-68551292D03*
X188671316Y-66651292D03*
X177867435Y-66904559D03*
X177867435Y-68804559D03*
X169559704Y-68752744D03*
X169559704Y-66852744D03*
X147401128Y-67176546D03*
X147401128Y-69076546D03*
X102367456Y-65284774D03*
X102367456Y-67184774D03*
X252577457Y-67169075D03*
X252577457Y-69069075D03*
X110034940Y-67715362D03*
X110034940Y-65815362D03*
D11*
X35750000Y-30000000D03*
X16050000Y-93930000D03*
X35750000Y-26500000D03*
X35750000Y-19500000D03*
X35750000Y-16000000D03*
D15*
X26200000Y-69910000D03*
D14*
X26200000Y-72450000D03*
X26200000Y-74990000D03*
D29*
X91124076Y-65167412D03*
X93324076Y-65167412D03*
D40*
X222776208Y-72939784D03*
X222776208Y-70739784D03*
X242838701Y-71197747D03*
X242838701Y-73397747D03*
X253577445Y-73269075D03*
X253577445Y-71069075D03*
X265067015Y-71212031D03*
X265067015Y-73412031D03*
X267567015Y-61312031D03*
X267567015Y-63512031D03*
D29*
X111334928Y-63915362D03*
X113534928Y-63915362D03*
D40*
X202058102Y-60766710D03*
X202058102Y-62966710D03*
D29*
X29725000Y-59300000D03*
X27525000Y-59300000D03*
D40*
X181367423Y-60904559D03*
X181367423Y-63104559D03*
X173059692Y-63052744D03*
X173059692Y-60852744D03*
X150901116Y-61176546D03*
X150901116Y-63376546D03*
X113534928Y-62015362D03*
X113534928Y-59815362D03*
X234294694Y-73111662D03*
X234294694Y-70911662D03*
X211094564Y-70771992D03*
X211094564Y-72971992D03*
D29*
X282921221Y-65289171D03*
X280721221Y-65289171D03*
D40*
X245338701Y-63497747D03*
X245338701Y-61297747D03*
X256077445Y-61169075D03*
X256077445Y-63369075D03*
X273088766Y-71154296D03*
X273088766Y-73354296D03*
X275588766Y-61254296D03*
X275588766Y-63454296D03*
X282921221Y-63389171D03*
X282921221Y-61189171D03*
D29*
X213594564Y-64971992D03*
X211394564Y-64971992D03*
X223076208Y-64939784D03*
X225276208Y-64939784D03*
X236794694Y-65111662D03*
X234594694Y-65111662D03*
X253877445Y-65269075D03*
X256077445Y-65269075D03*
X267567015Y-65412031D03*
X265367015Y-65412031D03*
D40*
X138467489Y-61509269D03*
X138467489Y-63709269D03*
X135967489Y-71409269D03*
X135967489Y-73609269D03*
X192171304Y-60651292D03*
X192171304Y-62851292D03*
D29*
X148701116Y-65276546D03*
X150901116Y-65276546D03*
X173059692Y-64952744D03*
X170859692Y-64952744D03*
X179167423Y-65004559D03*
X181367423Y-65004559D03*
X192171304Y-64751292D03*
X189971304Y-64751292D03*
X199858102Y-64866710D03*
X202058102Y-64866710D03*
D40*
X127168886Y-61084774D03*
X127168886Y-63284774D03*
D29*
X273388766Y-65354296D03*
X275588766Y-65354296D03*
X22128000Y-91126000D03*
X19928000Y-91126000D03*
X124668886Y-69084774D03*
X126868886Y-69084774D03*
X161764538Y-69084774D03*
X159564538Y-69084774D03*
X51760190Y-69284774D03*
X53960190Y-69284774D03*
D40*
X111034928Y-69715362D03*
X111034928Y-71915362D03*
X37050000Y-41500000D03*
X37050000Y-43700000D03*
X36950000Y-45800000D03*
X36950000Y-48000000D03*
D29*
X62355842Y-69284774D03*
X60155842Y-69284774D03*
X78551494Y-69384774D03*
X80751494Y-69384774D03*
D40*
X46227546Y-63284774D03*
X46227546Y-61084774D03*
X69937311Y-61084774D03*
X69937311Y-63284774D03*
X101367468Y-63284774D03*
X101367468Y-61084774D03*
D29*
X138467489Y-65609269D03*
X136267489Y-65609269D03*
D40*
X162064538Y-63284774D03*
X162064538Y-61084774D03*
X54260190Y-61284774D03*
X54260190Y-63484774D03*
X62655842Y-63484774D03*
X62655842Y-61284774D03*
X81051494Y-61384774D03*
X81051494Y-63584774D03*
X93324076Y-63267412D03*
X93324076Y-61067412D03*
D29*
X35100000Y-55500000D03*
X32900000Y-55500000D03*
D40*
X29350000Y-187325000D03*
X29350000Y-185125000D03*
X27600000Y-158600000D03*
X27600000Y-160800000D03*
D29*
X98867468Y-69084774D03*
X101067468Y-69084774D03*
X22775000Y-179750000D03*
X24975000Y-179750000D03*
X67437311Y-69084774D03*
X69637311Y-69084774D03*
X35100000Y-53500000D03*
X32900000Y-53500000D03*
D40*
X78551494Y-73484774D03*
X78551494Y-71284774D03*
X60155842Y-71184774D03*
X60155842Y-73384774D03*
X51760190Y-73384774D03*
X51760190Y-71184774D03*
X159564538Y-73184774D03*
X159564538Y-70984774D03*
X124668886Y-70984774D03*
X124668886Y-73184774D03*
X98867468Y-73184774D03*
X98867468Y-70984774D03*
X69200000Y-71100000D03*
X69200000Y-73300000D03*
X45000000Y-73100000D03*
X45000000Y-70900000D03*
X31075000Y-187300000D03*
X31075000Y-185100000D03*
D29*
X243138701Y-65397747D03*
X245338701Y-65397747D03*
X43727546Y-69084774D03*
X45927546Y-69084774D03*
D40*
X170559692Y-70752744D03*
X170559692Y-72952744D03*
X178867423Y-73004559D03*
X178867423Y-70804559D03*
X189671304Y-70551292D03*
X189671304Y-72751292D03*
X199558102Y-72866710D03*
X199558102Y-70666710D03*
X213594564Y-63071992D03*
X213594564Y-60871992D03*
X225276208Y-60839784D03*
X225276208Y-63039784D03*
X90824076Y-70967412D03*
X90824076Y-73167412D03*
X280421221Y-73289171D03*
X280421221Y-71089171D03*
X236794694Y-63211662D03*
X236794694Y-61011662D03*
X148401116Y-73276546D03*
X148401116Y-71076546D03*
D52*
X30750000Y-157796400D03*
X30750000Y-164603600D03*
D53*
X113484928Y-66413082D03*
X111584928Y-66413082D03*
X112534928Y-69415362D03*
X137467489Y-71109269D03*
X136517489Y-68106989D03*
X138417489Y-68106989D03*
X93274076Y-67665132D03*
X91374076Y-67665132D03*
X92324076Y-70667412D03*
X79551494Y-63884774D03*
X80501494Y-66887054D03*
X78601494Y-66887054D03*
X60205842Y-66787054D03*
X62105842Y-66787054D03*
X61155842Y-63784774D03*
X52760190Y-63784774D03*
X53710190Y-66787054D03*
X51810190Y-66787054D03*
X159614538Y-66587054D03*
X161514538Y-66587054D03*
X160564538Y-63584774D03*
X125668886Y-63584774D03*
X126618886Y-66587054D03*
X124718886Y-66587054D03*
X98917468Y-66587054D03*
X100817468Y-66587054D03*
X99867468Y-63584774D03*
X68437311Y-63584774D03*
X69387311Y-66587054D03*
X67487311Y-66587054D03*
X36700000Y-38302280D03*
X38600000Y-38302280D03*
X37650000Y-35300000D03*
X44727546Y-63584774D03*
X45677546Y-66587054D03*
X43777546Y-66587054D03*
D54*
X37051140Y-51850000D03*
X37051140Y-49950000D03*
X34048860Y-50900000D03*
D53*
X180367423Y-70504559D03*
X179417423Y-67502279D03*
X181317423Y-67502279D03*
X275538766Y-67852016D03*
X273638766Y-67852016D03*
X274588766Y-70854296D03*
X266567015Y-70912031D03*
X265617015Y-67909751D03*
X267517015Y-67909751D03*
X256027445Y-67766795D03*
X254127445Y-67766795D03*
X255077445Y-70769075D03*
X244338701Y-70897747D03*
X243388701Y-67895467D03*
X245288701Y-67895467D03*
X236744694Y-67609382D03*
X234844694Y-67609382D03*
X235794694Y-70611662D03*
X224276208Y-70439784D03*
X223326208Y-67437504D03*
X225226208Y-67437504D03*
X213544564Y-67469712D03*
X211644564Y-67469712D03*
X212594564Y-70471992D03*
X201058102Y-70366710D03*
X200108102Y-67364430D03*
X202008102Y-67364430D03*
X192121304Y-67249012D03*
X190221304Y-67249012D03*
X191171304Y-70251292D03*
X172059692Y-70452744D03*
X171109692Y-67450464D03*
X173009692Y-67450464D03*
X150851116Y-67774266D03*
X148951116Y-67774266D03*
X149901116Y-70776546D03*
X281921221Y-70789171D03*
X280971221Y-67786891D03*
X282871221Y-67786891D03*
D55*
X18849500Y-163000000D03*
D10*
G36*
X18274850Y-161799240D02*
X19424150Y-162299620D01*
X19424150Y-163700380D01*
X18274850Y-164200760D01*
X18274850Y-161799240D01*
X18274850Y-161799240D01*
G37*
D56*
X16500000Y-163000000D03*
D57*
X20452240Y-161498860D03*
X20452240Y-163000000D03*
X20452240Y-164501140D03*
D58*
X33000000Y-75500000D03*
D59*
X30500000Y-75500000D03*
X29050000Y-82850000D03*
D58*
X26550000Y-82850000D03*
X33800000Y-68350000D03*
D59*
X31300000Y-68350000D03*
X19400000Y-85025000D03*
D58*
X21900000Y-85025000D03*
X35230000Y-61090000D03*
D59*
X32730000Y-61090000D03*
D60*
X29250000Y-125225000D03*
X29250000Y-127025000D03*
D61*
X30325000Y-120950000D03*
X32125000Y-120950000D03*
D60*
X28625000Y-105450000D03*
X28625000Y-107250000D03*
D50*
X253045000Y-109700000D03*
X253045000Y-103700000D03*
X251775000Y-109700000D03*
X251775000Y-103700000D03*
X250505000Y-109700000D03*
X250505000Y-103700000D03*
X249235000Y-109700000D03*
X249235000Y-103700000D03*
X247965000Y-109700000D03*
X247965000Y-103700000D03*
X246695000Y-109700000D03*
X246695000Y-103700000D03*
X245425000Y-109700000D03*
X245425000Y-103700000D03*
X244155000Y-109700000D03*
X244155000Y-103700000D03*
X86040000Y-109800000D03*
X86040000Y-103800000D03*
X84770000Y-109800000D03*
X84770000Y-103800000D03*
X83500000Y-109800000D03*
X83500000Y-103800000D03*
X82230000Y-109800000D03*
X82230000Y-103800000D03*
X80960000Y-109800000D03*
X80960000Y-103800000D03*
X79690000Y-109800000D03*
X79690000Y-103800000D03*
X78420000Y-109800000D03*
X78420000Y-103800000D03*
X77150000Y-109800000D03*
X77150000Y-103800000D03*
D29*
X272550000Y-38300000D03*
X270350000Y-38300000D03*
D24*
X270350000Y-36450000D03*
X272250000Y-36450000D03*
D44*
X267550000Y-47525000D03*
X274150000Y-47525000D03*
X267550000Y-46875000D03*
X274150000Y-46875000D03*
X267550000Y-46225000D03*
X274150000Y-46225000D03*
X267550000Y-45575000D03*
X274150000Y-45575000D03*
X267550000Y-44925000D03*
X274150000Y-44925000D03*
X267550000Y-44275000D03*
X274150000Y-44275000D03*
X267550000Y-43625000D03*
X274150000Y-43625000D03*
X267550000Y-42975000D03*
X274150000Y-42975000D03*
X267550000Y-42325000D03*
X274150000Y-42325000D03*
X267550000Y-41675000D03*
X274150000Y-41675000D03*
X267550000Y-41025000D03*
X274150000Y-41025000D03*
X267550000Y-40375000D03*
X274150000Y-40375000D03*
D29*
X239550000Y-38300000D03*
X241750000Y-38300000D03*
D24*
X241450000Y-36450000D03*
X239550000Y-36450000D03*
D44*
X243350000Y-40375000D03*
X236750000Y-40375000D03*
X243350000Y-41025000D03*
X236750000Y-41025000D03*
X243350000Y-41675000D03*
X236750000Y-41675000D03*
X243350000Y-42325000D03*
X236750000Y-42325000D03*
X243350000Y-42975000D03*
X236750000Y-42975000D03*
X243350000Y-43625000D03*
X236750000Y-43625000D03*
X243350000Y-44275000D03*
X236750000Y-44275000D03*
X243350000Y-44925000D03*
X236750000Y-44925000D03*
X243350000Y-45575000D03*
X236750000Y-45575000D03*
X243350000Y-46225000D03*
X236750000Y-46225000D03*
X243350000Y-46875000D03*
X236750000Y-46875000D03*
X243350000Y-47525000D03*
X236750000Y-47525000D03*
D29*
X210950000Y-38300000D03*
X208750000Y-38300000D03*
D24*
X208750000Y-36450000D03*
X210650000Y-36450000D03*
D44*
X205950000Y-47525000D03*
X212550000Y-47525000D03*
X205950000Y-46875000D03*
X212550000Y-46875000D03*
X205950000Y-46225000D03*
X212550000Y-46225000D03*
X205950000Y-45575000D03*
X212550000Y-45575000D03*
X205950000Y-44925000D03*
X212550000Y-44925000D03*
X205950000Y-44275000D03*
X212550000Y-44275000D03*
X205950000Y-43625000D03*
X212550000Y-43625000D03*
X205950000Y-42975000D03*
X212550000Y-42975000D03*
X205950000Y-42325000D03*
X212550000Y-42325000D03*
X205950000Y-41675000D03*
X212550000Y-41675000D03*
X205950000Y-41025000D03*
X212550000Y-41025000D03*
X205950000Y-40375000D03*
X212550000Y-40375000D03*
D29*
X177950000Y-38300000D03*
X180150000Y-38300000D03*
D24*
X179850000Y-36450000D03*
X177950000Y-36450000D03*
D44*
X181750000Y-40375000D03*
X175150000Y-40375000D03*
X181750000Y-41025000D03*
X175150000Y-41025000D03*
X181750000Y-41675000D03*
X175150000Y-41675000D03*
X181750000Y-42325000D03*
X175150000Y-42325000D03*
X181750000Y-42975000D03*
X175150000Y-42975000D03*
X181750000Y-43625000D03*
X175150000Y-43625000D03*
X181750000Y-44275000D03*
X175150000Y-44275000D03*
X181750000Y-44925000D03*
X175150000Y-44925000D03*
X181750000Y-45575000D03*
X175150000Y-45575000D03*
X181750000Y-46225000D03*
X175150000Y-46225000D03*
X181750000Y-46875000D03*
X175150000Y-46875000D03*
X181750000Y-47525000D03*
X175150000Y-47525000D03*
D29*
X147150000Y-38300000D03*
X149350000Y-38300000D03*
D44*
X150950000Y-40375000D03*
X144350000Y-40375000D03*
X150950000Y-41025000D03*
X144350000Y-41025000D03*
X150950000Y-41675000D03*
X144350000Y-41675000D03*
X150950000Y-42325000D03*
X144350000Y-42325000D03*
X150950000Y-42975000D03*
X144350000Y-42975000D03*
X150950000Y-43625000D03*
X144350000Y-43625000D03*
X150950000Y-44275000D03*
X144350000Y-44275000D03*
X150950000Y-44925000D03*
X144350000Y-44925000D03*
X150950000Y-45575000D03*
X144350000Y-45575000D03*
X150950000Y-46225000D03*
X144350000Y-46225000D03*
X150950000Y-46875000D03*
X144350000Y-46875000D03*
X150950000Y-47525000D03*
X144350000Y-47525000D03*
D24*
X149050000Y-36450000D03*
X147150000Y-36450000D03*
D29*
X118550000Y-38300000D03*
X116350000Y-38300000D03*
D44*
X113550000Y-47525000D03*
X120150000Y-47525000D03*
X113550000Y-46875000D03*
X120150000Y-46875000D03*
X113550000Y-46225000D03*
X120150000Y-46225000D03*
X113550000Y-45575000D03*
X120150000Y-45575000D03*
X113550000Y-44925000D03*
X120150000Y-44925000D03*
X113550000Y-44275000D03*
X120150000Y-44275000D03*
X113550000Y-43625000D03*
X120150000Y-43625000D03*
X113550000Y-42975000D03*
X120150000Y-42975000D03*
X113550000Y-42325000D03*
X120150000Y-42325000D03*
X113550000Y-41675000D03*
X120150000Y-41675000D03*
X113550000Y-41025000D03*
X120150000Y-41025000D03*
X113550000Y-40375000D03*
X120150000Y-40375000D03*
D24*
X116350000Y-36450000D03*
X118250000Y-36450000D03*
D29*
X85550000Y-38300000D03*
X87750000Y-38300000D03*
D44*
X89350000Y-40375000D03*
X82750000Y-40375000D03*
X89350000Y-41025000D03*
X82750000Y-41025000D03*
X89350000Y-41675000D03*
X82750000Y-41675000D03*
X89350000Y-42325000D03*
X82750000Y-42325000D03*
X89350000Y-42975000D03*
X82750000Y-42975000D03*
X89350000Y-43625000D03*
X82750000Y-43625000D03*
X89350000Y-44275000D03*
X82750000Y-44275000D03*
X89350000Y-44925000D03*
X82750000Y-44925000D03*
X89350000Y-45575000D03*
X82750000Y-45575000D03*
X89350000Y-46225000D03*
X82750000Y-46225000D03*
X89350000Y-46875000D03*
X82750000Y-46875000D03*
X89350000Y-47525000D03*
X82750000Y-47525000D03*
D24*
X87450000Y-36450000D03*
X85550000Y-36450000D03*
D29*
X54750000Y-38300000D03*
X56950000Y-38300000D03*
D45*
X29750000Y-172500000D03*
X34750000Y-172500000D03*
X32250000Y-175000000D03*
X32250000Y-170000000D03*
D46*
X32250000Y-172500000D03*
D24*
X56650000Y-36450000D03*
X54750000Y-36450000D03*
D62*
X25060000Y-195200000D03*
D63*
X27600000Y-195200000D03*
D40*
X19750000Y-54500000D03*
X19750000Y-52300000D03*
X17650000Y-22600000D03*
X17650000Y-24800000D03*
D29*
X23150000Y-28500000D03*
X25350000Y-28500000D03*
D40*
X15850000Y-24800000D03*
X15850000Y-22600000D03*
X19850000Y-28025000D03*
X19850000Y-25825000D03*
X28300000Y-55300000D03*
X28300000Y-53100000D03*
X26500000Y-53100000D03*
X26500000Y-55300000D03*
X30100000Y-54500000D03*
X30100000Y-52300000D03*
X23050000Y-54500000D03*
X23050000Y-52300000D03*
X21400000Y-52300000D03*
X21400000Y-54500000D03*
X24700000Y-54500000D03*
X24700000Y-52300000D03*
D64*
X23436000Y-77900000D03*
D65*
X21150000Y-71550000D03*
D64*
X18864000Y-77900000D03*
D15*
X22000000Y-182500000D03*
D14*
X22000000Y-185040000D03*
X22000000Y-187580000D03*
X22000000Y-190120000D03*
X22000000Y-192660000D03*
X22000000Y-195200000D03*
D66*
X17500000Y-187675000D03*
X16200000Y-187675000D03*
X17500000Y-183325000D03*
X16200000Y-183325000D03*
X18950000Y-186075000D03*
X18950000Y-184875000D03*
X14650000Y-184875000D03*
X14650000Y-186075000D03*
D67*
X16352512Y-184274101D03*
D10*
G36*
X16820454Y-183052000D02*
X16993225Y-185036982D01*
X16438897Y-185266592D01*
X15157471Y-183740831D01*
X16820454Y-183052000D01*
X16820454Y-183052000D01*
G37*
D67*
X17347488Y-186676187D03*
D10*
G36*
X16879546Y-187898288D02*
X16706775Y-185913306D01*
X17261103Y-185683696D01*
X18542529Y-187209457D01*
X16879546Y-187898288D01*
X16879546Y-187898288D01*
G37*
D67*
X15648956Y-184977655D03*
D10*
G36*
X15115686Y-183782614D02*
X16641447Y-185064040D01*
X16411837Y-185618368D01*
X14426855Y-185445597D01*
X15115686Y-183782614D01*
X15115686Y-183782614D01*
G37*
D67*
X18051044Y-185972633D03*
D10*
G36*
X18584314Y-187167674D02*
X17058553Y-185886248D01*
X17288163Y-185331920D01*
X19273145Y-185504691D01*
X18584314Y-187167674D01*
X18584314Y-187167674D01*
G37*
D67*
X15648957Y-185972632D03*
D10*
G36*
X14426856Y-185504690D02*
X16411838Y-185331919D01*
X16641448Y-185886247D01*
X15115687Y-187167673D01*
X14426856Y-185504690D01*
X14426856Y-185504690D01*
G37*
D67*
X18051043Y-184977656D03*
D10*
G36*
X19273144Y-185445598D02*
X17288162Y-185618369D01*
X17058552Y-185064041D01*
X18584313Y-183782615D01*
X19273144Y-185445598D01*
X19273144Y-185445598D01*
G37*
D67*
X16352511Y-186676188D03*
D10*
G36*
X15157470Y-187209458D02*
X16438896Y-185683697D01*
X16993224Y-185913307D01*
X16820453Y-187898289D01*
X15157470Y-187209458D01*
X15157470Y-187209458D01*
G37*
D67*
X17347489Y-184274100D03*
D10*
G36*
X18542530Y-183740830D02*
X17261104Y-185266591D01*
X16706776Y-185036981D01*
X16879547Y-183051999D01*
X18542530Y-183740830D01*
X18542530Y-183740830D01*
G37*
D68*
X24560000Y-182000000D03*
X27100000Y-182000000D03*
X29640000Y-182000000D03*
D44*
X58550000Y-40375000D03*
X51950000Y-40375000D03*
X58550000Y-41025000D03*
X51950000Y-41025000D03*
X58550000Y-41675000D03*
X51950000Y-41675000D03*
X58550000Y-42325000D03*
X51950000Y-42325000D03*
X58550000Y-42975000D03*
X51950000Y-42975000D03*
X58550000Y-43625000D03*
X51950000Y-43625000D03*
X58550000Y-44275000D03*
X51950000Y-44275000D03*
X58550000Y-44925000D03*
X51950000Y-44925000D03*
X58550000Y-45575000D03*
X51950000Y-45575000D03*
X58550000Y-46225000D03*
X51950000Y-46225000D03*
X58550000Y-46875000D03*
X51950000Y-46875000D03*
X58550000Y-47525000D03*
X51950000Y-47525000D03*
D69*
X18500000Y-50000000D03*
X20000000Y-50000000D03*
X21500000Y-50000000D03*
X23000000Y-50000000D03*
X24500000Y-50000000D03*
X26000000Y-50000000D03*
X27500000Y-50000000D03*
X29000000Y-50000000D03*
X30500000Y-50000000D03*
X30500000Y-32000000D03*
X29000000Y-32000000D03*
X27500000Y-32000000D03*
X26000000Y-32000000D03*
X24500000Y-32000000D03*
X23000000Y-32000000D03*
X21500000Y-32000000D03*
X20000000Y-32000000D03*
X18500000Y-32000000D03*
D70*
X25132000Y-39934000D03*
M02*
