G04 #@! TF.GenerationSoftware,KiCad,Pcbnew,no-vcs-found-1e87ae6~58~ubuntu14.04.1*
G04 #@! TF.CreationDate,2017-07-03T13:26:03+09:00*
G04 #@! TF.ProjectId,dotmatrix_64x48,646F746D61747269785F36347834382E,rev?*
G04 #@! TF.SameCoordinates,Original
G04 #@! TF.FileFunction,Soldermask,Top*
G04 #@! TF.FilePolarity,Negative*
%FSLAX46Y46*%
G04 Gerber Fmt 4.6, Leading zero omitted, Abs format (unit mm)*
G04 Created by KiCad (PCBNEW no-vcs-found-1e87ae6~58~ubuntu14.04.1) date Mon Jul  3 13:26:03 2017*
%MOMM*%
%LPD*%
G01*
G04 APERTURE LIST*
%ADD10C,0.100000*%
%ADD11C,0.800000*%
%ADD12C,6.900000*%
%ADD13C,1.400000*%
%ADD14R,1.300000X1.600000*%
%ADD15C,1.000000*%
%ADD16O,2.900000X1.400000*%
%ADD17R,1.600000X1.150000*%
%ADD18R,1.600000X1.300000*%
%ADD19C,1.900000*%
%ADD20R,1.150000X1.600000*%
%ADD21R,2.800000X3.600000*%
%ADD22R,2.600000X2.600000*%
%ADD23R,2.800000X2.800000*%
%ADD24C,1.600000*%
%ADD25R,2.100000X2.100000*%
%ADD26O,2.100000X2.100000*%
%ADD27R,1.800000X0.715000*%
%ADD28O,2.400000X1.200000*%
%ADD29R,2.900000X2.900000*%
%ADD30R,1.600000X0.650000*%
%ADD31R,0.650000X1.600000*%
%ADD32O,2.152400X4.152400*%
%ADD33O,2.152400X2.152400*%
%ADD34C,2.152400*%
%ADD35O,1.752400X2.152400*%
%ADD36O,2.052400X2.152400*%
%ADD37O,1.752400X3.152400*%
%ADD38R,2.900000X2.400000*%
%ADD39R,2.635200X2.635200*%
%ADD40R,1.200000X1.100000*%
%ADD41R,1.500000X0.900000*%
%ADD42R,5.800040X4.400000*%
%ADD43O,2.152400X1.752400*%
%ADD44R,2.900000X2.600000*%
%ADD45O,2.400000X1.700000*%
%ADD46R,2.400000X1.700000*%
%ADD47C,1.800000*%
%ADD48C,7.900000*%
%ADD49R,3.900120X3.900120*%
%ADD50R,1.900000X2.599640*%
%ADD51R,1.000000X2.600000*%
%ADD52R,2.432000X2.127200*%
%ADD53O,2.432000X2.127200*%
%ADD54R,3.900000X3.900000*%
%ADD55R,1.200100X2.200860*%
%ADD56C,1.149300*%
%ADD57R,4.400500X2.398980*%
%ADD58R,2.901900X1.400760*%
%ADD59O,1.700000X2.400000*%
%ADD60R,1.700000X2.400000*%
%ADD61R,1.100000X1.400000*%
%ADD62R,1.400000X1.100000*%
%ADD63C,2.400000*%
%ADD64R,2.400000X2.400000*%
%ADD65R,2.051000X3.448000*%
%ADD66R,6.496000X6.496000*%
%ADD67C,1.200000*%
%ADD68C,1.142782*%
%ADD69R,1.676400X2.652400*%
%ADD70R,1.300000X2.400000*%
%ADD71R,4.200000X4.300000*%
G04 APERTURE END LIST*
D10*
D11*
X63725000Y-43700000D03*
X282025000Y-128975000D03*
X253675000Y-110350000D03*
X222475000Y-93275000D03*
X191175000Y-82500000D03*
X161475000Y-75800000D03*
X132625000Y-58925000D03*
X98525000Y-54975000D03*
D12*
X17000000Y-193000000D03*
D13*
X17000000Y-190500000D03*
X17000000Y-195500000D03*
X19500000Y-193000000D03*
X14500000Y-193000000D03*
X290500000Y-193000000D03*
X295500000Y-193000000D03*
X293000000Y-195500000D03*
X293000000Y-190500000D03*
D12*
X293000000Y-193000000D03*
X293000000Y-17000000D03*
D13*
X293000000Y-14500000D03*
X293000000Y-19500000D03*
X295500000Y-17000000D03*
X290500000Y-17000000D03*
D14*
X27650000Y-186775000D03*
X27650000Y-184575000D03*
D11*
X136825000Y-163400000D03*
X88125000Y-135225000D03*
X93100000Y-127975000D03*
D15*
X212525000Y-189575000D03*
D11*
X14275000Y-117225000D03*
X231225000Y-110725000D03*
X50975000Y-47125000D03*
X51975000Y-46050000D03*
X53075000Y-45025000D03*
X78400000Y-57925000D03*
X79650000Y-57375000D03*
X80325000Y-56150000D03*
X108300000Y-60200000D03*
X109675000Y-59650000D03*
X110975000Y-60625000D03*
X138025000Y-77325000D03*
X138425000Y-75925000D03*
X139300000Y-74675000D03*
X171750000Y-84725000D03*
X171250000Y-82100000D03*
X172575000Y-81875000D03*
X203125000Y-93375000D03*
X201575000Y-93450000D03*
X202350000Y-95475000D03*
X233175000Y-110400000D03*
X233875000Y-109050000D03*
X263550000Y-126025000D03*
X263200000Y-124350000D03*
X264625000Y-124600000D03*
D15*
X276375000Y-90150000D03*
D11*
X275125000Y-88625000D03*
D16*
X302500000Y-155000000D03*
X302500000Y-55000000D03*
X302500000Y-105000000D03*
D17*
X16540000Y-135420000D03*
X14640000Y-135420000D03*
D14*
X280000000Y-82340000D03*
X280000000Y-84540000D03*
X279980000Y-87410000D03*
X279980000Y-89610000D03*
D18*
X208810000Y-191200000D03*
X211010000Y-191200000D03*
D14*
X203210000Y-187480000D03*
X203210000Y-185280000D03*
D18*
X261630000Y-94000000D03*
X263830000Y-94000000D03*
X274540000Y-89840000D03*
X272340000Y-89840000D03*
D14*
X71750000Y-99250000D03*
X71750000Y-97050000D03*
D19*
X112250000Y-55000000D03*
X204500000Y-82000000D03*
X81590000Y-47580000D03*
X173500000Y-74250000D03*
X54425000Y-43750000D03*
X278210000Y-132550000D03*
X134420000Y-62760000D03*
X266250000Y-109000000D03*
X274000000Y-97500000D03*
X235500000Y-93500000D03*
X207020000Y-186080000D03*
X131910000Y-155030000D03*
D20*
X19137790Y-125626770D03*
X19137790Y-127526770D03*
D21*
X13500000Y-129600000D03*
D22*
X16650000Y-133000000D03*
X16650000Y-126200000D03*
D23*
X13450000Y-133000000D03*
X13450000Y-126200000D03*
D24*
X15600000Y-131550000D03*
X15600000Y-127650000D03*
D25*
X33980000Y-51240000D03*
D26*
X33980000Y-48700000D03*
X33980000Y-46160000D03*
X33980000Y-43620000D03*
X33980000Y-41080000D03*
X33980000Y-38540000D03*
X33980000Y-36000000D03*
X33980000Y-33460000D03*
X22300000Y-126820000D03*
X22300000Y-129360000D03*
X22300000Y-131900000D03*
X22300000Y-134440000D03*
X22300000Y-136980000D03*
X22300000Y-139520000D03*
X22300000Y-142060000D03*
D25*
X22300000Y-144600000D03*
D18*
X23990000Y-16380000D03*
X21790000Y-16380000D03*
D27*
X29500000Y-25750000D03*
X29500000Y-25075000D03*
X29500000Y-26450000D03*
X29500000Y-24425000D03*
X22900000Y-26375000D03*
X29500000Y-23775000D03*
X22900000Y-25725000D03*
X29500000Y-23125000D03*
X22900000Y-25075000D03*
X29500000Y-22475000D03*
X22900000Y-24425000D03*
X29500000Y-21825000D03*
X22900000Y-23775000D03*
X29500000Y-21175000D03*
X22900000Y-23125000D03*
X29500000Y-20525000D03*
X22900000Y-22475000D03*
X22900000Y-21825000D03*
X22900000Y-21175000D03*
X22900000Y-20525000D03*
X266450000Y-131225000D03*
X273050000Y-131225000D03*
X266450000Y-130575000D03*
X273050000Y-130575000D03*
X266450000Y-129925000D03*
X273050000Y-129925000D03*
X266450000Y-129275000D03*
X273050000Y-129275000D03*
X266450000Y-128625000D03*
X273050000Y-128625000D03*
X266450000Y-127975000D03*
X273050000Y-127975000D03*
X266450000Y-127325000D03*
X273050000Y-127325000D03*
X266450000Y-126675000D03*
X273050000Y-126675000D03*
X266450000Y-126025000D03*
X273050000Y-126025000D03*
X266450000Y-125375000D03*
X273050000Y-125375000D03*
X266450000Y-124725000D03*
X273050000Y-124725000D03*
X266450000Y-124075000D03*
X273050000Y-124075000D03*
X235650000Y-116525000D03*
X242250000Y-116525000D03*
X235650000Y-115875000D03*
X242250000Y-115875000D03*
X235650000Y-115225000D03*
X242250000Y-115225000D03*
X235650000Y-114575000D03*
X242250000Y-114575000D03*
X235650000Y-113925000D03*
X242250000Y-113925000D03*
X235650000Y-113275000D03*
X242250000Y-113275000D03*
X235650000Y-112625000D03*
X242250000Y-112625000D03*
X235650000Y-111975000D03*
X242250000Y-111975000D03*
X235650000Y-111325000D03*
X242250000Y-111325000D03*
X235650000Y-110675000D03*
X242250000Y-110675000D03*
X235650000Y-110025000D03*
X242250000Y-110025000D03*
X235650000Y-109375000D03*
X242250000Y-109375000D03*
X205050000Y-100825000D03*
X211650000Y-100825000D03*
X205050000Y-100175000D03*
X211650000Y-100175000D03*
X205050000Y-99525000D03*
X211650000Y-99525000D03*
X205050000Y-98875000D03*
X211650000Y-98875000D03*
X205050000Y-98225000D03*
X211650000Y-98225000D03*
X205050000Y-97575000D03*
X211650000Y-97575000D03*
X205050000Y-96925000D03*
X211650000Y-96925000D03*
X205050000Y-96275000D03*
X211650000Y-96275000D03*
X205050000Y-95625000D03*
X211650000Y-95625000D03*
X205050000Y-94975000D03*
X211650000Y-94975000D03*
X205050000Y-94325000D03*
X211650000Y-94325000D03*
X205050000Y-93675000D03*
X211650000Y-93675000D03*
X173950000Y-90225000D03*
X180550000Y-90225000D03*
X173950000Y-89575000D03*
X180550000Y-89575000D03*
X173950000Y-88925000D03*
X180550000Y-88925000D03*
X173950000Y-88275000D03*
X180550000Y-88275000D03*
X173950000Y-87625000D03*
X180550000Y-87625000D03*
X173950000Y-86975000D03*
X180550000Y-86975000D03*
X173950000Y-86325000D03*
X180550000Y-86325000D03*
X173950000Y-85675000D03*
X180550000Y-85675000D03*
X173950000Y-85025000D03*
X180550000Y-85025000D03*
X173950000Y-84375000D03*
X180550000Y-84375000D03*
X173950000Y-83725000D03*
X180550000Y-83725000D03*
X173950000Y-83075000D03*
X180550000Y-83075000D03*
X143250000Y-81625000D03*
X149850000Y-81625000D03*
X143250000Y-80975000D03*
X149850000Y-80975000D03*
X143250000Y-80325000D03*
X149850000Y-80325000D03*
X143250000Y-79675000D03*
X149850000Y-79675000D03*
X143250000Y-79025000D03*
X149850000Y-79025000D03*
X143250000Y-78375000D03*
X149850000Y-78375000D03*
X143250000Y-77725000D03*
X149850000Y-77725000D03*
X143250000Y-77075000D03*
X149850000Y-77075000D03*
X143250000Y-76425000D03*
X149850000Y-76425000D03*
X143250000Y-75775000D03*
X149850000Y-75775000D03*
X143250000Y-75125000D03*
X149850000Y-75125000D03*
X143250000Y-74475000D03*
X149850000Y-74475000D03*
X112750000Y-68725000D03*
X119350000Y-68725000D03*
X112750000Y-68075000D03*
X119350000Y-68075000D03*
X112750000Y-67425000D03*
X119350000Y-67425000D03*
X112750000Y-66775000D03*
X119350000Y-66775000D03*
X112750000Y-66125000D03*
X119350000Y-66125000D03*
X112750000Y-65475000D03*
X119350000Y-65475000D03*
X112750000Y-64825000D03*
X119350000Y-64825000D03*
X112750000Y-64175000D03*
X119350000Y-64175000D03*
X112750000Y-63525000D03*
X119350000Y-63525000D03*
X112750000Y-62875000D03*
X119350000Y-62875000D03*
X112750000Y-62225000D03*
X119350000Y-62225000D03*
X112750000Y-61575000D03*
X119350000Y-61575000D03*
X82950000Y-62325000D03*
X89550000Y-62325000D03*
X82950000Y-61675000D03*
X89550000Y-61675000D03*
X82950000Y-61025000D03*
X89550000Y-61025000D03*
X82950000Y-60375000D03*
X89550000Y-60375000D03*
X82950000Y-59725000D03*
X89550000Y-59725000D03*
X82950000Y-59075000D03*
X89550000Y-59075000D03*
X82950000Y-58425000D03*
X89550000Y-58425000D03*
X82950000Y-57775000D03*
X89550000Y-57775000D03*
X82950000Y-57125000D03*
X89550000Y-57125000D03*
X82950000Y-56475000D03*
X89550000Y-56475000D03*
X82950000Y-55825000D03*
X89550000Y-55825000D03*
X82950000Y-55175000D03*
X89550000Y-55175000D03*
X54850000Y-52225000D03*
X61450000Y-52225000D03*
X54850000Y-51575000D03*
X61450000Y-51575000D03*
X54850000Y-50925000D03*
X61450000Y-50925000D03*
X54850000Y-50275000D03*
X61450000Y-50275000D03*
X54850000Y-49625000D03*
X61450000Y-49625000D03*
X54850000Y-48975000D03*
X61450000Y-48975000D03*
X54850000Y-48325000D03*
X61450000Y-48325000D03*
X54850000Y-47675000D03*
X61450000Y-47675000D03*
X54850000Y-47025000D03*
X61450000Y-47025000D03*
X54850000Y-46375000D03*
X61450000Y-46375000D03*
X54850000Y-45725000D03*
X61450000Y-45725000D03*
X54850000Y-45075000D03*
X61450000Y-45075000D03*
D28*
X306500000Y-195450000D03*
X306500000Y-191600000D03*
X306500000Y-187750000D03*
X306500000Y-183900000D03*
X306500000Y-180050000D03*
X306500000Y-176200000D03*
X306500000Y-172350000D03*
X306500000Y-168500000D03*
X306500000Y-164650000D03*
X306500000Y-160800000D03*
X306500000Y-156950000D03*
X306500000Y-153100000D03*
X306500000Y-149250000D03*
X306500000Y-145400000D03*
X306500000Y-141550000D03*
X306500000Y-137700000D03*
X306500000Y-133850000D03*
X306500000Y-130000000D03*
X306500000Y-126150000D03*
X306500000Y-122300000D03*
X306500000Y-118450000D03*
X306500000Y-114600000D03*
X306500000Y-110750000D03*
X306500000Y-106900000D03*
X306500000Y-103050000D03*
X306500000Y-99200000D03*
X306500000Y-95350000D03*
X306500000Y-91500000D03*
X306500000Y-87650000D03*
X306500000Y-83800000D03*
X306500000Y-79950000D03*
X306500000Y-76100000D03*
X306500000Y-72250000D03*
X306500000Y-68400000D03*
X306500000Y-64550000D03*
X306500000Y-60700000D03*
X306500000Y-56850000D03*
X306500000Y-53000000D03*
X306500000Y-49150000D03*
X306500000Y-45300000D03*
X306500000Y-41450000D03*
X306500000Y-37600000D03*
X306500000Y-33750000D03*
X306500000Y-29900000D03*
X306500000Y-26050000D03*
X306500000Y-22200000D03*
X306500000Y-18350000D03*
X306500000Y-14500000D03*
D20*
X20087790Y-127526770D03*
X20087790Y-125626770D03*
D29*
X16910000Y-142370000D03*
D30*
X19210000Y-141120000D03*
X19210000Y-141620000D03*
X19210000Y-142120000D03*
X19210000Y-142620000D03*
X19210000Y-143120000D03*
X19210000Y-143620000D03*
D31*
X18160000Y-144670000D03*
X17660000Y-144670000D03*
X17160000Y-144670000D03*
X16660000Y-144670000D03*
X16160000Y-144670000D03*
X15660000Y-144670000D03*
D30*
X14610000Y-143620000D03*
X14610000Y-143120000D03*
X14610000Y-142620000D03*
X14610000Y-142120000D03*
X14610000Y-141620000D03*
X14610000Y-141120000D03*
D31*
X15660000Y-140070000D03*
X16160000Y-140070000D03*
X16660000Y-140070000D03*
X17160000Y-140070000D03*
X17660000Y-140070000D03*
X18160000Y-140070000D03*
D32*
X35775000Y-118685000D03*
D33*
X36100000Y-125300000D03*
D34*
X35800000Y-120220000D03*
D35*
X36700000Y-146960000D03*
D36*
X36700000Y-149500000D03*
D37*
X36700000Y-145220000D03*
D38*
X26625000Y-160600000D03*
X26625000Y-164000000D03*
D39*
X35800000Y-23000000D03*
D40*
X13200000Y-137750000D03*
D41*
X13200000Y-137950000D03*
X13200000Y-139050000D03*
D40*
X13200000Y-139250000D03*
D42*
X35400000Y-141100000D03*
X35400000Y-128900000D03*
D43*
X25500000Y-87700000D03*
X25500000Y-92200000D03*
X19000000Y-92200000D03*
X19000000Y-87700000D03*
X15850000Y-115500000D03*
X15850000Y-120000000D03*
X22350000Y-120000000D03*
X22350000Y-115500000D03*
D35*
X21350000Y-99500000D03*
X16850000Y-99500000D03*
X16850000Y-106000000D03*
X21350000Y-106000000D03*
X28851641Y-104509083D03*
X24351641Y-104509083D03*
X24351641Y-111009083D03*
X28851641Y-111009083D03*
X28851641Y-94509083D03*
X24351641Y-94509083D03*
X24351641Y-101009083D03*
X28851641Y-101009083D03*
X36350000Y-99500000D03*
X31850000Y-99500000D03*
X31850000Y-106000000D03*
X36350000Y-106000000D03*
D43*
X34700000Y-87700000D03*
X34700000Y-92200000D03*
X28200000Y-92200000D03*
X28200000Y-87700000D03*
X32110000Y-120020000D03*
X32110000Y-115520000D03*
X25610000Y-115520000D03*
X25610000Y-120020000D03*
D17*
X24375000Y-60200000D03*
X22475000Y-60200000D03*
X35950000Y-170750000D03*
X34050000Y-170750000D03*
D18*
X20600000Y-58600000D03*
X22800000Y-58600000D03*
D44*
X17300000Y-154000000D03*
X15000000Y-151500000D03*
X19900000Y-151500000D03*
D18*
X29950000Y-172100000D03*
X32150000Y-172100000D03*
X27425000Y-177375000D03*
X29625000Y-177375000D03*
D45*
X36250000Y-178350000D03*
D46*
X36250000Y-175850000D03*
D47*
X282000000Y-193000000D03*
D24*
X280400000Y-193275000D03*
X283550000Y-193475000D03*
X278950000Y-193200000D03*
X285050000Y-193250000D03*
D48*
X282000000Y-193000000D03*
D47*
X282000000Y-17000000D03*
D24*
X280400000Y-16725000D03*
X283525000Y-16925000D03*
X279000000Y-17000000D03*
X285000000Y-17000000D03*
D48*
X282000000Y-17000000D03*
D39*
X36600000Y-94600000D03*
D14*
X13350000Y-65975000D03*
X13350000Y-63775000D03*
D13*
X14500000Y-17000000D03*
X19500000Y-17000000D03*
X17000000Y-19500000D03*
X17000000Y-14500000D03*
D12*
X17000000Y-17000000D03*
D17*
X27375000Y-19150000D03*
X25475000Y-19150000D03*
X33150000Y-194400000D03*
X31250000Y-194400000D03*
D49*
X19601720Y-168699000D03*
X16601980Y-164000000D03*
X22601460Y-164000000D03*
D14*
X71490000Y-130680000D03*
X71490000Y-132880000D03*
D18*
X25175000Y-157575000D03*
X22975000Y-157575000D03*
D50*
X37650000Y-159273440D03*
X34650000Y-159273440D03*
X37650000Y-152175000D03*
X34650000Y-152175000D03*
D18*
X31700000Y-183625000D03*
X29500000Y-183625000D03*
X31700000Y-185200000D03*
X29500000Y-185200000D03*
X31700000Y-186800000D03*
X29500000Y-186800000D03*
D51*
X134555000Y-148000000D03*
X134555000Y-154000000D03*
X135825000Y-148000000D03*
X135825000Y-154000000D03*
X137095000Y-148000000D03*
X137095000Y-154000000D03*
X138365000Y-148000000D03*
X138365000Y-154000000D03*
X139635000Y-148000000D03*
X139635000Y-154000000D03*
X140905000Y-148000000D03*
X140905000Y-154000000D03*
X142175000Y-148000000D03*
X142175000Y-154000000D03*
X143445000Y-148000000D03*
X143445000Y-154000000D03*
D20*
X256799165Y-139101977D03*
X256799165Y-141001977D03*
X262077932Y-159112806D03*
X262077932Y-157212806D03*
D17*
X25475000Y-17925000D03*
X27375000Y-17925000D03*
D20*
X26000000Y-186550000D03*
X26000000Y-184650000D03*
X134531664Y-106892708D03*
X134531664Y-108792708D03*
D17*
X24925000Y-155925000D03*
X23025000Y-155925000D03*
D20*
X23000000Y-154150000D03*
X23000000Y-152250000D03*
X248432138Y-157089946D03*
X248432138Y-158989946D03*
X73090000Y-130800000D03*
X73090000Y-128900000D03*
X133070000Y-148940000D03*
X133070000Y-150840000D03*
X206700000Y-180400000D03*
X206700000Y-178500000D03*
X51150000Y-107250000D03*
X51150000Y-109150000D03*
X58300000Y-93300000D03*
X58300000Y-91400000D03*
X29500000Y-63525000D03*
X29500000Y-61625000D03*
D17*
X21775000Y-80775000D03*
X23675000Y-80775000D03*
D20*
X82100000Y-110100000D03*
X82100000Y-108200000D03*
X91860178Y-91684774D03*
X91860178Y-93584774D03*
D17*
X29950000Y-170600000D03*
X28050000Y-170600000D03*
X32750000Y-195800000D03*
X30850000Y-195800000D03*
D20*
X99290000Y-109000000D03*
X99290000Y-107100000D03*
X107651482Y-91784774D03*
X107651482Y-93684774D03*
X114675077Y-109234565D03*
X114675077Y-107334565D03*
X74768874Y-91484774D03*
X74768874Y-93384774D03*
X228660452Y-159004230D03*
X228660452Y-157104230D03*
X218204459Y-139390315D03*
X218204459Y-141290315D03*
X205722945Y-158462193D03*
X205722945Y-156562193D03*
X194404589Y-139529985D03*
X194404589Y-141429985D03*
X183941051Y-158535267D03*
X183941051Y-156635267D03*
X176827849Y-139750685D03*
X176827849Y-141650685D03*
X167631730Y-158397418D03*
X167631730Y-156497418D03*
X152939461Y-106549233D03*
X152939461Y-108449233D03*
X145098037Y-93125431D03*
X145098037Y-91225431D03*
X64667456Y-107234774D03*
X64667456Y-109134774D03*
X241921708Y-141242902D03*
X241921708Y-139342902D03*
X126464225Y-91586615D03*
X126464225Y-93486615D03*
D39*
X35750000Y-30000000D03*
X15600000Y-110550000D03*
X35750000Y-26500000D03*
X35750000Y-19500000D03*
X35750000Y-16000000D03*
D52*
X26200000Y-69910000D03*
D53*
X26200000Y-72450000D03*
X26200000Y-74990000D03*
D18*
X113375089Y-111134565D03*
X111175089Y-111134565D03*
D14*
X204722957Y-152362193D03*
X204722957Y-154562193D03*
X227660464Y-155104230D03*
X227660464Y-152904230D03*
X240921720Y-135142902D03*
X240921720Y-137342902D03*
X247432150Y-155089946D03*
X247432150Y-152889946D03*
X244932150Y-162789946D03*
X244932150Y-164989946D03*
D18*
X125164237Y-95386615D03*
X122964237Y-95386615D03*
D14*
X180441063Y-162335267D03*
X180441063Y-164535267D03*
D18*
X29725000Y-59300000D03*
X27525000Y-59300000D03*
D14*
X164131742Y-162197418D03*
X164131742Y-164397418D03*
X149439473Y-114449233D03*
X149439473Y-112249233D03*
X141598049Y-96925431D03*
X141598049Y-99125431D03*
X122964237Y-99486615D03*
X122964237Y-97286615D03*
X217204471Y-135190315D03*
X217204471Y-137390315D03*
X193404601Y-137529985D03*
X193404601Y-135329985D03*
D18*
X258577944Y-161012806D03*
X260777944Y-161012806D03*
D14*
X226400000Y-165250000D03*
X226400000Y-163050000D03*
X239421720Y-144932902D03*
X239421720Y-147132902D03*
X255410399Y-137147681D03*
X255410399Y-134947681D03*
X252910399Y-144847681D03*
X252910399Y-147047681D03*
X258577944Y-165112806D03*
X258577944Y-162912806D03*
D18*
X190904601Y-143329985D03*
X193104601Y-143329985D03*
X204422957Y-160362193D03*
X202222957Y-160362193D03*
X214704471Y-143190315D03*
X216904471Y-143190315D03*
X241621720Y-143032902D03*
X239421720Y-143032902D03*
X244932150Y-160889946D03*
X247132150Y-160889946D03*
D14*
X131031676Y-112592708D03*
X131031676Y-114792708D03*
X133531676Y-104892708D03*
X133531676Y-102692708D03*
X173327861Y-145450685D03*
X173327861Y-147650685D03*
D18*
X143798049Y-95025431D03*
X141598049Y-95025431D03*
X149439473Y-110349233D03*
X151639473Y-110349233D03*
X166331742Y-160297418D03*
X164131742Y-160297418D03*
X173327861Y-143550685D03*
X175527861Y-143550685D03*
X182641063Y-160435267D03*
X180441063Y-160435267D03*
D14*
X73768886Y-87284774D03*
X73768886Y-89484774D03*
D18*
X255110399Y-142947681D03*
X252910399Y-142947681D03*
X71268886Y-95284774D03*
X73468886Y-95284774D03*
X80275000Y-112200000D03*
X78075000Y-112200000D03*
X88360190Y-95484774D03*
X90560190Y-95484774D03*
D14*
X125464237Y-89586615D03*
X125464237Y-87386615D03*
D18*
X97955842Y-111484774D03*
X95755842Y-111484774D03*
X104151494Y-95584774D03*
X106351494Y-95584774D03*
D14*
X50427546Y-105184774D03*
X50427546Y-102984774D03*
X57337311Y-87184774D03*
X57337311Y-89384774D03*
X63667468Y-105234774D03*
X63667468Y-103034774D03*
D18*
X131031676Y-110692708D03*
X133231676Y-110692708D03*
D14*
X82275000Y-105400000D03*
X82275000Y-103200000D03*
X90860190Y-87484774D03*
X90860190Y-89684774D03*
X98255842Y-105684774D03*
X98255842Y-103484774D03*
X106651494Y-87584774D03*
X106651494Y-89784774D03*
X111175089Y-115234565D03*
X111175089Y-113034565D03*
D18*
X35100000Y-55500000D03*
X32900000Y-55500000D03*
X29550000Y-180300000D03*
X31750000Y-180300000D03*
X24570000Y-154200000D03*
X26770000Y-154200000D03*
X61167468Y-111034774D03*
X63367468Y-111034774D03*
D14*
X26600000Y-110900000D03*
X26600000Y-113100000D03*
D18*
X54837311Y-95184774D03*
X57037311Y-95184774D03*
X35100000Y-53500000D03*
X32900000Y-53500000D03*
D14*
X104151494Y-97484774D03*
X104151494Y-99684774D03*
X95755842Y-115584774D03*
X95755842Y-113384774D03*
X88360190Y-97384774D03*
X88360190Y-99584774D03*
X79850000Y-116000000D03*
X79850000Y-113800000D03*
D18*
X60900000Y-112500000D03*
X63100000Y-112500000D03*
D14*
X55170000Y-99220000D03*
X55170000Y-97020000D03*
D18*
X46500000Y-112500000D03*
X48700000Y-112500000D03*
X29525000Y-181925000D03*
X31725000Y-181925000D03*
X227360464Y-160904230D03*
X225160464Y-160904230D03*
X47350000Y-111025000D03*
X49550000Y-111025000D03*
D14*
X151939473Y-104549233D03*
X151939473Y-102349233D03*
X166631742Y-152297418D03*
X166631742Y-154497418D03*
X175827861Y-137750685D03*
X175827861Y-135550685D03*
X182941063Y-152435267D03*
X182941063Y-154635267D03*
X190904601Y-147429985D03*
X190904601Y-145229985D03*
X202222957Y-162262193D03*
X202222957Y-164462193D03*
X113675089Y-105334565D03*
X113675089Y-103134565D03*
X261077944Y-153012806D03*
X261077944Y-155212806D03*
X214704471Y-147290315D03*
X214704471Y-145090315D03*
X144098049Y-87025431D03*
X144098049Y-89225431D03*
D54*
X30750000Y-151796400D03*
X30750000Y-158603600D03*
D55*
X123014237Y-92888895D03*
X124914237Y-92888895D03*
X123964237Y-89886615D03*
X132031676Y-105192708D03*
X132981676Y-108194988D03*
X131081676Y-108194988D03*
X111225089Y-108636845D03*
X113125089Y-108636845D03*
X112175089Y-105634565D03*
X105151494Y-90084774D03*
X106101494Y-93087054D03*
X104201494Y-93087054D03*
X95805842Y-108987054D03*
X97705842Y-108987054D03*
X96755842Y-105984774D03*
X89360190Y-89984774D03*
X90310190Y-92987054D03*
X88410190Y-92987054D03*
X78700000Y-108951140D03*
X80600000Y-108951140D03*
X79650000Y-105948860D03*
X72268886Y-89784774D03*
X73218886Y-92787054D03*
X71318886Y-92787054D03*
X61217468Y-108537054D03*
X63117468Y-108537054D03*
X62167468Y-105534774D03*
X55837311Y-89684774D03*
X56787311Y-92687054D03*
X54887311Y-92687054D03*
X48927546Y-105484774D03*
X49877546Y-108487054D03*
X47977546Y-108487054D03*
X165131742Y-154797418D03*
X166081742Y-157799698D03*
X164181742Y-157799698D03*
X252960399Y-140449961D03*
X254860399Y-140449961D03*
X253910399Y-137447681D03*
X245932150Y-155389946D03*
X246882150Y-158392226D03*
X244982150Y-158392226D03*
X238471720Y-140645182D03*
X240371720Y-140645182D03*
X239421720Y-137642902D03*
X226160464Y-155404230D03*
X227110464Y-158406510D03*
X225210464Y-158406510D03*
X214754471Y-140692595D03*
X216654471Y-140692595D03*
X215704471Y-137690315D03*
X203222957Y-154862193D03*
X204172957Y-157864473D03*
X202272957Y-157864473D03*
X190954601Y-140832265D03*
X192854601Y-140832265D03*
X191904601Y-137829985D03*
X181441063Y-154935267D03*
X182391063Y-157937547D03*
X180491063Y-157937547D03*
X173377861Y-141052965D03*
X175277861Y-141052965D03*
X174327861Y-138050685D03*
X150439473Y-104849233D03*
X151389473Y-107851513D03*
X149489473Y-107851513D03*
X141648049Y-92527711D03*
X143548049Y-92527711D03*
X142598049Y-89525431D03*
X259577944Y-155512806D03*
X260527944Y-158515086D03*
X258627944Y-158515086D03*
D56*
X18849500Y-157000000D03*
D10*
G36*
X18274850Y-155625185D02*
X19424150Y-156392683D01*
X19424150Y-157607317D01*
X18274850Y-158374815D01*
X18274850Y-155625185D01*
X18274850Y-155625185D01*
G37*
D57*
X16500000Y-157000000D03*
D58*
X20452240Y-155498860D03*
X20452240Y-157000000D03*
X20452240Y-158501140D03*
D59*
X33000000Y-75500000D03*
D60*
X30500000Y-75500000D03*
X29050000Y-82850000D03*
D59*
X26550000Y-82850000D03*
X33800000Y-68350000D03*
D60*
X31300000Y-68350000D03*
X17400000Y-83025000D03*
D59*
X19900000Y-83025000D03*
X35230000Y-61090000D03*
D60*
X32730000Y-61090000D03*
D61*
X22425000Y-110100000D03*
X22425000Y-111900000D03*
D62*
X20100000Y-103900000D03*
X21900000Y-103900000D03*
X24600000Y-118100000D03*
X26400000Y-118100000D03*
D61*
X27675000Y-109450000D03*
X27675000Y-107650000D03*
X30125000Y-97500000D03*
X30125000Y-99300000D03*
X36800000Y-108100000D03*
X36800000Y-109900000D03*
D51*
X217445000Y-185000000D03*
X217445000Y-179000000D03*
X216175000Y-185000000D03*
X216175000Y-179000000D03*
X214905000Y-185000000D03*
X214905000Y-179000000D03*
X213635000Y-185000000D03*
X213635000Y-179000000D03*
X212365000Y-185000000D03*
X212365000Y-179000000D03*
X211095000Y-185000000D03*
X211095000Y-179000000D03*
X209825000Y-185000000D03*
X209825000Y-179000000D03*
X208555000Y-185000000D03*
X208555000Y-179000000D03*
X83445000Y-134000000D03*
X83445000Y-128000000D03*
X82175000Y-134000000D03*
X82175000Y-128000000D03*
X80905000Y-134000000D03*
X80905000Y-128000000D03*
X79635000Y-134000000D03*
X79635000Y-128000000D03*
X78365000Y-134000000D03*
X78365000Y-128000000D03*
X77095000Y-134000000D03*
X77095000Y-128000000D03*
X75825000Y-134000000D03*
X75825000Y-128000000D03*
X74555000Y-134000000D03*
X74555000Y-128000000D03*
D18*
X271450000Y-122000000D03*
X269250000Y-122000000D03*
D17*
X269250000Y-120150000D03*
X271150000Y-120150000D03*
D18*
X238450000Y-107300000D03*
X240650000Y-107300000D03*
D17*
X240350000Y-105450000D03*
X238450000Y-105450000D03*
D18*
X210050000Y-91600000D03*
X207850000Y-91600000D03*
D17*
X207850000Y-89750000D03*
X209750000Y-89750000D03*
D18*
X176750000Y-81000000D03*
X178950000Y-81000000D03*
D17*
X178650000Y-79150000D03*
X176750000Y-79150000D03*
D18*
X146050000Y-72400000D03*
X148250000Y-72400000D03*
D17*
X147950000Y-70550000D03*
X146050000Y-70550000D03*
D18*
X117750000Y-59500000D03*
X115550000Y-59500000D03*
D17*
X115550000Y-57650000D03*
X117450000Y-57650000D03*
D18*
X85750000Y-53100000D03*
X87950000Y-53100000D03*
D17*
X87650000Y-51250000D03*
X85750000Y-51250000D03*
D18*
X57650000Y-43000000D03*
X59850000Y-43000000D03*
D13*
X29750000Y-166500000D03*
X34750000Y-166500000D03*
X32250000Y-169000000D03*
X32250000Y-164000000D03*
D12*
X32250000Y-166500000D03*
D17*
X59975000Y-40725000D03*
X58075000Y-40725000D03*
D63*
X22500000Y-192850000D03*
D64*
X22500000Y-195390000D03*
D14*
X19750000Y-54500000D03*
X19750000Y-52300000D03*
X19850000Y-25225000D03*
X19850000Y-27425000D03*
D18*
X26600000Y-28960000D03*
X28800000Y-28960000D03*
D14*
X28300000Y-55300000D03*
X28300000Y-53100000D03*
X26500000Y-53100000D03*
X26500000Y-55300000D03*
X30100000Y-54500000D03*
X30100000Y-52300000D03*
X23050000Y-54500000D03*
X23050000Y-52300000D03*
X21400000Y-52300000D03*
X21400000Y-54500000D03*
X24700000Y-54500000D03*
X24700000Y-52300000D03*
D65*
X23436000Y-77900000D03*
D66*
X21150000Y-71550000D03*
D65*
X18864000Y-77900000D03*
D52*
X22000000Y-175500000D03*
D53*
X22000000Y-178040000D03*
X22000000Y-180580000D03*
X22000000Y-183120000D03*
X22000000Y-185660000D03*
X22000000Y-188200000D03*
D67*
X28250000Y-195625000D03*
X26950000Y-195625000D03*
X28250000Y-191275000D03*
X26950000Y-191275000D03*
X29700000Y-194025000D03*
X29700000Y-192825000D03*
X25400000Y-192825000D03*
X25400000Y-194025000D03*
D68*
X27102512Y-192224101D03*
D10*
G36*
X27658599Y-190965490D02*
X27683549Y-193011700D01*
X27248574Y-193191873D01*
X25819327Y-191727341D01*
X27658599Y-190965490D01*
X27658599Y-190965490D01*
G37*
D68*
X28097488Y-194626187D03*
D10*
G36*
X27541401Y-195884798D02*
X27516451Y-193838588D01*
X27951426Y-193658415D01*
X29380673Y-195122947D01*
X27541401Y-195884798D01*
X27541401Y-195884798D01*
G37*
D68*
X26398956Y-192927655D03*
D10*
G36*
X25902196Y-191644470D02*
X27366728Y-193073717D01*
X27186555Y-193508692D01*
X25140345Y-193483742D01*
X25902196Y-191644470D01*
X25902196Y-191644470D01*
G37*
D68*
X28801044Y-193922633D03*
D10*
G36*
X29297804Y-195205818D02*
X27833272Y-193776571D01*
X28013445Y-193341596D01*
X30059655Y-193366546D01*
X29297804Y-195205818D01*
X29297804Y-195205818D01*
G37*
D68*
X26398957Y-193922632D03*
D10*
G36*
X25140346Y-193366545D02*
X27186556Y-193341595D01*
X27366729Y-193776570D01*
X25902197Y-195205817D01*
X25140346Y-193366545D01*
X25140346Y-193366545D01*
G37*
D68*
X28801043Y-192927656D03*
D10*
G36*
X30059654Y-193483743D02*
X28013444Y-193508693D01*
X27833271Y-193073718D01*
X29297803Y-191644471D01*
X30059654Y-193483743D01*
X30059654Y-193483743D01*
G37*
D68*
X27102511Y-194626188D03*
D10*
G36*
X25819326Y-195122948D02*
X27248573Y-193658416D01*
X27683548Y-193838589D01*
X27658598Y-195884799D01*
X25819326Y-195122948D01*
X25819326Y-195122948D01*
G37*
D68*
X28097489Y-192224100D03*
D10*
G36*
X29380674Y-191727340D02*
X27951427Y-193191872D01*
X27516452Y-193011699D01*
X27541402Y-190965489D01*
X29380674Y-191727340D01*
X29380674Y-191727340D01*
G37*
D69*
X24660000Y-175200000D03*
X27200000Y-175200000D03*
X29740000Y-175200000D03*
D70*
X18500000Y-50000000D03*
X20000000Y-50000000D03*
X21500000Y-50000000D03*
X23000000Y-50000000D03*
X24500000Y-50000000D03*
X26000000Y-50000000D03*
X27500000Y-50000000D03*
X29000000Y-50000000D03*
X30500000Y-50000000D03*
X30500000Y-32000000D03*
X29000000Y-32000000D03*
X27500000Y-32000000D03*
X26000000Y-32000000D03*
X24500000Y-32000000D03*
X23000000Y-32000000D03*
X21500000Y-32000000D03*
X20000000Y-32000000D03*
X18500000Y-32000000D03*
D71*
X25132000Y-39934000D03*
M02*
