M48
;DRILL file {KiCad no-vcs-found-7399~56~ubuntu14.04.1} date Fri Dec 16 11:13:09 2016
;FORMAT={3:3/ absolute / metric / suppress trailing zeros}
FMAT,2
METRIC,LZ
T1C0.300
T2C0.400
T3C0.500
T4C0.600
T5C0.800
T6C0.900
T7C1.000
T8C1.001
T9C1.016
T10C1.100
T11C1.500
T12C1.800
T13C2.000
T14C3.200
%
G90
G05
M71
T1
X012925Y-058
X01295Y-05595
X013Y-02045
X013Y-1703
X013Y-1781
X01305Y-0257
X01306Y-13231
X01308Y-1514
X0132Y-19007
X0133Y-1607
X013375Y-1666
X0135Y-01325
X0135Y-1965
X0145Y-1555
X014775Y-172675
X01499Y-10181
X015Y-1051
X01509Y-11345
X0151Y-1604
X01542Y-0789
X01546Y-07588
X015475Y-07105
X01551Y-08177
X01551Y-08461
X01565Y-087275
X01597Y-12496
X0161Y-176525
X01615Y-11723
X0164Y-195125
X016425Y-1964
X0165Y-1909
X0166Y-0559
X0166Y-0917
X0166Y-19205
X016675Y-072625
X01683Y-09599
X01685Y-174975
X016875Y-09945
X01725Y-08
X0173Y-1779
X01764Y-15788
X0178Y-166475
X0179Y-074
X018Y-1795
X018025Y-0665
X01809Y-11703
X0182Y-0755
X0182Y-105725
X0182Y-1135
X0184Y-165
X018575Y-06895
X0186Y-098
X01865Y-07175
X018675Y-0705
X018675Y-073125
X018875Y-023925
X0189Y-10135
X01892Y-15151
X0194Y-10835
X0194Y-159425
X01945Y-114875
X01965Y-0742
X01965Y-12834
X01972Y-06273
X01985Y-16965
X019925Y-190225
X020025Y-072925
X02005Y-02095
X020125Y-1128
X02013Y-1472
X020175Y-069425
X0202Y-1968
X02032Y-013208
X02045Y-159525
X02045Y-160475
X0205Y-08325
X02062Y-11817
X02064Y-06034
X020875Y-09245
X021Y-1795
X0211Y-07425
X0211Y-0764
X02114Y-07849
X021175Y-02255
X021275Y-082125
X0213Y-068075
X021525Y-1248
X0216Y-10448
X0217Y-094925
X02194Y-08867
X02195Y-11265
X022075Y-064275
X0221Y-0186
X0222Y-0272
X02225Y-176725
X022325Y-069275
X02245Y-1727
X0226Y-016275
X02262Y-08281
X02275Y-1105
X02302Y-15654
X023125Y-027175
X02339Y-08483
X02347Y-13551
X02354Y-1516
X02357Y-15462
X023625Y-167275
X02365Y-0385
X023675Y-165625
X0237Y-0413
X023725Y-0363
X023725Y-178175
X0239Y-046175
X024125Y-0982
X0243Y-0196
X024325Y-104925
X024375Y-1075
X02442Y-08312
X024425Y-1229
X02447Y-12992
X024625Y-0656
X0247Y-0912
X024725Y-085375
X024725Y-186525
X02475Y-04725
X02475Y-04835
X0248Y-193275
X02505Y-0339
X02565Y-063825
X02585Y-02042
X02599Y-08506
X02615Y-02133
X0264Y-0236
X02655Y-0385
X0266Y-04135
X02665Y-013775
X026725Y-0276
X02675Y-0164
X02675Y-0658
X02675Y-177875
X0268Y-1758
X0268Y-179
X02685Y-0646
X02701Y-02082
X02705Y-1881
X0271Y-046675
X0272Y-03405
X027325Y-012925
X02735Y-0765
X027425Y-043425
X0275Y-085025
X0278Y-0792
X02795Y-19185
X028025Y-07295
X028175Y-06185
X028225Y-162275
X02825Y-04625
X02835Y-02805
X0286Y-1153
X02865Y-0644
X028725Y-0471
X02875Y-04805
X028975Y-0369
X029Y-16045
X02915Y-0804
X029175Y-069125
X029175Y-071775
X0292Y-098875
X02926Y-05756
X029375Y-129075
X0294Y-1382
X0294Y-1414
X0295Y-047625
X02955Y-1618
X0297Y-040975
X02985Y-1177
X02986Y-15058
X0299Y-105525
X0301Y-0443
X030225Y-111125
X03025Y-148425
X03044Y-15286
X030475Y-12725
X0305Y-15418
X03052Y-09716
X030625Y-125
X0307Y-119725
X03075Y-0346
X03092Y-14458
X03095Y-1619
X03121Y-05757
X031275Y-136925
X03145Y-085375
X031475Y-134325
X03164Y-04925
X03165Y-19705
X031725Y-0791
X032Y-02915
X032Y-0376
X032Y-051
X032025Y-154075
X032075Y-015175
X03215Y-15005
X032275Y-183975
X03229Y-08234
X03235Y-09255
X0324Y-0409
X03245Y-1767
X03273Y-04482
X03305Y-07215
X0333Y-06495
X0335Y-01525
X03353Y-12013
X0336Y-0317
X0336Y-1023
X03365Y-0288
X0338Y-1933
X033975Y-059375
X0341Y-0853
X0341Y-1003
X0341Y-1109
X03429Y-072644
X03445Y-143425
X03458Y-09642
X03458Y-09642
X03458Y-18793
X0346Y-1954
X03461Y-18561
X03466Y-0583
X034675Y-140025
X0347Y-04945
X03475Y-09255
X034875Y-1602
X0349Y-180175
X035025Y-11605
X035052Y-071882
X03535Y-08155
X0354Y-1918
X03545Y-0478
X035625Y-161075
X03575Y-11781
X03576Y-06502
X035825Y-16015
X03586Y-05924
X036Y-16195
X036Y-1629
X036Y-17825
X036125Y-0695
X036125Y-1516
X036125Y-1516
X03616Y-03655
X036175Y-072775
X03625Y-077475
X03635Y-03405
X03636Y-08546
X0365Y-161075
X036525Y-066125
X036575Y-053075
X0368Y-0564
X036875Y-15205
X0369Y-15295
X036925Y-09645
X03699Y-05746
X037Y-101
X037Y-162
X037Y-1629
X03704Y-06012
X037425Y-1222
X0375Y-11293
X0378Y-1097
X03785Y-1695
X03789Y-0676
X0379Y-074275
X038Y-063375
X0381Y-057975
X03828Y-06031
X0383Y-121625
X0386Y-07523
X0386Y-1856
X0387Y-0872
X03875Y-015
X0388Y-0281
X038825Y-1208
X03885Y-03285
X03885Y-03655
X03905Y-053625
X03907Y-08395
X0391Y-0401
X0391Y-046325
X0391Y-0785
X0392Y-17435
X03925Y-16875
X0393Y-121475
X03945Y-19065
X039475Y-179675
X0395Y-1968
X04145Y-196925
X04875Y-1709
X049125Y-174625
X052925Y-1745
X053075Y-17075
X0532Y-139975
X06013Y-15926
X06053Y-16673
X06064Y-14005
X0608Y-17085
X0608Y-17458
X06181Y-12459
X06428Y-15941
X06449Y-17464
X06461Y-14008
X06548Y-12459
X068125Y-167
X068325Y-17085
X06835Y-174625
X068375Y-124575
X06855Y-140025
X069275Y-1594
X074075Y-174925
X074325Y-139925
X07455Y-17075
X08342Y-16692
X08365Y-17075
X0838Y-13999
X08388Y-17466
X08405Y-1246
X085Y-15922
X0875Y-17458
X0876Y-166925
X087625Y-1708
X09081Y-16702
X09134Y-1747
X09145Y-1708
X09154Y-15928
X09165Y-14004
X0918Y-1247
X0949Y-170875
X09505Y-16711
X09522Y-17473
X09616Y-15927
X099125Y-1746
X099275Y-170725
X099375Y-16695
X09945Y-14
X10015Y-15945
X100575Y-1244
X103Y-1669
X10305Y-17465
X103125Y-170775
X10678Y-16673
X10685Y-170825
X10692Y-17452
X10698Y-14006
X10705Y-1247
X10788Y-15943
X10795Y-09755
X110675Y-17065
X110875Y-174525
X110925Y-139925
X114325Y-170725
X11461Y-17462
X11532Y-16692
X11537Y-15933
X1186Y-174625
X118625Y-1708
X118675Y-167
X118725Y-159275
X11985Y-13985
X12205Y-166875
X1223Y-170775
X1225Y-17455
X123125Y-139875
X12335Y-1592
X1261Y-1245
X12625Y-1708
X126275Y-139825
X126475Y-167025
X1268Y-097525
X1268Y-17471
X1269Y-159375
X13075Y-170725
X131075Y-13995
X13385Y-167075
X13475Y-1709
X141525Y-16695
X14155Y-17055
X141575Y-12455
X141875Y-159275
X14215Y-140025
X145175Y-166925
X145375Y-170725
X146375Y-1593
X14911Y-16681
X149275Y-12455
X14945Y-1706
X15005Y-139775
X15015Y-15916
X1563Y-167025
X156375Y-15915
X156825Y-170775
X157575Y-124675
X1579Y-139825
X16055Y-17075
X1606Y-166875
X16179Y-15913
X164725Y-166875
X16475Y-170775
X1648Y-124525
X16525Y-09755
X165525Y-159175
X165775Y-13965
X1722Y-170825
X1723Y-166925
X17245Y-124525
X172525Y-139975
X172525Y-159275
X183275Y-166725
X18367Y-15926
X183925Y-097675
X184075Y-12455
X184625Y-170725
X1855Y-1399
X1916Y-1666
X1916Y-17075
X1917Y-14005
X19195Y-1593
X19575Y-062
X19935Y-1399
X1994Y-17065
X19995Y-15925
X2191Y-170775
X21945Y-13965
X228975Y-1708
X2291Y-1402
X233875Y-16695
X252375Y-170425
X25305Y-139975
X264525Y-170775
X264825Y-139975
X27165Y-01305
X272725Y-13995
X27965Y-170675
X2802Y-1399
X282Y-019825
X28205Y-01855
X2821Y-19565
X282125Y-19145
X282175Y-014775
X28345Y-190325
X28445Y-1669
X284875Y-155275
X284875Y-1592
X285Y-1244
X285Y-1398
X285075Y-186275
X28515Y-170925
X2852Y-1359
X285225Y-027775
X2854Y-0133
X2855Y-19675
X2862Y-0236
X28625Y-0615
T2
X01285Y-15
X012975Y-06255
X014191Y-127084
X014317Y-128177
X014325Y-0892
X014475Y-065992
X014688Y-058778
X014775Y-067993
X014815Y-09103
X01484Y-069091
X015Y-06045
X015521Y-145573
X015926Y-115959
X015975Y-021275
X016007Y-061887
X01651Y-059831
X016763Y-064605
X017551Y-063838
X017925Y-056125
X018219Y-061059
X018448Y-142048
X01862Y-06355
X01895Y-025275
X01905Y-022
X019272Y-135763
X020335Y-148725
X020355Y-029699
X021127Y-056927
X02115Y-055827
X021451Y-0298
X021725Y-116155
X022222Y-056825
X022242Y-055695
X023321Y-056875
X024122Y-185239
X0244Y-022775
X024457Y-021675
X024513Y-117189
X024595Y-025211
X0247Y-055502
X024871Y-057052
X025288Y-024357
X025765Y-11765
X02579Y-096383
X0259Y-03035
X025925Y-098025
X02601Y-056683
X0263Y-160184
X027025Y-058058
X02715Y-185375
X027175Y-022525
X027391Y-026284
X02745Y-02445
X02755Y-05172
X0276Y-030425
X027936Y-02343
X028028Y-025386
X028066Y-02188
X02825Y-185075
X028281Y-02695
X028296Y-095411
X028525Y-1172
X028664Y-096451
X028723Y-051677
X028927Y-030425
X030018Y-030564
X03145Y-05505
X031656Y-0535
X033244Y-056911
X03335Y-052
X035314Y-056921
X0359Y-0247
X036225Y-089875
X036638Y-035342
X037208Y-092446
X03741Y-090321
X037518Y-0308
X037575Y-091409
X03765Y-01769
X037825Y-116875
X03786Y-04499
X03815Y-0431
X038906Y-018322
X038908Y-019578
X038927Y-0657
X039101Y-070695
X039376Y-023274
X03942Y-025296
X03945Y-07179
X039479Y-021598
X039485Y-069644
X03978Y-0592
X04Y-019447
X040007Y-017014
X040094Y-063015
X0402Y-03885
X0402Y-02781
X040351Y-042678
X040397Y-031639
X04052Y-07843
X04052Y-0861
X040525Y-047851
X040625Y-170925
X040665Y-163131
X040675Y-1786
X040675Y-1864
X040702Y-094068
X040702Y-102019
X040702Y-1095
X040725Y-119775
X040754Y-148
X0408Y-1941
X040875Y-1276
X04088Y-1402
X040926Y-0234
X04097Y-077343
X04097Y-08231
X041Y-15535
X041025Y-035504
X041025Y-16208
X041036Y-131214
X041066Y-015619
X041096Y-046619
X04115Y-13675
X041152Y-089844
X041152Y-0977
X041226Y-132426
X041234Y-112934
X04135Y-151151
X041387Y-054747
X04152Y-10539
X04152Y-143768
X04155Y-170275
X04155Y-1777
X041607Y-0398
X04178Y-05939
X0418Y-121075
X0419Y-1824
X0419Y-19
X042045Y-0311
X04245Y-055032
X04248Y-051592
X04335Y-114475
X043389Y-125899
X0434Y-1416
X04344Y-02595
X04345Y-072321
X04345Y-17225
X04345Y-1187
X04348Y-1609
X04355Y-018375
X04365Y-112075
X043732Y-070185
X043765Y-094425
X0438Y-1328
X0438Y-1483
X0438Y-1559
X0438Y-1636
X0438Y-1789
X0438Y-1867
X043827Y-091659
X0439Y-137771
X04396Y-0789
X044Y-086425
X044Y-1943
X044371Y-109617
X0444Y-0748
X04444Y-09798
X044474Y-12114
X044513Y-033115
X044525Y-174725
X04457Y-01555
X044575Y-16985
X044575Y-03603
X044794Y-028051
X044801Y-04425
X044925Y-101522
X045093Y-047236
X04516Y-0402
X0453Y-1903
X04533Y-059385
X0454Y-0826
X0454Y-1057
X0454Y-1288
X0454Y-1441
X0454Y-1519
X0454Y-1826
X046047Y-08985
X046125Y-036055
X04645Y-055514
X046481Y-050689
X04705Y-1377
X047063Y-032425
X047075Y-026108
X047103Y-021722
X04715Y-16091
X047173Y-12095
X04718Y-09532
X04719Y-09893
X0472Y-0685
X0472Y-17625
X047212Y-017681
X047225Y-126175
X047225Y-17225
X04725Y-141525
X047281Y-091125
X0473Y-0875
X0473Y-1146
X04731Y-118425
X047324Y-014725
X04735Y-1685
X0474Y-0755
X0474Y-083
X0474Y-1061
X0474Y-1294
X0474Y-1446
X0474Y-1523
X0474Y-1832
X047424Y-027934
X047431Y-122019
X047443Y-045278
X04747Y-0595
X047493Y-029032
X047533Y-022734
X047677Y-047823
X04771Y-039949
X0478Y-1905
X0482Y-1788
X04845Y-0517
X04855Y-070825
X048611Y-01685
X048613Y-032101
X048675Y-155375
X048675Y-03617
X0489Y-1942
X048975Y-101725
X04917Y-046437
X0492Y-0787
X0492Y-1096
X0492Y-1326
X0492Y-148
X0492Y-1634
X0492Y-1865
X049825Y-028325
X049982Y-051261
X050048Y-0742
X05015Y-047982
X0503Y-0439
X050325Y-05535
X0504Y-0699
X0505Y-163275
X050567Y-042833
X050611Y-040058
X050765Y-063496
X05085Y-1325
X051Y-0148
X051Y-0328
X051Y-08765
X051Y-17625
X051025Y-14155
X05103Y-16083
X051034Y-172369
X05105Y-168475
X051075Y-029775
X051087Y-022075
X0511Y-0184
X0511Y-0915
X0511Y-1185
X05112Y-12625
X051125Y-0951
X05113Y-1378
X05115Y-122225
X051175Y-076425
X051175Y-114575
X051195Y-064509
X0512Y-025885
X0512Y-038
X051225Y-0785
X051226Y-039146
X0513Y-109475
X051402Y-049801
X051409Y-052052
X05145Y-1022
X0517Y-1942
X052Y-0557
X052Y-1481
X052Y-1558
X052Y-1788
X052Y-1864
X052075Y-1287
X0524Y-0979
X05246Y-19016
X05265Y-082425
X05268Y-105659
X05321Y-0594
X05334Y-1441
X05334Y-1519
X053375Y-0517
X053375Y-1826
X05345Y-047081
X05347Y-0894
X05375Y-044006
X054647Y-039854
X054766Y-041195
X05485Y-17615
X054895Y-022175
X0549Y-114675
X05493Y-16086
X05495Y-02627
X05495Y-13775
X05495Y-17238
X054975Y-09835
X054975Y-1223
X054975Y-12615
X054975Y-1414
X055Y-0183
X055Y-0476
X055Y-1685
X055025Y-118375
X055068Y-029775
X05535Y-044475
X055447Y-0519
X055447Y-059735
X055447Y-1289
X055447Y-1443
X055447Y-152
X055447Y-1828
X0555Y-0325
X0555Y-1905
X05551Y-092354
X05551Y-1059
X055548Y-042628
X055693Y-039514
X055987Y-077437
X056Y-015478
X056Y-0965
X056225Y-0824
X056375Y-10165
X056475Y-073425
X0566Y-0476
X0566Y-1095
X0566Y-1326
X0566Y-1479
X0566Y-1557
X0566Y-1635
X0566Y-1788
X0566Y-1865
X05665Y-0629
X056672Y-0556
X056699Y-070225
X056767Y-039753
X0568Y-1942
X057187Y-08645
X057279Y-07875
X0576Y-12005
X057749Y-062961
X05795Y-163125
X0582Y-101275
X058405Y-071059
X0585Y-0508
X0586Y-17605
X0586Y-126225
X0586Y-17245
X058625Y-0222
X0587Y-0914
X0587Y-168525
X058725Y-114625
X058725Y-14175
X05875Y-137875
X05879Y-08762
X05881Y-1608
X05889Y-068432
X0589Y-0184
X0589Y-095075
X058946Y-118294
X059075Y-1134
X059075Y-029725
X0591Y-026
X059199Y-015478
X059287Y-10225
X0594Y-0557
X0594Y-0787
X0594Y-1096
X0594Y-1327
X0594Y-1481
X0594Y-1558
X0594Y-1789
X0594Y-1866
X0595Y-1943
X0596Y-143975
X05985Y-074875
X060062Y-09795
X0601Y-0363
X06021Y-05945
X060425Y-10565
X060537Y-039716
X060673Y-04335
X060775Y-046525
X0609Y-1903
X060964Y-0826
X060964Y-121
X060964Y-1288
X060964Y-1518
X060964Y-1826
X061Y-0324
X061425Y-10145
X061573Y-039346
X061675Y-163025
X0618Y-051717
X061846Y-048034
X061922Y-020425
X0622Y-04025
X0623Y-085325
X0626Y-0259
X0626Y-0914
X0626Y-0992
X062611Y-018178
X062625Y-022275
X06264Y-13766
X06265Y-0299
X06265Y-102625
X06265Y-1415
X06266Y-17241
X06267Y-16079
X062675Y-095375
X0627Y-0149
X0627Y-0876
X0627Y-16855
X0627Y-1761
X06273Y-053029
X06275Y-126225
X06275Y-1146
X0628Y-1184
X0629Y-0711
X062905Y-044425
X06295Y-109364
X062975Y-078402
X063049Y-112628
X0632Y-09395
X0634Y-0556
X0634Y-1326
X0634Y-148
X0634Y-1557
X0634Y-1788
X0634Y-1865
X0634Y-1942
X063475Y-04755
X06385Y-144075
X064345Y-0748
X0644Y-1211
X0644Y-1288
X0644Y-1518
X0644Y-1826
X0644Y-1904
X064475Y-06335
X0645Y-105569
X064525Y-0824
X0648Y-0363
X0648Y-044
X064853Y-070126
X065475Y-163125
X0655Y-0324
X06557Y-0587
X065617Y-040176
X065875Y-10935
X066006Y-046372
X066221Y-062029
X066375Y-102175
X066375Y-13765
X0664Y-01825
X0664Y-08745
X0664Y-0991
X0664Y-1762
X0664Y-0912
X066425Y-168475
X06645Y-029725
X066475Y-050875
X06649Y-12618
X0665Y-0148
X0665Y-02225
X0665Y-0722
X0665Y-1143
X0665Y-1183
X0665Y-14155
X06653Y-16084
X06655Y-1724
X066575Y-095225
X0666Y-0259
X06666Y-064288
X066675Y-040478
X06672Y-03276
X0668Y-0557
X06685Y-1441
X066868Y-105326
X067003Y-070382
X067008Y-04729
X067063Y-0788
X067063Y-1327
X067063Y-1481
X067063Y-1559
X067063Y-1788
X067063Y-1866
X0671Y-1943
X0673Y-0517
X06737Y-12858
X0675Y-0359
X0676Y-0321
X067907Y-105687
X068021Y-059474
X0682Y-0748
X0682Y-0826
X0682Y-121
X0682Y-1519
X0682Y-1826
X0682Y-1904
X068394Y-051819
X068626Y-036397
X0687Y-104925
X06884Y-043557
X069185Y-09395
X069409Y-09802
X069743Y-109208
X07Y-0746
X07015Y-10301
X07017Y-16087
X070175Y-12625
X0702Y-1142
X0702Y-02615
X0702Y-137775
X070225Y-09125
X0703Y-1415
X07032Y-01474
X07035Y-08355
X07035Y-09535
X07035Y-1218
X07035Y-1296
X07035Y-14475
X07035Y-1527
X07035Y-163425
X07035Y-16845
X07035Y-17245
X07035Y-17605
X07035Y-1832
X070361Y-07615
X0704Y-01855
X0704Y-022075
X0704Y-0798
X0704Y-0875
X0704Y-1184
X07065Y-1906
X07094Y-04405
X070987Y-035948
X070987Y-052153
X071Y-059225
X071248Y-031292
X07135Y-069475
X0717Y-155661
X071775Y-0735
X071843Y-109468
X0721Y-04285
X0721Y-0479
X0721Y-0556
X0721Y-1326
X0721Y-14795
X0721Y-1788
X0721Y-18645
X0721Y-19415
X0722Y-0592
X072575Y-10184
X072606Y-03255
X07294Y-10955
X072975Y-16335
X073522Y-094074
X07365Y-04782
X07367Y-063508
X0738Y-105371
X073975Y-032285
X073975Y-0404
X073975Y-117829
X074Y-07218
X074Y-180175
X074011Y-018393
X074016Y-118929
X074019Y-026182
X074036Y-087386
X07405Y-141675
X074051Y-17225
X074075Y-12625
X07408Y-0991
X07415Y-01485
X07415Y-029925
X0742Y-022225
X07425Y-0559
X07425Y-156081
X07425Y-133028
X074306Y-137769
X074325Y-064525
X07435Y-094875
X07435Y-16855
X074425Y-148878
X07445Y-078874
X0746Y-1867
X0748Y-1943
X07555Y-16215
X075638Y-069823
X07575Y-046675
X07575Y-05138
X07575Y-074601
X07585Y-175
X075946Y-090223
X076255Y-036022
X076525Y-120932
X076525Y-128683
X076525Y-143945
X07655Y-082521
X0766Y-1515
X076725Y-059175
X077075Y-032562
X0772Y-1898
X077332Y-093694
X07735Y-181925
X077468Y-07032
X0775Y-111875
X077776Y-075182
X07785Y-122004
X07785Y-030025
X07785Y-141625
X07785Y-1724
X0779Y-126175
X077911Y-118701
X077913Y-091075
X077925Y-026108
X077925Y-076276
X077925Y-0992
X077947Y-048405
X077999Y-114725
X078Y-0148
X078Y-13775
X078025Y-018825
X078025Y-113625
X07805Y-0875
X07805Y-17645
X078065Y-03995
X07808Y-16086
X0781Y-0222
X0781Y-0361
X0781Y-0644
X078118Y-044775
X07815Y-16845
X0782Y-0521
X0782Y-0602
X0782Y-083
X0782Y-1294
X0782Y-1446
X0782Y-1523
X0782Y-1832
X078229Y-107171
X078338Y-10029
X078342Y-08935
X078543Y-01705
X0786Y-0783
X0786Y-1905
X079058Y-047273
X079161Y-120951
X079261Y-0934
X079652Y-0737
X0797Y-1942
X0798Y-0556
X07985Y-10135
X08Y-1326
X08Y-148
X08Y-1558
X08Y-1634
X08Y-1788
X08Y-1865
X080269Y-078375
X080275Y-028425
X080283Y-051336
X080348Y-093566
X080595Y-112704
X08066Y-120073
X08066Y-07105
X080667Y-047739
X08094Y-101498
X08105Y-04
X0811Y-0439
X0811Y-163
X081367Y-042833
X0815Y-0783
X081675Y-1326
X0817Y-172188
X081725Y-02975
X08175Y-0874
X08179Y-16073
X0818Y-0148
X0818Y-0328
X0818Y-1262
X081825Y-13775
X081867Y-168551
X08189Y-17612
X08189Y-093085
X0819Y-0184
X0819Y-022075
X0819Y-0393
X0819Y-0499
X0819Y-1143
X0819Y-14165
X081993Y-101178
X082Y-025885
X082Y-038
X082Y-1185
X082025Y-051937
X082045Y-11155
X08205Y-098775
X082051Y-094173
X0821Y-1289
X08246Y-14404
X0825Y-1942
X082794Y-071024
X0828Y-0557
X0828Y-1481
X0828Y-1558
X0828Y-1788
X0828Y-1864
X0828Y-09
X083125Y-07865
X0832Y-082
X083375Y-151625
X083685Y-12125
X083861Y-1131
X083897Y-09013
X0839Y-1902
X084012Y-05942
X084125Y-069725
X084175Y-0517
X084175Y-0748
X084175Y-1826
X084179Y-082502
X084264Y-047081
X08455Y-043867
X08485Y-10805
X0849Y-0861
X085Y-085
X085081Y-063081
X085086Y-089075
X085447Y-039854
X08555Y-1416
X085597Y-041245
X0856Y-0717
X0856Y-137725
X0856Y-176
X0856Y-1144
X085625Y-168525
X08568Y-12218
X0857Y-0221
X0857Y-0797
X085725Y-12615
X08573Y-16078
X08579Y-02616
X085798Y-099002
X0858Y-0183
X0858Y-0476
X0858Y-1183
X085875Y-05955
X085919Y-044737
X08595Y-172325
X086057Y-069164
X086247Y-0519
X086247Y-075
X086247Y-0828
X086247Y-1289
X086247Y-1443
X086247Y-152
X086247Y-1828
X086273Y-105815
X0863Y-0325
X0863Y-1905
X086342Y-0427
X086493Y-039514
X0867Y-071
X086775Y-090373
X0868Y-01555
X087225Y-163075
X087242Y-101662
X08735Y-06315
X0874Y-0476
X0874Y-0556
X0874Y-086425
X0874Y-0942
X0874Y-1326
X0874Y-1479
X0874Y-1557
X0874Y-1788
X0874Y-1865
X087567Y-039753
X0876Y-1942
X088325Y-09
X088568Y-069829
X088622Y-109527
X088675Y-163175
X088836Y-063223
X088975Y-093264
X088975Y-100843
X089219Y-12119
X089275Y-1556
X0893Y-0508
X089325Y-1327
X089372Y-117376
X0894Y-1723
X089425Y-0222
X08945Y-02965
X0895Y-0796
X08955Y-1416
X089575Y-126175
X089575Y-16845
X08958Y-16083
X0896Y-026
X089612Y-11845
X08965Y-13765
X08965Y-1763
X089675Y-0985
X0897Y-0184
X0897Y-0606
X089783Y-109286
X0899Y-12875
X089999Y-01555
X090108Y-030531
X090127Y-122525
X090175Y-113236
X0902Y-0557
X0902Y-0865
X0902Y-0942
X0902Y-1481
X0902Y-1789
X0902Y-1866
X090275Y-101882
X0903Y-1943
X09047Y-14396
X0909Y-0363
X091Y-08249
X09135Y-039711
X091425Y-046625
X091473Y-04335
X0917Y-1903
X091764Y-0749
X091764Y-0903
X091764Y-1057
X091764Y-1134
X091764Y-1518
X091764Y-1826
X0918Y-0324
X091812Y-109412
X09215Y-0244
X092404Y-039395
X092575Y-1632
X092646Y-048009
X0927Y-05165
X092874Y-089661
X0932Y-04016
X09325Y-1723
X0933Y-0993
X0933Y-14155
X09335Y-17619
X093375Y-1222
X0934Y-0183
X0934Y-0259
X0934Y-16068
X0934Y-1684
X093425Y-029775
X093475Y-1185
X0935Y-0149
X0935Y-0221
X0935Y-053275
X0935Y-057
X0935Y-126175
X0935Y-13775
X093575Y-09135
X093705Y-044425
X093824Y-07112
X093825Y-079125
X0942Y-0941
X0942Y-1019
X0942Y-1096
X0942Y-1326
X0942Y-148
X0942Y-1557
X0942Y-1788
X0942Y-1865
X0942Y-1942
X094275Y-04755
X0944Y-086425
X0948Y-0593
X0949Y-105436
X0949Y-113375
X0949Y-128952
X09502Y-1441
X095024Y-063
X09503Y-15174
X095175Y-082475
X0952Y-1826
X0952Y-1904
X095274Y-069941
X09535Y-074551
X0956Y-044
X095725Y-036375
X09615Y-116475
X0963Y-0324
X0965Y-0402
X0968Y-046723
X096975Y-163225
X097036Y-063868
X0971Y-1416
X097175Y-029875
X0972Y-01825
X0972Y-1183
X0972Y-16845
X09725Y-06826
X09725Y-1378
X09726Y-16083
X097275Y-126025
X097275Y-144025
X097278Y-050842
X0973Y-071058
X097332Y-021975
X09735Y-17615
X0974Y-01499
X0974Y-0259
X0974Y-1723
X097473Y-032785
X09755Y-079394
X0976Y-0405
X09775Y-086475
X0978Y-047565
X09785Y-098764
X097863Y-0558
X097863Y-0942
X097863Y-1019
X097863Y-1097
X097863Y-1327
X097863Y-1481
X097863Y-1559
X097863Y-1788
X097863Y-1866
X0979Y-1943
X09795Y-1288
X098175Y-1205
X09849Y-03218
X0986Y-0363
X099Y-0518
X099Y-0593
X099Y-0748
X099Y-0826
X099Y-1056
X099Y-1519
X099Y-1826
X099Y-1904
X099048Y-090348
X099115Y-113375
X09938Y-043752
X099728Y-035876
X099977Y-1211
X1Y-0782
X1002Y-0509
X101Y-1723
X10105Y-0259
X101075Y-1685
X1011Y-029925
X1011Y-1377
X10115Y-01835
X10115Y-1762
X1012Y-0151
X1012Y-0993
X1012Y-1183
X101225Y-022
X10124Y-1609
X101275Y-1222
X1013Y-141575
X101624Y-129241
X1017Y-0749
X1017Y-0827
X1017Y-09035
X1017Y-10575
X1017Y-1135
X1017Y-14425
X1017Y-15195
X1017Y-18265
X1017Y-19045
X101875Y-036286
X1024Y-0696
X102417Y-043417
X102417Y-051171
X102417Y-058914
X102425Y-1275
X10255Y-0863
X102636Y-194075
X1031Y-03245
X1031Y-0403
X1031Y-04785
X1031Y-05555
X1031Y-0787
X1031Y-09415
X1031Y-10175
X1031Y-1095
X1031Y-1327
X1031Y-148
X1031Y-1557
X1031Y-16335
X1031Y-1788
X1031Y-1865
X103494Y-043645
X103555Y-07105
X10435Y-1631
X104784Y-063764
X1048Y-022075
X10485Y-1761
X104875Y-122125
X1049Y-0992
X104925Y-02975
X104925Y-168425
X10495Y-1057
X104975Y-126375
X105Y-0183
X105Y-0261
X105Y-16071
X10505Y-137725
X1051Y-0149
X1051Y-1184
X1051Y-1416
X1051Y-17245
X105173Y-064793
X1053Y-0696
X1053Y-12885
X105375Y-086375
X1054Y-0325
X1054Y-0714
X1054Y-0789
X1054Y-0943
X1054Y-102
X1054Y-1097
X1054Y-1328
X1054Y-1483
X1054Y-1559
X1054Y-1789
X1054Y-1867
X1056Y-1943
X10561Y-14405
X10565Y-0476
X1057Y-040125
X10575Y-05525
X1062Y-0512
X10625Y-1134
X106325Y-07485
X1067Y-05943
X106708Y-0443
X1069Y-1903
X106907Y-090347
X10699Y-036
X107Y-0826
X107Y-1519
X107Y-1826
X1074Y-047623
X107767Y-059161
X107825Y-032562
X107988Y-073383
X10809Y-040325
X108238Y-063486
X108258Y-04395
X108402Y-075189
X10854Y-035946
X10865Y-025625
X10865Y-14155
X10866Y-018696
X10867Y-05191
X10871Y-0691
X10875Y-029975
X10875Y-122475
X10875Y-16094
X10875Y-1723
X108775Y-16855
X1088Y-0993
X1088Y-12615
X108825Y-137675
X108867Y-059175
X1089Y-0222
X10895Y-17625
X109Y-083
X109Y-0909
X109Y-1061
X109Y-114
X109Y-1294
X109Y-1446
X109Y-1523
X109Y-1832
X109023Y-118323
X1091Y-014797
X1094Y-1905
X11Y-093975
X110075Y-086425
X1101Y-0472
X11015Y-074781
X11034Y-079045
X1105Y-1942
X11051Y-101986
X11051Y-109722
X11065Y-1555
X11078Y-1634
X1108Y-1326
X1108Y-148
X1108Y-1788
X1108Y-1865
X110854Y-055486
X11108Y-05914
X111083Y-051336
X11124Y-01709
X111335Y-0285
X11162Y-047785
X1119Y-0439
X11215Y-03975
X112167Y-042833
X11255Y-17225
X112575Y-168575
X1126Y-0148
X1126Y-0328
X11265Y-13775
X112675Y-0297
X112697Y-018425
X1127Y-022
X1127Y-0499
X1127Y-1183
X1127Y-17615
X112725Y-1262
X11276Y-0993
X112797Y-037777
X1128Y-025775
X1128Y-07205
X1128Y-0932
X1128Y-122275
X112825Y-051937
X112825Y-141475
X112925Y-1638
X113227Y-039524
X1133Y-1942
X1136Y-0557
X1136Y-0941
X1136Y-1018
X1136Y-1095
X1136Y-1788
X1136Y-1864
X11365Y-1326
X11365Y-1481
X11365Y-155804
X113758Y-161799
X114Y-0862
X11401Y-09
X114275Y-07881
X1147Y-1902
X1149Y-0698
X114975Y-0517
X114975Y-1056
X114975Y-113375
X114975Y-1287
X114975Y-1441
X114975Y-1519
X114975Y-1826
X115064Y-047081
X115085Y-0591
X115325Y-082498
X115375Y-0749
X115625Y-044047
X116121Y-063338
X116247Y-039854
X11635Y-137725
X11635Y-17235
X11635Y-1416
X11635Y-12225
X116397Y-041245
X1164Y-16074
X11645Y-1761
X116495Y-022112
X1165Y-02616
X1165Y-1183
X116525Y-126175
X1166Y-0183
X1166Y-0476
X1166Y-068384
X1166Y-0991
X1166Y-1685
X116725Y-065517
X117025Y-152
X117047Y-0519
X117047Y-0596
X117047Y-075
X117047Y-0828
X117047Y-0905
X117047Y-1059
X117047Y-1136
X117047Y-1289
X117047Y-1443
X117047Y-1828
X1171Y-0325
X1171Y-1905
X117142Y-0427
X117242Y-044623
X117293Y-039514
X1176Y-01555
X1178Y-147642
X1178Y-155463
X1178Y-163259
X1182Y-0476
X1182Y-0556
X1182Y-0786
X1182Y-0864
X1182Y-0942
X1182Y-1017
X1182Y-1095
X1182Y-1326
X1182Y-1788
X1182Y-1865
X1183Y-071
X118367Y-039753
X1184Y-1942
X12005Y-1634
X1202Y-17645
X120225Y-0222
X120225Y-126175
X1203Y-049225
X1203Y-1415
X1203Y-1685
X12035Y-1607
X120375Y-029475
X120375Y-17245
X1204Y-0644
X12041Y-0686
X12044Y-11841
X1205Y-0184
X1205Y-026025
X1205Y-1222
X12065Y-071065
X120862Y-01485
X120916Y-030433
X12095Y-098576
X121Y-0557
X121Y-0787
X121Y-0865
X121Y-0942
X121Y-1019
X121Y-1096
X121Y-1327
X121Y-1481
X121Y-1789
X121Y-1866
X1211Y-1943
X121525Y-144
X1216Y-155477
X1216Y-0362
X1216Y-0747
X12195Y-13595
X12215Y-039711
X1222Y-070985
X122273Y-04335
X1223Y-046625
X1225Y-1903
X122564Y-0826
X122564Y-0903
X122564Y-1057
X122564Y-1134
X122564Y-1288
X122564Y-1518
X122564Y-1826
X122575Y-05915
X1226Y-032475
X1231Y-020375
X123204Y-039395
X123422Y-069603
X12355Y-163425
X123669Y-040458
X123941Y-050916
X124075Y-12235
X1241Y-126125
X1241Y-141525
X1241Y-17225
X124169Y-063914
X1242Y-0259
X1242Y-0989
X1242Y-1759
X12425Y-168525
X124275Y-0298
X1243Y-01485
X1243Y-082675
X124345Y-018175
X124372Y-1607
X124373Y-022279
X1244Y-1183
X124415Y-044443
X1245Y-128725
X125Y-0556
X125Y-0787
X125Y-0865
X125Y-0941
X125Y-1019
X125Y-1096
X125Y-1326
X125Y-148
X125Y-1557
X125Y-1788
X125Y-1865
X125Y-1942
X125075Y-04755
X125525Y-051775
X125575Y-082425
X125894Y-074806
X1259Y-0594
X1259Y-0901
X12595Y-04392
X126Y-1056
X126Y-1364
X126Y-1441
X126Y-1518
X126Y-1826
X126Y-1904
X126333Y-113375
X1264Y-0363
X126501Y-039993
X1271Y-032475
X127405Y-046346
X127602Y-047428
X127654Y-040241
X12794Y-16087
X128Y-0182
X128Y-099
X128Y-12215
X128Y-17235
X12805Y-0298
X128125Y-1686
X12815Y-02215
X12815Y-12615
X1282Y-0259
X1282Y-0568
X1282Y-0687
X1282Y-1184
X12825Y-01485
X128275Y-14145
X12832Y-03276
X12845Y-059625
X12875Y-1904
X128775Y-13645
X1288Y-0519
X1288Y-07485
X1288Y-0825
X1288Y-09025
X1288Y-1056
X1288Y-12875
X1288Y-14415
X1288Y-1518
X1288Y-17485
X1288Y-1827
X1293Y-036375
X12935Y-0434
X1294Y-0709
X129478Y-113375
X12995Y-15558
X1301Y-19415
X13015Y-132538
X13015Y-14805
X13015Y-163442
X130152Y-047906
X1303Y-07875
X1303Y-086177
X1303Y-09415
X1303Y-101691
X1303Y-109546
X13035Y-0629
X13035Y-17885
X13035Y-18645
X130602Y-035524
X130602Y-050868
X1309Y-0323
X13095Y-055079
X13178Y-12238
X1318Y-16855
X131825Y-14155
X13185Y-0993
X13185Y-12605
X13195Y-0221
X131983Y-029837
X132Y-118575
X132Y-070144
X132025Y-1723
X13205Y-01485
X13205Y-0183
X13209Y-16085
X1321Y-072278
X1324Y-17505
X1324Y-18265
X13245Y-19035
X13245Y-1289
X13245Y-1365
X13245Y-1443
X13245Y-15195
X1325Y-07495
X132525Y-10575
X13255Y-09035
X1326Y-08245
X132672Y-113375
X13295Y-059478
X133151Y-051603
X133153Y-043705
X13316Y-0274
X133225Y-0363
X133525Y-06308
X13365Y-0557
X13365Y-07875
X13365Y-08635
X13365Y-0941
X13365Y-10185
X13365Y-10955
X13365Y-1327
X13365Y-148
X13365Y-1556
X13365Y-16335
X13365Y-17875
X13365Y-18655
X13365Y-19415
X133712Y-042759
X133742Y-047851
X13375Y-0325
X134459Y-070944
X13461Y-0629
X1351Y-0322
X135225Y-16325
X1356Y-02975
X135607Y-021975
X13565Y-079042
X13565Y-141575
X1357Y-0183
X1357Y-0513
X13575Y-086816
X13576Y-11837
X135775Y-12635
X13579Y-09522
X1358Y-04883
X1358Y-0991
X1358Y-1686
X1358Y-17235
X135875Y-122075
X13589Y-16075
X1359Y-01475
X1359Y-0404
X1359Y-0261
X135926Y-044325
X1362Y-03605
X1362Y-0559
X1362Y-102
X1362Y-1097
X1362Y-1328
X1362Y-1483
X1362Y-1559
X1362Y-1789
X1362Y-1867
X1364Y-1943
X137175Y-10545
X1377Y-1903
X1378Y-0594
X1378Y-1134
X1378Y-1288
X1378Y-1364
X1378Y-1441
X1378Y-1519
X1378Y-175
X1378Y-1826
X13785Y-0903
X13805Y-0826
X1381Y-0783
X138325Y-105123
X138625Y-032562
X138925Y-03995
X139014Y-109275
X139043Y-075097
X139102Y-0697
X13945Y-02985
X13945Y-126125
X139515Y-018625
X139525Y-026108
X13955Y-16086
X13955Y-17225
X139578Y-048374
X1396Y-0447
X1396Y-1012
X1396Y-1184
X1396Y-1415
X139625Y-1685
X13965Y-1109
X1397Y-0222
X1397Y-0361
X1397Y-0992
X139725Y-052094
X13975Y-163525
X1398Y-083
X1398Y-0909
X1398Y-1027
X1398Y-114
X1398Y-121775
X1398Y-1294
X1398Y-137
X1398Y-1446
X1398Y-1523
X1398Y-1755
X1398Y-1832
X1399Y-014775
X1401Y-0595
X1402Y-1905
X140238Y-017105
X14035Y-0747
X1406Y-1094
X14065Y-1322
X140803Y-047273
X140929Y-058777
X141Y-0516
X141Y-1055
X1413Y-1942
X141399Y-069699
X1414Y-0556
X141552Y-094152
X1416Y-0787
X1416Y-0865
X1416Y-148
X1416Y-1558
X1416Y-1788
X1416Y-1865
X1418Y-04395
X141825Y-0284
X142346Y-04775
X1424Y-04285
X1426Y-03995
X142602Y-071101
X142749Y-108725
X14275Y-16305
X14315Y-052
X1432Y-093875
X1432Y-1133
X143297Y-063478
X14335Y-095225
X14335Y-1415
X1434Y-0148
X1434Y-0328
X1434Y-1184
X1434Y-17245
X1434Y-068546
X143425Y-029675
X143437Y-064569
X1435Y-0184
X1435Y-022
X1435Y-0499
X1435Y-0994
X1435Y-16845
X143525Y-126425
X14355Y-16078
X143571Y-025925
X143575Y-122425
X143581Y-03923
X1436Y-038
X14365Y-121
X143983Y-071091
X1441Y-1942
X1444Y-0557
X1444Y-0787
X1444Y-1326
X1444Y-1481
X1444Y-1558
X1444Y-1788
X1444Y-1864
X144418Y-086475
X14442Y-10178
X144892Y-093896
X14511Y-090375
X1455Y-1902
X145727Y-070349
X145775Y-0517
X145775Y-0594
X145775Y-0748
X145775Y-0825
X145775Y-1287
X145775Y-1441
X145775Y-1519
X145775Y-1749
X145775Y-1826
X145785Y-113375
X1458Y-1363
X145864Y-047081
X146Y-0896
X1462Y-163075
X146316Y-0931
X146401Y-063341
X146425Y-044047
X1467Y-078
X1469Y-11255
X147047Y-039854
X14715Y-141625
X147197Y-041245
X14725Y-12225
X14725Y-1723
X14727Y-02633
X147275Y-168475
X1473Y-0221
X1473Y-0719
X1473Y-1183
X1473Y-126225
X14735Y-0993
X1474Y-0183
X1474Y-0476
X1474Y-0756
X14743Y-16079
X147459Y-120297
X1478Y-0864
X1478Y-0323
X147847Y-0519
X147847Y-0596
X147847Y-0828
X147847Y-1136
X147847Y-1289
X147847Y-1367
X147847Y-1443
X147847Y-152
X147847Y-1751
X147847Y-1828
X147866Y-093372
X147866Y-0905
X1479Y-1905
X147942Y-0427
X148042Y-044623
X148093Y-039514
X14845Y-01555
X148475Y-119875
X148719Y-101821
X148801Y-093951
X149Y-0476
X149Y-0556
X149Y-0786
X149Y-1326
X149Y-1479
X149Y-1557
X149Y-1788
X149Y-1865
X149167Y-039753
X1492Y-1942
X15035Y-08612
X1506Y-108
X1508Y-1175
X151025Y-0222
X15115Y-026
X151151Y-163206
X151175Y-126275
X1512Y-14135
X15125Y-02945
X15125Y-04925
X151286Y-168489
X1513Y-0148
X1513Y-0184
X1513Y-1222
X1513Y-1724
X151345Y-118463
X15135Y-05615
X151489Y-08668
X151629Y-030483
X1518Y-0787
X1518Y-1327
X1518Y-1481
X1518Y-1558
X1518Y-1789
X1518Y-1866
X1519Y-1943
X152025Y-089882
X152469Y-073569
X1525Y-0363
X15255Y-162
X152775Y-0943
X152905Y-039692
X152951Y-10114
X153Y-046525
X153073Y-04335
X1533Y-1903
X153325Y-070103
X15336Y-0595
X153364Y-0826
X153364Y-1288
X153364Y-1364
X153364Y-1441
X153364Y-1518
X153364Y-1749
X153364Y-1826
X1534Y-0324
X153696Y-0903
X153766Y-0244
X153885Y-093167
X153924Y-101654
X153979Y-039334
X154Y-0747
X1541Y-105732
X15425Y-163425
X154591Y-063252
X154657Y-097983
X154772Y-071261
X1549Y-051
X154925Y-126175
X154925Y-168425
X15495Y-0404
X15498Y-0648
X155Y-0183
X155Y-0684
X155Y-1103
X155Y-1145
X15501Y-17227
X155025Y-1416
X155066Y-025834
X155075Y-0299
X1551Y-0149
X1551Y-0221
X1551Y-1184
X1551Y-1222
X15511Y-16075
X15513Y-08745
X15515Y-0561
X155266Y-10565
X155305Y-044425
X155428Y-103827
X155796Y-113497
X1558Y-0787
X1558Y-1326
X1558Y-148
X1558Y-1557
X1558Y-1788
X1558Y-1865
X1558Y-1942
X155875Y-04755
X15588Y-094316
X156168Y-100384
X156322Y-07105
X1567Y-0594
X1567Y-0748
X1567Y-0824
X1567Y-090175
X1568Y-05175
X1568Y-1288
X1568Y-1364
X1568Y-1441
X1568Y-1518
X1568Y-1749
X1568Y-1826
X1568Y-1904
X156816Y-1056
X1572Y-0363
X1572Y-044
X157346Y-1134
X157675Y-16325
X15772Y-032516
X15789Y-109565
X1579Y-0699
X1581Y-040275
X158399Y-046372
X1587Y-029775
X15876Y-16075
X15879Y-08759
X1588Y-172275
X1588Y-1184
X158825Y-018275
X15888Y-06455
X1589Y-1031
X158923Y-032964
X158925Y-126175
X158925Y-168525
X158925Y-110773
X159Y-0991
X159Y-0259
X159Y-0566
X159Y-1222
X159Y-14155
X1592Y-0149
X1592Y-0405
X159225Y-047647
X159398Y-021975
X159463Y-0788
X159463Y-0942
X159463Y-1327
X159463Y-1481
X159463Y-1559
X159463Y-1788
X159463Y-1866
X1595Y-1943
X1599Y-0322
X1599Y-0358
X160098Y-05105
X1602Y-0552
X1602Y-0747
X160718Y-0594
X160776Y-113487
X160778Y-1057
X160781Y-128884
X160782Y-0902
X160784Y-08255
X160789Y-144279
X160789Y-13655
X1608Y-1519
X1608Y-17495
X1608Y-1827
X1608Y-1903
X16088Y-051823
X16105Y-036075
X161425Y-044002
X161459Y-12065
X162Y-0851
X162Y-0936
X1625Y-1094
X162625Y-1412
X16265Y-12605
X1627Y-0148
X162725Y-018375
X162725Y-02995
X16274Y-08766
X16275Y-02595
X162775Y-1685
X1628Y-098925
X1629Y-17225
X16291Y-16089
X162925Y-022075
X162925Y-118383
X162952Y-121919
X162997Y-069686
X1632Y-1634
X1634Y-03635
X1634Y-0441
X1634Y-0518
X1634Y-0595
X1634Y-075
X1634Y-08265
X1634Y-0903
X1634Y-10575
X1634Y-1135
X1634Y-1288
X1634Y-13655
X1634Y-1442
X1634Y-152
X1634Y-17515
X1634Y-18265
X1634Y-19035
X163725Y-10223
X164141Y-042896
X16437Y-109475
X1644Y-0325
X1644Y-0479
X1644Y-0553
X1644Y-0788
X1644Y-09395
X1644Y-1326
X1644Y-14795
X1644Y-1557
X1644Y-1788
X1644Y-1864
X164419Y-070869
X16455Y-1941
X165844Y-063323
X166454Y-068382
X16654Y-0877
X16655Y-17245
X16656Y-11846
X166575Y-02985
X1666Y-0183
X1666Y-0221
X1666Y-0261
X1666Y-0721
X1666Y-1029
X1666Y-1686
X166625Y-1261
X166625Y-141625
X16665Y-09918
X16665Y-045114
X166667Y-121425
X1667Y-0149
X1667Y-0404
X16685Y-063767
X167Y-0325
X167Y-0479
X167Y-0559
X167Y-0789
X167Y-0943
X167Y-1097
X167Y-1328
X167Y-1483
X167Y-1559
X167Y-1789
X167Y-1867
X1672Y-1943
X1673Y-16385
X1678Y-0512
X167825Y-16128
X168015Y-0703
X1685Y-1903
X1686Y-036
X1686Y-0594
X1686Y-0749
X1686Y-0826
X1686Y-0903
X1686Y-1057
X1686Y-1134
X1686Y-1288
X1686Y-1364
X1686Y-1441
X1686Y-1519
X1686Y-175
X1686Y-1826
X169425Y-032562
X169725Y-040275
X170325Y-026108
X170345Y-018725
X170378Y-048374
X1704Y-0755
X1704Y-0447
X1704Y-1067
X1704Y-1416
X170425Y-1686
X17044Y-12604
X17044Y-17236
X17045Y-16093
X170475Y-029675
X1705Y-0222
X1705Y-0361
X1705Y-0992
X1705Y-103
X1705Y-1185
X170525Y-16375
X170532Y-08298
X1706Y-0521
X1706Y-0602
X1706Y-0909
X1706Y-114
X1706Y-121925
X1706Y-1294
X1706Y-137
X1706Y-1446
X1706Y-1523
X1706Y-1755
X1706Y-1832
X1707Y-014797
X170943Y-017047
X17095Y-0859
X171Y-1905
X171225Y-0629
X171425Y-132475
X171507Y-047273
X1721Y-1942
X1722Y-0556
X1724Y-148
X1724Y-1558
X1724Y-1788
X1724Y-1865
X172675Y-028375
X172683Y-051336
X173052Y-047737
X17315Y-09415
X1732Y-04295
X17325Y-07875
X173257Y-086459
X1733Y-0441
X17345Y-03995
X17355Y-10945
X1738Y-16335
X1741Y-141425
X1741Y-17245
X1742Y-0148
X1742Y-0328
X1742Y-0716
X17422Y-11844
X174225Y-1686
X174275Y-0298
X174285Y-022075
X1743Y-0184
X1743Y-0499
X1743Y-0993
X1743Y-103
X174325Y-1221
X174325Y-1262
X174407Y-025806
X174425Y-051937
X174448Y-039448
X174451Y-160671
X174465Y-037892
X1749Y-1942
X175Y-0595
X17506Y-0636
X175115Y-07099
X175117Y-06989
X1752Y-0557
X1752Y-0787
X1752Y-0864
X1752Y-0941
X1752Y-1326
X1752Y-1481
X1752Y-1558
X1752Y-1788
X1752Y-1864
X17575Y-109425
X176272Y-090106
X1763Y-1902
X176382Y-105644
X176488Y-113375
X17655Y-0825
X176575Y-0517
X176575Y-0748
X176575Y-1287
X176575Y-1441
X176575Y-1519
X176575Y-1749
X176575Y-1826
X1766Y-1363
X17665Y-047081
X17692Y-070398
X177225Y-044047
X177847Y-039854
X17785Y-075354
X177997Y-041245
X17806Y-02622
X178064Y-122127
X178075Y-064029
X1781Y-0221
X1781Y-103
X1781Y-172188
X178125Y-1685
X17815Y-11839
X178175Y-126125
X178175Y-1414
X1782Y-0183
X1782Y-0476
X1782Y-0993
X17825Y-059623
X17826Y-16079
X178275Y-091075
X1786Y-0897
X178647Y-0519
X178647Y-1289
X178647Y-1367
X178647Y-1443
X178647Y-152
X178647Y-1751
X178647Y-1828
X17865Y-1059
X17865Y-1136
X1787Y-0325
X1787Y-1905
X178742Y-0427
X178842Y-044623
X178893Y-039514
X1792Y-01555
X179425Y-082275
X1798Y-0476
X1798Y-0556
X1798Y-0942
X1798Y-1095
X1798Y-1326
X1798Y-1479
X1798Y-1557
X1798Y-1635
X1798Y-1788
X1798Y-1865
X179908Y-086448
X17995Y-078888
X179967Y-039753
X18Y-0594
X18Y-1942
X18095Y-163325
X181675Y-075231
X181825Y-0222
X18185Y-17245
X181875Y-1685
X1819Y-1184
X18196Y-16069
X181975Y-03055
X181975Y-049275
X182Y-0993
X182025Y-12625
X182025Y-14165
X182036Y-122096
X18205Y-029375
X18205Y-033825
X1821Y-0148
X1821Y-0184
X1821Y-103
X18215Y-072319
X182175Y-144125
X1822Y-1056
X1823Y-026
X1826Y-0557
X1826Y-0787
X1826Y-0865
X1826Y-0942
X1826Y-1096
X1826Y-1327
X1826Y-1481
X1826Y-1558
X1826Y-1866
X1827Y-1943
X182768Y-0711
X1828Y-178425
X1833Y-0363
X183375Y-17475
X18375Y-039711
X183825Y-0466
X18387Y-05945
X183873Y-04335
X1841Y-1903
X184164Y-0749
X184164Y-0826
X184164Y-0903
X184164Y-1134
X184164Y-1288
X184164Y-1364
X184164Y-1518
X184164Y-1826
X184255Y-06335
X1843Y-0696
X184804Y-039395
X184875Y-163175
X185062Y-020494
X18525Y-05555
X18565Y-04035
X18565Y-14165
X18565Y-126225
X185725Y-1685
X185775Y-050942
X1858Y-0259
X1858Y-1183
X1858Y-17235
X185805Y-063649
X185825Y-122175
X185825Y-16086
X185831Y-01825
X185875Y-0298
X1859Y-0149
X1859Y-053
X1859Y-0604
X1859Y-1029
X185908Y-022167
X185961Y-099261
X186105Y-044425
X186132Y-069653
X1866Y-0787
X1866Y-0865
X1866Y-0941
X1866Y-1096
X1866Y-1326
X1866Y-148
X1866Y-1557
X1866Y-1788
X1866Y-1865
X1866Y-1942
X186602Y-071452
X186675Y-04755
X1875Y-0748
X1875Y-0824
X1875Y-0901
X1876Y-1056
X1876Y-113375
X1876Y-1288
X1876Y-1364
X1876Y-1441
X1876Y-1518
X1876Y-1749
X1876Y-1826
X1876Y-1904
X1879Y-0632
X187984Y-036375
X188Y-044
X1883Y-0709
X188695Y-032425
X188825Y-1632
X1889Y-0402
X188931Y-046454
X18956Y-16079
X1896Y-01825
X1896Y-14145
X1896Y-1723
X18965Y-029875
X189675Y-1221
X1897Y-126175
X189725Y-014925
X189725Y-022025
X18974Y-05568
X18975Y-168525
X1898Y-0259
X1898Y-0992
X1898Y-103
X1898Y-1184
X189904Y-032767
X19Y-0405
X190125Y-04735
X190263Y-0788
X190263Y-0865
X190263Y-0942
X190263Y-1097
X190263Y-1327
X190263Y-1481
X190263Y-1559
X190263Y-1788
X190263Y-1866
X1903Y-0749
X1903Y-1943
X19035Y-1364
X1909Y-0321
X1909Y-0549
X191305Y-082587
X191305Y-090357
X19146Y-10565
X19146Y-113375
X19155Y-12865
X19155Y-14415
X19155Y-1519
X19155Y-175
X19155Y-18265
X19155Y-1903
X191675Y-036379
X191675Y-044007
X191675Y-051758
X1917Y-0592
X192671Y-070198
X1928Y-0361
X193Y-051
X1933Y-04425
X1933Y-1013
X19345Y-16098
X19345Y-16845
X19345Y-17245
X19346Y-073785
X1935Y-02615
X19355Y-029875
X19355Y-11841
X19356Y-10693
X193575Y-141625
X19358Y-11455
X1936Y-0148
X1936Y-0993
X193602Y-10295
X193625Y-1261
X19365Y-0221
X19365Y-04795
X193725Y-1217
X1938Y-01825
X1938Y-0555
X19385Y-04325
X19401Y-059813
X19405Y-03645
X19405Y-05185
X19405Y-1289
X19405Y-1365
X19405Y-1443
X19405Y-15195
X19405Y-1751
X19405Y-1827
X19415Y-19035
X194154Y-074784
X194175Y-090392
X194375Y-0825
X19454Y-06967
X194875Y-0631
X1953Y-0327
X1953Y-07875
X1953Y-08635
X1953Y-09415
X1953Y-109475
X1953Y-13255
X1953Y-148
X1953Y-1557
X1953Y-1634
X1953Y-1788
X1953Y-1865
X19535Y-1942
X195759Y-07105
X19635Y-06315
X196675Y-1631
X197091Y-069714
X1972Y-122175
X197225Y-14155
X19725Y-029725
X19725Y-12625
X197275Y-018425
X19729Y-11838
X19736Y-16079
X197375Y-172325
X1974Y-0261
X1974Y-103
X1974Y-16845
X197425Y-045125
X197452Y-071548
X197475Y-021991
X1975Y-0149
X1975Y-0993
X1976Y-1441
X19765Y-13645
X19775Y-04015
X1978Y-0325
X1978Y-0479
X1978Y-0559
X1978Y-0789
X1978Y-0867
X1978Y-0943
X1978Y-1097
X1978Y-1328
X1978Y-1483
X1978Y-1559
X1978Y-1789
X1978Y-1867
X198Y-1943
X19805Y-1518
X19805Y-17475
X1986Y-0512
X198875Y-082325
X199075Y-10525
X19925Y-07495
X1993Y-1903
X19935Y-090306
X19935Y-1134
X19935Y-128808
X199375Y-035998
X1994Y-0594
X1994Y-1826
X199925Y-03255
X200025Y-040056
X200332Y-047993
X2006Y-0548
X2007Y-0316
X201075Y-02955
X2011Y-12245
X2011Y-141475
X201108Y-059046
X201125Y-026108
X2012Y-0148
X2012Y-1183
X2012Y-16104
X201225Y-018725
X201248Y-172252
X20125Y-12605
X2013Y-0222
X2013Y-103
X201305Y-044513
X201325Y-1685
X2014Y-0519
X2014Y-099
X2014Y-137
X2014Y-1446
X2014Y-1523
X2014Y-1832
X20145Y-0755
X20145Y-083002
X20145Y-106107
X20145Y-114006
X201535Y-090978
X201575Y-035947
X201761Y-017193
X2018Y-1905
X201834Y-129437
X2022Y-0593
X2024Y-0473
X202408Y-069608
X2029Y-1942
X202975Y-028525
X203Y-0556
X203025Y-1096
X20315Y-17465
X2032Y-0787
X2032Y-0865
X2032Y-0942
X2032Y-1326
X2032Y-148
X2032Y-1558
X2032Y-1634
X2032Y-1788
X2032Y-1865
X203483Y-051336
X203625Y-070988
X20375Y-0394
X204042Y-047782
X204129Y-044125
X204379Y-194075
X204425Y-163475
X204474Y-063135
X20455Y-04295
X2047Y-1173
X2049Y-0684
X205Y-0148
X205Y-029725
X205Y-0328
X205Y-1184
X205025Y-126075
X20504Y-17237
X205075Y-141525
X2051Y-0184
X2051Y-022075
X2051Y-0393
X2051Y-1685
X205102Y-0499
X20512Y-16077
X20515Y-122225
X2052Y-038
X2052Y-0646
X2052Y-103
X205206Y-025816
X205225Y-051937
X2053Y-0593
X2053Y-0712
X205625Y-0991
X206Y-0557
X206Y-0787
X206Y-0864
X206Y-0941
X206Y-1095
X206Y-1326
X206Y-1481
X206Y-1558
X206Y-1788
X206Y-1864
X2071Y-1902
X207375Y-0517
X207375Y-0594
X207375Y-0748
X207375Y-0825
X207375Y-0902
X207375Y-1056
X207375Y-113375
X207375Y-1287
X207375Y-1441
X207375Y-1519
X207375Y-1749
X207375Y-1826
X2074Y-1363
X207464Y-047081
X20775Y-043971
X208041Y-070062
X208647Y-039854
X20875Y-064165
X20875Y-14155
X208764Y-041194
X2088Y-1185
X2088Y-1723
X20888Y-1607
X208882Y-168532
X2089Y-0221
X20895Y-122325
X209Y-0183
X209Y-0476
X209Y-0992
X209Y-103
X2091Y-12605
X209295Y-044433
X209317Y-071391
X2094Y-0272
X209447Y-0519
X209447Y-0596
X209447Y-075
X209447Y-0828
X209447Y-0905
X209447Y-1059
X209447Y-1136
X209447Y-1289
X209447Y-1367
X209447Y-1443
X209447Y-152
X209447Y-1751
X209447Y-1828
X2095Y-0325
X2095Y-1905
X209542Y-042629
X209693Y-039514
X21Y-015475
X21035Y-163175
X2106Y-0476
X2106Y-0556
X2106Y-0786
X2106Y-0864
X2106Y-0942
X2106Y-1095
X2106Y-1326
X2106Y-1479
X2106Y-1557
X2106Y-1788
X2106Y-1865
X210767Y-039753
X2108Y-1942
X211932Y-063359
X212275Y-163475
X212573Y-194075
X2126Y-126075
X212625Y-0222
X21265Y-0291
X212675Y-168475
X2127Y-04925
X2127Y-0991
X2127Y-12225
X212725Y-1418
X212789Y-030191
X21279Y-10308
X21283Y-16091
X21284Y-11851
X212875Y-026075
X2129Y-014775
X2129Y-0184
X21295Y-172325
X2134Y-0557
X2134Y-0865
X2134Y-0942
X2134Y-1096
X2134Y-1327
X2134Y-1481
X2134Y-1558
X2134Y-1789
X2134Y-1866
X2135Y-082
X2139Y-0735
X2141Y-0363
X2144Y-0785
X214538Y-039708
X21465Y-046525
X214673Y-04335
X2149Y-1903
X214964Y-0903
X214964Y-1057
X214964Y-1134
X214964Y-1288
X214964Y-1364
X214964Y-1441
X214964Y-1518
X214964Y-1749
X214964Y-1826
X215Y-0324
X215016Y-0826
X215025Y-069971
X215145Y-059418
X215366Y-0244
X215405Y-0749
X215581Y-039358
X21595Y-16315
X21605Y-04285
X216117Y-0514
X21625Y-04025
X2165Y-0645
X2165Y-1184
X2165Y-1685
X21657Y-16079
X2166Y-0183
X2166Y-0259
X2166Y-0684
X2166Y-0991
X2166Y-17235
X216602Y-194075
X216625Y-141475
X216675Y-12215
X216675Y-126225
X2167Y-0149
X2167Y-0221
X2167Y-053
X216775Y-0298
X2169Y-1031
X216905Y-044425
X21695Y-055571
X21695Y-070912
X21695Y-174925
X2174Y-0787
X2174Y-0865
X2174Y-0941
X2174Y-1096
X2174Y-1326
X2174Y-148
X2174Y-1557
X2174Y-1788
X2174Y-1865
X217475Y-04755
X2176Y-0594
X217975Y-113375
X217975Y-128794
X217975Y-136398
X217975Y-144095
X217975Y-1518
X217975Y-1054
X218075Y-03625
X218249Y-074834
X2183Y-08245
X2183Y-0901
X2184Y-1826
X2184Y-1904
X21915Y-0402
X2192Y-0469
X21945Y-032393
X219536Y-069642
X21955Y-051832
X219664Y-03559
X220325Y-063825
X220325Y-122175
X2204Y-168575
X220475Y-029975
X220475Y-126125
X2205Y-0148
X220525Y-10305
X22055Y-01835
X22055Y-02225
X22055Y-09925
X220575Y-141675
X220575Y-172275
X22068Y-16086
X220875Y-118143
X2212Y-0707
X2212Y-05945
X2212Y-07485
X2212Y-08245
X2212Y-0903
X2212Y-10565
X2212Y-1134
X2212Y-12875
X2212Y-1364
X2212Y-14425
X2212Y-15185
X2212Y-17495
X2212Y-1827
X2212Y-1903
X22165Y-051557
X22185Y-0359
X22185Y-043977
X2219Y-02735
X222056Y-055385
X22235Y-0787
X22235Y-0864
X22235Y-09415
X22235Y-1095
X22235Y-13255
X22235Y-148
X22235Y-15575
X22235Y-1634
X22235Y-1789
X22235Y-18645
X22235Y-1941
X222399Y-047809
X222436Y-0325
X2226Y-04
X222842Y-043501
X2237Y-0632
X224175Y-029975
X2242Y-14155
X2242Y-17235
X2242Y-058661
X22428Y-12237
X2243Y-01482
X2243Y-0186
X2243Y-0993
X2243Y-103
X224325Y-1262
X224325Y-1684
X22435Y-02215
X224361Y-025839
X22437Y-16088
X224437Y-118339
X22465Y-055203
X2249Y-0518
X2249Y-0749
X2249Y-0825
X22495Y-0903
X22495Y-1057
X22495Y-11345
X22495Y-12885
X22495Y-1366
X22495Y-1442
X22495Y-1519
X22495Y-17495
X22495Y-18275
X225Y-1904
X225Y-036425
X225Y-044024
X225125Y-1633
X225569Y-069769
X2258Y-0552
X2262Y-0591
X22625Y-0325
X22625Y-04335
X22625Y-04795
X22625Y-0787
X22625Y-0864
X22625Y-0941
X22625Y-1095
X22625Y-13255
X22625Y-148
X22625Y-1557
X22625Y-17865
X22625Y-18645
X22625Y-19415
X2265Y-163075
X226892Y-07105
X227375Y-1783
X227425Y-186425
X227475Y-055808
X228Y-1184
X228001Y-064561
X228025Y-01851
X228025Y-049036
X228025Y-057294
X22805Y-0299
X228075Y-103138
X228075Y-109771
X228075Y-1328
X228075Y-1483
X228075Y-155909
X2281Y-0261
X2281Y-033157
X2281Y-040777
X228125Y-126325
X22815Y-17235
X228175Y-1685
X228225Y-14175
X228231Y-07146
X228231Y-079
X228231Y-086761
X228231Y-0943
X22825Y-122225
X228275Y-022021
X2283Y-0149
X228345Y-194075
X228866Y-069294
X22935Y-162075
X22945Y-046525
X229675Y-100525
X230175Y-051337
X2302Y-1057
X2302Y-1134
X2302Y-175
X2302Y-1826
X230249Y-059434
X230275Y-036
X230331Y-090304
X23035Y-0749
X23035Y-0826
X23055Y-151707
X23065Y-1364
X23065Y-144129
X23073Y-12869
X231025Y-032562
X231096Y-069817
X2313Y-190325
X231325Y-040325
X231875Y-02975
X231883Y-064132
X231925Y-026108
X231925Y-172325
X23195Y-14155
X23195Y-16087
X231978Y-048374
X232Y-0447
X232Y-16845
X232024Y-01875
X2321Y-0222
X2321Y-0361
X2321Y-1029
X23215Y-1261
X2322Y-0521
X2322Y-0602
X2322Y-0755
X2322Y-083
X2322Y-0909
X2322Y-1061
X2322Y-114
X2322Y-1183
X2322Y-1217
X2322Y-1294
X2322Y-137
X2322Y-1446
X2322Y-1523
X2322Y-1755
X2322Y-1832
X2322Y-0992
X2323Y-014797
X232383Y-071136
X232543Y-017047
X2326Y-1905
X233107Y-047273
X233596Y-055925
X2337Y-1942
X234Y-0787
X234Y-0865
X234Y-0942
X234Y-1096
X234Y-1326
X234Y-148
X234Y-1558
X234Y-1634
X234Y-1788
X234Y-1865
X234125Y-02865
X234283Y-051336
X234657Y-047737
X23475Y-044
X23488Y-04289
X2349Y-03975
X235367Y-063583
X235425Y-163375
X2358Y-0148
X2358Y-0328
X2358Y-126175
X235817Y-102144
X235825Y-02965
X235825Y-122175
X23585Y-172375
X235875Y-141425
X235895Y-022012
X2359Y-0184
X2359Y-0499
X2359Y-0991
X235903Y-039299
X235921Y-168532
X236Y-025775
X236Y-038
X236Y-1184
X23601Y-16073
X236025Y-051937
X236212Y-077842
X2365Y-1942
X236685Y-055925
X2367Y-0746
X2368Y-0864
X2368Y-0941
X2368Y-1095
X2368Y-1326
X2368Y-1481
X2368Y-1558
X2368Y-1788
X2368Y-1864
X2369Y-0787
X236977Y-105237
X237375Y-0697
X2379Y-1902
X237936Y-082621
X237975Y-1057
X238175Y-0517
X238175Y-0902
X238175Y-113375
X238175Y-1287
X238175Y-1441
X238175Y-1519
X238175Y-1749
X238175Y-1826
X2382Y-1363
X23825Y-047081
X23825Y-074787
X238807Y-101653
X238825Y-044047
X238945Y-058569
X2394Y-069219
X2394Y-109689
X239447Y-039854
X23955Y-122025
X239597Y-041245
X2396Y-072
X2396Y-16855
X23965Y-1415
X239675Y-125975
X2397Y-0221
X2397Y-1182
X239725Y-1725
X2398Y-0183
X2398Y-0476
X2398Y-099
X23983Y-16097
X239874Y-064482
X2402Y-0272
X240247Y-0519
X240247Y-0596
X240247Y-075
X240247Y-0828
X240247Y-0905
X240247Y-1136
X240247Y-1289
X240247Y-1367
X240247Y-1443
X240247Y-152
X240247Y-1751
X240247Y-1828
X2403Y-0325
X2403Y-1905
X240342Y-0427
X240442Y-044623
X240493Y-039514
X2409Y-015495
X241176Y-055925
X241224Y-101361
X24125Y-093775
X2414Y-0476
X2414Y-0864
X2414Y-1326
X2414Y-1479
X2414Y-1557
X2414Y-1635
X2414Y-1788
X2414Y-1865
X241447Y-078775
X241567Y-039753
X2416Y-1942
X2416Y-071149
X2424Y-1095
X243165Y-112162
X2433Y-0508
X243425Y-0222
X24345Y-126225
X2435Y-0148
X2435Y-02915
X243525Y-1415
X243575Y-172275
X2436Y-0991
X2436Y-1183
X24361Y-16076
X24365Y-168458
X243664Y-030238
X243685Y-122225
X2437Y-0184
X2437Y-0637
X243712Y-107217
X24372Y-02641
X24375Y-11471
X2442Y-055925
X2442Y-0595
X2442Y-0824
X2442Y-0865
X2442Y-0942
X2442Y-1327
X2442Y-1481
X2442Y-1558
X2442Y-1789
X2442Y-1866
X244213Y-078775
X2443Y-1943
X2445Y-0735
X2446Y-163606
X2449Y-0363
X245225Y-090031
X245339Y-039715
X245375Y-046575
X2454Y-08185
X2457Y-1903
X245764Y-0749
X245764Y-1288
X245764Y-1364
X245764Y-1441
X245764Y-1518
X245764Y-1749
X245764Y-1826
X2458Y-0324
X245845Y-059377
X246Y-120875
X246082Y-070028
X246349Y-043743
X246388Y-039385
X2464Y-0777
X246612Y-047993
X2467Y-0427
X2468Y-0556
X246981Y-020625
X247Y-16345
X247071Y-120525
X24725Y-114346
X2473Y-04
X2473Y-12615
X2473Y-172375
X247325Y-11835
X24735Y-029825
X2474Y-0183
X2474Y-0259
X2474Y-1069
X247425Y-1685
X24747Y-16091
X247475Y-141425
X247487Y-022175
X2475Y-0149
X247637Y-053107
X247789Y-063722
X247789Y-071317
X2478Y-044494
X247909Y-112013
X247975Y-078535
X247975Y-086115
X248043Y-101882
X248136Y-05877
X248175Y-093458
X2482Y-0362
X2482Y-0556
X2482Y-1326
X2482Y-148
X2482Y-1557
X2482Y-1788
X2482Y-1865
X2482Y-1942
X248275Y-04755
X2486Y-0696
X248621Y-120547
X2491Y-0901
X249145Y-059387
X2492Y-1288
X2492Y-1364
X2492Y-1441
X2492Y-1518
X2492Y-1749
X2492Y-1826
X2492Y-1904
X249525Y-074781
X2496Y-0363
X2496Y-044
X249725Y-093694
X249775Y-08187
X2499Y-121025
X250025Y-097732
X250157Y-11596
X2503Y-0324
X2505Y-040325
X2506Y-1786
X250613Y-063239
X250771Y-069365
X250773Y-107864
X2508Y-0967
X250806Y-046372
X251025Y-173375
X251193Y-018195
X2512Y-1635
X2512Y-1262
X251225Y-1684
X25125Y-141425
X25125Y-176075
X251275Y-050875
X2513Y-0148
X25131Y-16075
X25133Y-071265
X25135Y-029725
X251374Y-113658
X251395Y-032871
X251396Y-074746
X2514Y-0259
X2514Y-1185
X251468Y-100906
X2516Y-0405
X25173Y-047256
X251863Y-0558
X251863Y-0788
X251863Y-0865
X251863Y-0942
X251863Y-1327
X251863Y-1481
X251863Y-1559
X251863Y-1866
X251875Y-0218
X2519Y-1943
X25218Y-0321
X252409Y-128731
X25244Y-121075
X25244Y-1365
X25244Y-1441
X25244Y-1519
X252594Y-05898
X25263Y-0363
X25263Y-04336
X25263Y-0518
X2527Y-1055
X25276Y-082631
X252771Y-101845
X252846Y-090361
X252927Y-098023
X253Y-1826
X253Y-1904
X2533Y-1159
X253558Y-112593
X254838Y-105537
X255025Y-029975
X25508Y-1724
X255113Y-160793
X25514Y-01485
X255164Y-174441
X2552Y-126318
X25524Y-02188
X25525Y-0183
X25526Y-16792
X2553Y-14145
X2553Y-058545
X255575Y-1211
X255625Y-035988
X25582Y-043735
X256056Y-069571
X2561Y-0518
X2561Y-07485
X2561Y-1826
X2561Y-19025
X25611Y-08255
X25611Y-0902
X256198Y-059775
X256275Y-16355
X256276Y-098294
X2564Y-0428
X256422Y-152105
X25662Y-12875
X25662Y-136529
X25662Y-14423
X256674Y-19437
X2569Y-03235
X2569Y-0479
X2569Y-05555
X2569Y-07865
X2569Y-0864
X2569Y-09415
X2569Y-15565
X2569Y-17875
X2569Y-1865
X25705Y-0272
X25707Y-1326
X25707Y-14805
X257225Y-071054
X257938Y-105701
X257938Y-1133
X2581Y-0937
X258141Y-063419
X258388Y-109661
X258388Y-117293
X258575Y-16325
X2586Y-0587
X25875Y-101846
X2588Y-126225
X25883Y-17249
X25885Y-1415
X25895Y-16072
X258975Y-0453
X259Y-0261
X259Y-029825
X25901Y-16847
X2591Y-014825
X2591Y-0404
X2591Y-099
X2592Y-0183
X259225Y-068403
X259237Y-021959
X259375Y-0648
X2594Y-0325
X2594Y-0479
X2594Y-0559
X2594Y-0712
X2594Y-0789
X2594Y-0867
X2594Y-0943
X2594Y-1328
X2594Y-1483
X2594Y-1559
X2594Y-1789
X2594Y-1867
X259466Y-117514
X259488Y-109703
X2596Y-1943
X259827Y-102072
X260232Y-058824
X26024Y-0513
X260325Y-09
X2605Y-082175
X26061Y-036
X260625Y-07512
X260734Y-17496
X260886Y-182627
X2609Y-1903
X261Y-1057
X261Y-1134
X261Y-1211
X261Y-1288
X261Y-1364
X261Y-1441
X261Y-1519
X2611Y-0595
X261189Y-0975
X26125Y-02078
X26135Y-04775
X26171Y-04025
X261791Y-032545
X2619Y-058625
X2619Y-17455
X26195Y-18235
X2621Y-1011
X26216Y-035822
X26216Y-044089
X262271Y-069782
X2626Y-1785
X2626Y-18655
X262634Y-017807
X262651Y-051887
X262651Y-060098
X262675Y-16085
X262725Y-029775
X262725Y-14155
X26273Y-16857
X262739Y-07578
X26275Y-02595
X26276Y-17246
X262815Y-071575
X26285Y-01478
X2629Y-12605
X263Y-1061
X263Y-114
X263Y-1217
X263Y-1294
X263Y-137
X263Y-1446
X263Y-1523
X263025Y-16355
X263075Y-083
X263075Y-0909
X263075Y-0985
X263117Y-064613
X26318Y-0553
X2634Y-1905
X2638Y-117225
X263825Y-132275
X263925Y-09375
X263975Y-10915
X264025Y-0472
X2641Y-0783
X264161Y-102256
X264175Y-155425
X2642Y-086853
X26423Y-148019
X2645Y-1942
X265083Y-051336
X265292Y-055066
X26535Y-017149
X2655Y-028
X265551Y-047762
X265673Y-042824
X26585Y-0398
X2659Y-0439
X26613Y-063137
X2666Y-0148
X2666Y-0328
X2667Y-0184
X2667Y-0499
X26675Y-168625
X266759Y-126284
X26676Y-17244
X266775Y-1635
X266779Y-160948
X266798Y-01685
X2668Y-025775
X2668Y-038
X2668Y-0594
X266802Y-039248
X266825Y-051937
X26685Y-14155
X2669Y-0731
X2673Y-1942
X2676Y-0283
X2676Y-0557
X2676Y-0787
X2676Y-0864
X2676Y-0941
X2676Y-1018
X2676Y-1095
X2676Y-1172
X2676Y-1558
X2676Y-1788
X2676Y-1864
X26781Y-1326
X26781Y-148149
X268425Y-07
X2687Y-1902
X268825Y-1749
X268914Y-059469
X268975Y-0517
X268975Y-0748
X268975Y-0825
X268975Y-0902
X268975Y-0979
X268975Y-1056
X268975Y-1133
X268975Y-1287
X268975Y-1441
X268975Y-1519
X268975Y-1826
X269Y-121075
X269Y-1363
X269064Y-047081
X269175Y-163225
X26957Y-02085
X269625Y-044047
X269775Y-1786
X27014Y-07522
X270225Y-07021
X270247Y-039854
X27037Y-16078
X270397Y-041245
X27045Y-16865
X2705Y-0646
X2705Y-12605
X2705Y-14145
X27055Y-1953
X2706Y-0183
X2706Y-0476
X270648Y-07201
X270725Y-163225
X27075Y-17225
X27078Y-0828
X27078Y-0905
X27078Y-0982
X27078Y-1059
X27078Y-1136
X27078Y-1212
X27078Y-128901
X27078Y-1367
X27078Y-1443
X27078Y-152003
X270876Y-027237
X27095Y-15535
X271047Y-0519
X271047Y-0596
X271047Y-1751
X271047Y-1828
X2711Y-0325
X2711Y-1905
X271142Y-0427
X27123Y-0786
X27123Y-086661
X27123Y-0942
X27123Y-101753
X27123Y-109759
X27123Y-117212
X27123Y-132826
X271242Y-044623
X271293Y-039514
X27145Y-1477
X271725Y-015925
X27178Y-178914
X2722Y-0476
X2722Y-0556
X2722Y-1865
X272367Y-039753
X27312Y-020785
X273424Y-192911
X273821Y-028616
X274049Y-194466
X2741Y-0508
X274175Y-16335
X2743Y-0145
X27435Y-029875
X27439Y-02214
X2744Y-0639
X274425Y-0262
X274447Y-16084
X27446Y-17234
X274475Y-14145
X2745Y-0184
X274539Y-195452
X274541Y-16871
X274556Y-126161
X274675Y-02455
X274762Y-073548
X274799Y-01555
X2749Y-0284
X2749Y-0588
X274974Y-1868
X275Y-0557
X27501Y-1789
X27545Y-0363
X275836Y-189667
X27586Y-0787
X27586Y-0865
X27586Y-101934
X27586Y-1096
X27586Y-117236
X27586Y-132742
X27586Y-1481
X2759Y-093875
X2759Y-155275
X276119Y-039724
X276225Y-046775
X276273Y-04335
X27633Y-07034
X276564Y-0749
X276564Y-0826
X276564Y-0903
X276564Y-098
X276564Y-1057
X276564Y-1134
X276564Y-1288
X276564Y-1364
X276564Y-1441
X276564Y-1518
X276564Y-1749
X276564Y-1826
X2766Y-0324
X27662Y-059324
X276635Y-121075
X2768Y-017
X277102Y-193775
X277137Y-039308
X277254Y-051703
X277561Y-048044
X277825Y-063216
X2779Y-0401
X277952Y-071507
X277983Y-1633
X278125Y-14145
X278146Y-022359
X27815Y-079975
X278152Y-02019
X278189Y-185889
X2782Y-0145
X27821Y-17231
X278225Y-029825
X278225Y-126
X278229Y-069384
X27826Y-16859
X2783Y-053
X27835Y-16075
X278378Y-075253
X278386Y-189526
X278446Y-026197
X278505Y-044425
X278525Y-121375
X27879Y-117299
X279Y-0556
X279Y-0865
X279Y-0941
X279Y-1019
X279Y-1096
X279Y-1326
X279Y-148
X279Y-1557
X279Y-1788
X279075Y-11335
X279101Y-047546
X279275Y-0974
X279325Y-144
X279339Y-090373
X279425Y-151625
X27945Y-128525
X27955Y-17465
X279575Y-082558
X279575Y-105819
X279575Y-136539
X279575Y-182877
X27989Y-02433
X2799Y-0594
X2804Y-0363
X2804Y-044
X281059Y-040201
X2811Y-0324
X281606Y-046372
X28175Y-06355
X28185Y-163125
X28201Y-074572
X282025Y-14145
X282038Y-040703
X282075Y-050875
X2822Y-0259
X282243Y-160814
X282289Y-022397
X282301Y-126309
X28232Y-03276
X2824Y-0592
X282463Y-075575
X282493Y-168701
X282584Y-18652
X282625Y-047256
X282663Y-0558
X282675Y-116471
X28274Y-13271
X282925Y-15525
X282943Y-148168
X283059Y-171276
X2832Y-0321
X2833Y-0938
X2833Y-0782
X2833Y-0862
X283319Y-179104
X28338Y-10943
X2834Y-1515
X283504Y-073461
X28351Y-101975
X2838Y-0518
X2838Y-0826
X2838Y-0903
X2838Y-098
X2838Y-1132
X2838Y-1168
X2838Y-1287
X2838Y-1365
X2838Y-1441
X2838Y-1749
X2838Y-1826
X283818Y-121075
X2839Y-0286
X283916Y-070211
X283975Y-036338
X284075Y-043748
X28426Y-058728
X28432Y-1057
X284525Y-050859
X284747Y-074822
X284875Y-0396
X2851Y-0359
X2853Y-12
T3
X01765Y-1807
X01955Y-137525
X0235Y-018325
X028825Y-018425
X029087Y-088632
X029265Y-15224
X0306Y-0827
X0318Y-0521
X03365Y-17895
X0339Y-165
X03505Y-06655
X03655Y-1646
X03869Y-07306
X039302Y-11795
X041545Y-06203
X04194Y-07355
X04257Y-13988
X04257Y-15887
X04257Y-1669
X042749Y-1286
X042775Y-124375
X04333Y-01512
X045735Y-016055
X0472Y-018925
X0477Y-062709
X048375Y-066768
X05395Y-124625
X05439Y-15888
X05439Y-1669
X05451Y-06699
X054874Y-014927
X05488Y-05713
X0549Y-0536
X055Y-062902
X0588Y-0643
X0625Y-0597
X06283Y-06719
X064009Y-062229
X069327Y-027913
X07Y-023265
X07015Y-067175
X07145Y-0632
X071645Y-1362
X0736Y-166825
X07361Y-097194
X0742Y-06688
X074675Y-159275
X075525Y-124625
X075675Y-063175
X076789Y-097589
X0813Y-067
X0819Y-0729
X082375Y-0699
X082557Y-062992
X0849Y-1166
X085674Y-014927
X0903Y-0623
X0906Y-0669
X09281Y-08141
X093Y-077175
X09583Y-13604
X09595Y-06677
X10065Y-03495
X101Y-0312
X10295Y-062702
X1034Y-0668
X105341Y-062701
X109804Y-0627
X1113Y-124625
X11156Y-0976
X11183Y-1669
X112068Y-15912
X112298Y-088731
X112335Y-0668
X11256Y-0845
X116471Y-014883
X11895Y-06675
X11939Y-136125
X1274Y-0669
X1283Y-0426
X1287Y-06266
X12955Y-038993
X13035Y-124575
X1306Y-1669
X1312Y-15927
X13135Y-0976
X1319Y-06185
X135814Y-06266
X136Y-0668
X13615Y-0925
X136254Y-09645
X142575Y-0976
X14732Y-01485
X1478Y-0627
X1482Y-0668
X14966Y-101043
X1512Y-0987
X151537Y-116553
X1622Y-0667
X1627Y-04975
X1628Y-04655
X163805Y-06281
X16625Y-0621
X169536Y-062573
X1703Y-0665
X1706Y-1119
X172219Y-108181
X1772Y-0622
X177619Y-120027
X178074Y-014927
X178125Y-115075
X1786Y-0667
X18775Y-0669
X19Y-0627
X192567Y-127376
X193292Y-122819
X197525Y-066804
X1989Y-0628
X2011Y-1343
X2011Y-1305
X208874Y-014927
X210578Y-06255
X2109Y-0665
X2125Y-1378
X212675Y-14315
X218175Y-06275
X218975Y-124575
X219375Y-15919
X219375Y-1669
X21985Y-0976
X222Y-062748
X2225Y-0668
X2241Y-1465
X2243Y-1505
X22725Y-16685
X227929Y-12455
X22822Y-159156
X2286Y-063082
X2292Y-0976
X234Y-06255
X2342Y-0666
X2356Y-1535
X2356Y-157
X239674Y-014927
X242625Y-162325
X2427Y-0627
X2428Y-0668
X2436Y-165025
X2453Y-0976
X24641Y-05158
X25025Y-117157
X251Y-02055
X2524Y-166625
X253013Y-1246
X2534Y-0668
X25369Y-15909
X25397Y-174315
X2544Y-0627
X255097Y-16928
X2644Y-166925
X264733Y-15917
X2649Y-0627
X2649Y-0668
X26526Y-124522
X26625Y-1764
X2667Y-180475
X270474Y-014927
X27175Y-166925
X27226Y-159203
X2727Y-124575
X2729Y-0665
X2735Y-0629
X273725Y-1863
X2744Y-1838
X27469Y-19048
X275357Y-193691
X27822Y-19594
X27825Y-0246
X278917Y-062717
X2794Y-166925
X280033Y-1592
X280225Y-1246
X2803Y-0668
T4
X01465Y-184875
X01465Y-186075
X0162Y-183325
X0162Y-187675
X0175Y-183325
X0175Y-187675
X01895Y-184875
X01895Y-186075
T5
X0135Y-1935
X0145Y-017
X015Y-1935
X01565Y-13785
X01565Y-14175
X017Y-0145
X017Y-0195
X018Y-1935
X0194Y-085025
X0195Y-017
X0195Y-1935
X0219Y-085025
X02456Y-182
X02595Y-0781
X02655Y-08285
X0271Y-182
X02905Y-08285
X02964Y-182
X02975Y-1725
X0305Y-0755
X0313Y-06835
X03225Y-17
X03225Y-175
X03273Y-06109
X033Y-0755
X033075Y-124875
X0338Y-06835
X03475Y-1725
X03523Y-06109
X03625Y-18185
X03625Y-18435
X036454Y-144275
X279Y-017
X279Y-193
X2804Y-016725
X2805Y-193
X2835Y-193
X283525Y-016925
X285Y-017
X285Y-193
T6
X036575Y-150245
X036575Y-155325
T7
X016475Y-14915
X0165Y-1935
X037475Y-12459
X0375Y-127125
X0375Y-132205
X282Y-017
X282Y-193
T8
X02506Y-1952
X0276Y-1952
T9
X01605Y-09393
X022Y-1825
X022Y-18504
X022Y-18758
X022Y-19012
X022Y-19266
X022Y-1952
X022825Y-1373
X022825Y-13984
X022825Y-14238
X022825Y-14492
X022825Y-14746
X022825Y-15
X0262Y-06991
X0262Y-07245
X0262Y-07499
X03435Y-0335
X03435Y-03604
X03435Y-03858
X03435Y-04112
X03435Y-04366
X03435Y-0462
X03575Y-016
X03575Y-0195
X03575Y-0265
X03575Y-03
X0358Y-023
X03657Y-09434
T10
X01675Y-108
X01675Y-1145
X01675Y-123
X01675Y-1295
X02125Y-108
X02125Y-1145
X02125Y-123
X02125Y-1295
X024252Y-103009
X024252Y-109509
X024252Y-113009
X024252Y-119509
X0244Y-089
X0244Y-0935
X02441Y-09545
X02441Y-09995
X0265Y-123009
X0265Y-129509
X028752Y-103009
X028752Y-109509
X028752Y-113009
X028752Y-119509
X0309Y-089
X0309Y-0935
X03091Y-09545
X03091Y-09995
X031Y-123009
X031Y-129509
X03175Y-108
X03175Y-1145
X03625Y-108
X03625Y-1145
T11
X015Y-1575
X0199Y-1575
T12
X0167Y-1364
X0167Y-1432
X0173Y-16
X02095Y-071178
T13
X0135Y-1364
X0135Y-1432
X01355Y-1398
X025132Y-039934
T14
X017Y-017
X03225Y-1725
T8
X016602Y-169001G85X016602Y-170999
G05
X018602Y-174699G85X020601Y-174699
G05
X022601Y-169001G85X022601Y-170999
G05
T0
M30
